<ttFont>
<head>
    <!-- Most of this table will be recalculated by the compiler -->
    <tableVersion value="1.0"/>
    <fontRevision value="1.106"/>
    <checkSumAdjustment value="0x67010609"/>
    <magicNumber value="0x5f0f3cf5"/>
    <flags value="00000000 00000001"/>
    <unitsPerEm value="1000"/>
    <created value="Mon Sep 16 15:14:47 2019"/>
    <modified value="Mon Sep 16 15:22:46 2019"/>
    <xMin value="-285"/>
    <yMin value="-326"/>
    <xMax value="1971"/>
    <yMax value="1339"/>
    <macStyle value="00000000 00000010"/>
    <lowestRecPPEM value="6"/>
    <fontDirectionHint value="2"/>
    <indexToLocFormat value="0"/>
    <glyphDataFormat value="0"/>
  </head>
    <TTGlyph name=".notdef" xMin="112" yMin="-200" xMax="612" yMax="800">
      <contour>
        <pt x="112" y="-200" on="1"/>
        <pt x="112" y="800" on="1"/>
        <pt x="612" y="800" on="1"/>
        <pt x="612" y="-200" on="1"/>
      </contour>
      <contour>
        <pt x="183" y="750" on="1"/>
        <pt x="362" y="360" on="1"/>
        <pt x="541" y="750" on="1"/>
      </contour>
      <contour>
        <pt x="162" y="-76" on="1"/>
        <pt x="334" y="300" on="1"/>
        <pt x="162" y="676" on="1"/>
      </contour>
      <contour>
        <pt x="562" y="676" on="1"/>
        <pt x="390" y="300" on="1"/>
        <pt x="562" y="-76" on="1"/>
      </contour>
      <contour>
        <pt x="362" y="240" on="1"/>
        <pt x="183" y="-150" on="1"/>
        <pt x="541" y="-150" on="1"/>
      </contour>
    </TTGlyph>
    <TTGlyph name="A" xMin="-48" yMin="0" xMax="772" yMax="700">
      <contour>
        <pt x="-48" y="0" on="1"/>
        <pt x="301" y="700" on="1"/>
        <pt x="720" y="700" on="1"/>
        <pt x="772" y="0" on="1"/>
        <pt x="511" y="0" on="1"/>
        <pt x="502" y="127" on="1"/>
        <pt x="283" y="127" on="1"/>
        <pt x="221" y="0" on="1"/>
      </contour>
      <contour>
        <pt x="454" y="496" on="1"/>
        <pt x="360" y="298" on="1"/>
        <pt x="501" y="298" on="1"/>
        <pt x="493" y="496" on="1"/>
      </contour>
    </TTGlyph>
    <TTGlyph name="A.sc" xMin="-38" yMin="0" xMax="699" yMax="608">
      <component glyphName="a.sc" x="0" y="0" flags="0x204"/>
    </TTGlyph>
    <TTGlyph name="AE" xMin="-72" yMin="0" xMax="1233" yMax="700">
      <contour>
        <pt x="857" y="506" on="1"/>
        <pt x="841" y="433" on="1"/>
        <pt x="1118" y="433" on="1"/>
        <pt x="1083" y="269" on="1"/>
        <pt x="806" y="269" on="1"/>
        <pt x="790" y="194" on="1"/>
        <pt x="1160" y="194" on="1"/>
        <pt x="1101" y="0" on="1"/>
        <pt x="494" y="0" on="1"/>
        <pt x="521" y="127" on="1"/>
        <pt x="308" y="127" on="1"/>
        <pt x="222" y="0" on="1"/>
        <pt x="-72" y="0" on="1"/>
        <pt x="420" y="700" on="1"/>
        <pt x="1233" y="700" on="1"/>
        <pt x="1215" y="506" on="1"/>
      </contour>
      <contour>
        <pt x="561" y="501" on="1"/>
        <pt x="424" y="299" on="1"/>
        <pt x="558" y="299" on="1"/>
        <pt x="601" y="501" on="1"/>
      </contour>
    </TTGlyph>
    <TTGlyph name="AE.sc" xMin="-70" yMin="0" xMax="1076" yMax="608">
      <component glyphName="ae.sc" x="0" y="0" flags="0x204"/>
    </TTGlyph>
    <TTGlyph name="AEacute" xMin="-72" yMin="0" xMax="1233" yMax="957">
      <component glyphName="AE" x="0" y="0" flags="0x4"/>
      <component glyphName="acute" x="504" y="136" flags="0x4"/>
    </TTGlyph>
    <TTGlyph name="AEacute.sc" xMin="-70" yMin="0" xMax="1076" yMax="865">
      <component glyphName="aeacute.sc" x="0" y="0" flags="0x204"/>
    </TTGlyph>
    <TTGlyph name="Aacute" xMin="-48" yMin="0" xMax="826" yMax="957">
      <component glyphName="A" x="0" y="0" flags="0x204"/>
      <component glyphName="acute" x="241" y="136" flags="0x4"/>
    </TTGlyph>
    <TTGlyph name="Aacute.sc" xMin="-38" yMin="0" xMax="767" yMax="865">
      <component glyphName="aacute.sc" x="0" y="0" flags="0x204"/>
    </TTGlyph>
    <TTGlyph name="Abreve" xMin="-48" yMin="0" xMax="796" yMax="993">
      <component glyphName="A" x="0" y="0" flags="0x204"/>
      <component glyphName="breve" x="208" y="136" flags="0x4"/>
    </TTGlyph>
    <TTGlyph name="Abreve.sc" xMin="-38" yMin="0" xMax="737" yMax="901">
      <component glyphName="abreve.sc" x="0" y="0" flags="0x204"/>
    </TTGlyph>
    <TTGlyph name="Acircumflex" xMin="-48" yMin="0" xMax="777" yMax="975">
      <component glyphName="A" x="0" y="0" flags="0x204"/>
      <component glyphName="circumflex" x="194" y="136" flags="0x4"/>
    </TTGlyph>
    <TTGlyph name="Acircumflex.sc" xMin="-38" yMin="0" xMax="718" yMax="883">
      <component glyphName="acircumflex.sc" x="0" y="0" flags="0x204"/>
    </TTGlyph>
    <TTGlyph name="Adieresis" xMin="-48" yMin="0" xMax="824" yMax="976">
      <component glyphName="A" x="0" y="0" flags="0x204"/>
      <component glyphName="dieresis" x="224" y="136" flags="0x4"/>
    </TTGlyph>
    <TTGlyph name="Adieresis.sc" xMin="-38" yMin="0" xMax="764" yMax="884">
      <component glyphName="adieresis.sc" x="0" y="0" flags="0x204"/>
    </TTGlyph>
    <TTGlyph name="Agrave" xMin="-48" yMin="0" xMax="772" yMax="961">
      <component glyphName="A" x="0" y="0" flags="0x204"/>
      <component glyphName="grave" x="136" y="136" flags="0x4"/>
    </TTGlyph>
    <TTGlyph name="Agrave.sc" xMin="-38" yMin="0" xMax="699" yMax="869">
      <component glyphName="agrave.sc" x="0" y="0" flags="0x204"/>
    </TTGlyph>
    <TTGlyph name="Amacron" xMin="-48" yMin="0" xMax="785" yMax="942">
      <component glyphName="A" x="0" y="0" flags="0x204"/>
      <component glyphName="macron" x="205" y="136" flags="0x4"/>
    </TTGlyph>
    <TTGlyph name="Amacron.sc" xMin="-38" yMin="0" xMax="726" yMax="850">
      <component glyphName="amacron.sc" x="0" y="0" flags="0x204"/>
    </TTGlyph>
    <TTGlyph name="Aogonek" xMin="-48" yMin="-326" xMax="772" yMax="700">
      <contour>
        <pt x="-48" y="0" on="1"/>
        <pt x="301" y="700" on="1"/>
        <pt x="720" y="700" on="1"/>
        <pt x="772" y="0" on="1"/>
        <pt x="713" y="-47" on="1"/>
        <pt x="667" y="-84" on="0"/>
        <pt x="627" y="-125" on="0"/>
        <pt x="627" y="-141" on="1"/>
        <pt x="627" y="-154" on="0"/>
        <pt x="652" y="-167" on="0"/>
        <pt x="680" y="-167" on="1"/>
        <pt x="701" y="-167" on="0"/>
        <pt x="741" y="-159" on="0"/>
        <pt x="766" y="-152" on="1"/>
        <pt x="733" y="-303" on="1"/>
        <pt x="702" y="-314" on="0"/>
        <pt x="636" y="-326" on="0"/>
        <pt x="593" y="-326" on="1"/>
        <pt x="495" y="-326" on="0"/>
        <pt x="413" y="-255" on="0"/>
        <pt x="413" y="-213" on="1"/>
        <pt x="413" y="-159" on="0"/>
        <pt x="504" y="-54" on="0"/>
        <pt x="623" y="0" on="1"/>
        <pt x="511" y="0" on="1"/>
        <pt x="502" y="127" on="1"/>
        <pt x="283" y="127" on="1"/>
        <pt x="221" y="0" on="1"/>
      </contour>
      <contour>
        <pt x="454" y="496" on="1"/>
        <pt x="360" y="298" on="1"/>
        <pt x="501" y="298" on="1"/>
        <pt x="493" y="496" on="1"/>
      </contour>
    </TTGlyph>
    <TTGlyph name="Aogonek.sc" xMin="-38" yMin="-326" xMax="699" yMax="608">
      <component glyphName="aogonek.sc" x="0" y="0" flags="0x204"/>
    </TTGlyph>
    <TTGlyph name="Aring" xMin="-48" yMin="0" xMax="772" yMax="1097">
      <component glyphName="A" x="0" y="0" flags="0x204"/>
      <component glyphName="ring" x="131" y="136" flags="0x4"/>
    </TTGlyph>
    <TTGlyph name="Aring.sc" xMin="-38" yMin="0" xMax="699" yMax="1005">
      <component glyphName="aring.sc" x="0" y="0" flags="0x204"/>
    </TTGlyph>
    <TTGlyph name="Aringacute" xMin="-48" yMin="0" xMax="907" yMax="1339">
      <component glyphName="A" x="0" y="0" flags="0x204"/>
      <component glyphName="ring" x="131" y="136" flags="0x4"/>
      <component glyphName="acute" x="322" y="518" flags="0x4"/>
    </TTGlyph>
    <TTGlyph name="Aringacute.sc" xMin="-38" yMin="0" xMax="848" yMax="1247">
      <component glyphName="aringacute.sc" x="0" y="0" flags="0x204"/>
    </TTGlyph>
    <TTGlyph name="Atilde" xMin="-48" yMin="0" xMax="790" yMax="986">
      <component glyphName="A" x="0" y="0" flags="0x204"/>
      <component glyphName="tilde" x="194" y="136" flags="0x4"/>
    </TTGlyph>
    <TTGlyph name="Atilde.sc" xMin="-38" yMin="0" xMax="731" yMax="894">
      <component glyphName="atilde.sc" x="0" y="0" flags="0x204"/>
    </TTGlyph>
    <TTGlyph name="B" xMin="8" yMin="0" xMax="791" yMax="700">
      <contour>
        <pt x="8" y="0" on="1"/>
        <pt x="157" y="700" on="1"/>
        <pt x="520" y="700" on="1"/>
        <pt x="671" y="700" on="0"/>
        <pt x="791" y="610" on="0"/>
        <pt x="791" y="533" on="1"/>
        <pt x="791" y="469" on="0"/>
        <pt x="716" y="386" on="0"/>
        <pt x="653" y="365" on="1"/>
        <pt x="698" y="347" on="0"/>
        <pt x="751" y="272" on="0"/>
        <pt x="751" y="220" on="1"/>
        <pt x="751" y="122" on="0"/>
        <pt x="597" y="0" on="0"/>
        <pt x="412" y="0" on="1"/>
      </contour>
      <contour>
        <pt x="353" y="419" on="1"/>
        <pt x="465" y="419" on="1"/>
        <pt x="505" y="419" on="0"/>
        <pt x="543" y="455" on="0"/>
        <pt x="543" y="481" on="1"/>
        <pt x="543" y="503" on="0"/>
        <pt x="514" y="526" on="0"/>
        <pt x="486" y="526" on="1"/>
        <pt x="375" y="526" on="1"/>
      </contour>
      <contour>
        <pt x="324" y="287" on="1"/>
        <pt x="301" y="175" on="1"/>
        <pt x="422" y="175" on="1"/>
        <pt x="465" y="175" on="0"/>
        <pt x="504" y="212" on="0"/>
        <pt x="504" y="240" on="1"/>
        <pt x="504" y="262" on="0"/>
        <pt x="475" y="287" on="0"/>
        <pt x="446" y="287" on="1"/>
      </contour>
    </TTGlyph>
    <TTGlyph name="B.sc" xMin="6" yMin="0" xMax="731" yMax="608">
      <component glyphName="b.sc" x="0" y="0" flags="0x204"/>
    </TTGlyph>
    <TTGlyph name="C" xMin="43" yMin="-20" xMax="743" yMax="720">
      <contour>
        <pt x="471" y="720" on="1"/>
        <pt x="558" y="720" on="0"/>
        <pt x="703" y="671" on="0"/>
        <pt x="743" y="640" on="1"/>
        <pt x="698" y="431" on="1"/>
        <pt x="696" y="431" on="1"/>
        <pt x="651" y="464" on="0"/>
        <pt x="547" y="508" on="0"/>
        <pt x="487" y="508" on="1"/>
        <pt x="392" y="508" on="0"/>
        <pt x="293" y="402" on="0"/>
        <pt x="293" y="325" on="1"/>
        <pt x="293" y="262" on="0"/>
        <pt x="380" y="192" on="0"/>
        <pt x="457" y="192" on="1"/>
        <pt x="508" y="192" on="0"/>
        <pt x="612" y="219" on="0"/>
        <pt x="657" y="238" on="1"/>
        <pt x="659" y="238" on="1"/>
        <pt x="614" y="25" on="1"/>
        <pt x="583" y="8" on="0"/>
        <pt x="473" y="-20" on="0"/>
        <pt x="407" y="-20" on="1"/>
        <pt x="328" y="-20" on="0"/>
        <pt x="194" y="20" on="0"/>
        <pt x="97" y="100" on="0"/>
        <pt x="43" y="221" on="0"/>
        <pt x="43" y="301" on="1"/>
        <pt x="43" y="392" on="0"/>
        <pt x="107" y="546" on="0"/>
        <pt x="220" y="657" on="0"/>
        <pt x="378" y="720" on="0"/>
      </contour>
    </TTGlyph>
    <TTGlyph name="C.sc" xMin="38" yMin="-19" xMax="665" yMax="627">
      <component glyphName="c.sc" x="0" y="0" flags="0x204"/>
    </TTGlyph>
    <TTGlyph name="Cacute" xMin="43" yMin="-20" xMax="801" yMax="977">
      <component glyphName="C" x="0" y="0" flags="0x204"/>
      <component glyphName="acute" x="216" y="156" flags="0x4"/>
    </TTGlyph>
    <TTGlyph name="Cacute.sc" xMin="38" yMin="-19" xMax="753" yMax="884">
      <component glyphName="cacute.sc" x="0" y="0" flags="0x204"/>
    </TTGlyph>
    <TTGlyph name="Ccaron" xMin="43" yMin="-20" xMax="821" yMax="995">
      <component glyphName="C" x="0" y="0" flags="0x204"/>
      <component glyphName="caron" x="194" y="156" flags="0x4"/>
    </TTGlyph>
    <TTGlyph name="Ccaron.sc" xMin="38" yMin="-19" xMax="773" yMax="902">
      <component glyphName="ccaron.sc" x="0" y="0" flags="0x204"/>
    </TTGlyph>
    <TTGlyph name="Ccedilla" xMin="43" yMin="-205" xMax="743" yMax="720">
      <contour>
        <pt x="471" y="720" on="1"/>
        <pt x="558" y="720" on="0"/>
        <pt x="703" y="671" on="0"/>
        <pt x="743" y="640" on="1"/>
        <pt x="698" y="431" on="1"/>
        <pt x="696" y="431" on="1"/>
        <pt x="651" y="464" on="0"/>
        <pt x="547" y="508" on="0"/>
        <pt x="487" y="508" on="1"/>
        <pt x="392" y="508" on="0"/>
        <pt x="293" y="402" on="0"/>
        <pt x="293" y="325" on="1"/>
        <pt x="293" y="262" on="0"/>
        <pt x="380" y="192" on="0"/>
        <pt x="457" y="192" on="1"/>
        <pt x="508" y="192" on="0"/>
        <pt x="612" y="219" on="0"/>
        <pt x="657" y="238" on="1"/>
        <pt x="659" y="238" on="1"/>
        <pt x="614" y="25" on="1"/>
        <pt x="586" y="9" on="0"/>
        <pt x="492" y="-16" on="0"/>
        <pt x="435" y="-19" on="1"/>
        <pt x="320" y="-205" on="1"/>
        <pt x="58" y="-205" on="1"/>
        <pt x="64" y="-179" on="1"/>
        <pt x="260" y="-4" on="1"/>
        <pt x="275" y="-4" on="1"/>
        <pt x="171" y="24" on="0"/>
        <pt x="43" y="176" on="0"/>
        <pt x="43" y="301" on="1"/>
        <pt x="43" y="392" on="0"/>
        <pt x="107" y="546" on="0"/>
        <pt x="220" y="657" on="0"/>
        <pt x="378" y="720" on="0"/>
      </contour>
    </TTGlyph>
    <TTGlyph name="Ccedilla.sc" xMin="16" yMin="-203" xMax="665" yMax="627">
      <component glyphName="ccedilla.sc" x="0" y="0" flags="0x204"/>
    </TTGlyph>
    <TTGlyph name="Cdotaccent" xMin="43" yMin="-20" xMax="743" yMax="998">
      <component glyphName="C" x="0" y="0" flags="0x204"/>
      <component glyphName="dotaccent" x="188" y="156" flags="0x4"/>
    </TTGlyph>
    <TTGlyph name="Cdotaccent.sc" xMin="38" yMin="-19" xMax="665" yMax="905">
      <component glyphName="cdotaccent.sc" x="0" y="0" flags="0x204"/>
    </TTGlyph>
    <TTGlyph name="D" xMin="8" yMin="0" xMax="813" yMax="700">
      <contour>
        <pt x="8" y="0" on="1"/>
        <pt x="157" y="700" on="1"/>
        <pt x="429" y="700" on="1"/>
        <pt x="544" y="700" on="0"/>
        <pt x="694" y="649" on="0"/>
        <pt x="779" y="567" on="0"/>
        <pt x="813" y="461" on="0"/>
        <pt x="813" y="406" on="1"/>
        <pt x="813" y="340" on="0"/>
        <pt x="769" y="195" on="0"/>
        <pt x="667" y="77" on="0"/>
        <pt x="493" y="0" on="0"/>
        <pt x="365" y="0" on="1"/>
      </contour>
      <contour>
        <pt x="557" y="386" on="1"/>
        <pt x="557" y="438" on="0"/>
        <pt x="498" y="499" on="0"/>
        <pt x="429" y="499" on="1"/>
        <pt x="371" y="499" on="1"/>
        <pt x="308" y="201" on="1"/>
        <pt x="381" y="201" on="1"/>
        <pt x="423" y="201" on="0"/>
        <pt x="489" y="230" on="0"/>
        <pt x="533" y="280" on="0"/>
        <pt x="557" y="348" on="0"/>
      </contour>
    </TTGlyph>
    <TTGlyph name="D.sc" xMin="6" yMin="0" xMax="744" yMax="608">
      <component glyphName="d.sc" x="0" y="0" flags="0x204"/>
    </TTGlyph>
    <TTGlyph name="Dcaron" xMin="8" yMin="0" xMax="832" yMax="975">
      <component glyphName="D" x="0" y="0" flags="0x204"/>
      <component glyphName="caron" x="205" y="136" flags="0x4"/>
    </TTGlyph>
    <TTGlyph name="Dcaron.sc" xMin="6" yMin="0" xMax="783" yMax="883">
      <component glyphName="dcaron.sc" x="0" y="0" flags="0x204"/>
    </TTGlyph>
    <TTGlyph name="Dcroat" xMin="24" yMin="0" xMax="876" yMax="700">
      <component glyphName="Eth" x="0" y="0" flags="0x204"/>
    </TTGlyph>
    <TTGlyph name="Dcroat.sc" xMin="6" yMin="0" xMax="793" yMax="608">
      <component glyphName="dcroat.sc" x="0" y="0" flags="0x204"/>
    </TTGlyph>
    <TTGlyph name="E" xMin="8" yMin="0" xMax="747" yMax="700">
      <contour>
        <pt x="371" y="506" on="1"/>
        <pt x="355" y="433" on="1"/>
        <pt x="632" y="433" on="1"/>
        <pt x="597" y="269" on="1"/>
        <pt x="320" y="269" on="1"/>
        <pt x="304" y="194" on="1"/>
        <pt x="674" y="194" on="1"/>
        <pt x="615" y="0" on="1"/>
        <pt x="8" y="0" on="1"/>
        <pt x="157" y="700" on="1"/>
        <pt x="747" y="700" on="1"/>
        <pt x="729" y="506" on="1"/>
      </contour>
    </TTGlyph>
    <TTGlyph name="E.sc" xMin="6" yMin="0" xMax="664" yMax="608">
      <component glyphName="e.sc" x="0" y="0" flags="0x204"/>
    </TTGlyph>
    <TTGlyph name="Eacute" xMin="8" yMin="0" xMax="770" yMax="957">
      <component glyphName="E" x="0" y="0" flags="0x204"/>
      <component glyphName="acute" x="185" y="136" flags="0x4"/>
    </TTGlyph>
    <TTGlyph name="Eacute.sc" xMin="6" yMin="0" xMax="702" yMax="865">
      <component glyphName="eacute.sc" x="0" y="0" flags="0x204"/>
    </TTGlyph>
    <TTGlyph name="Ebreve" xMin="8" yMin="0" xMax="747" yMax="993">
      <component glyphName="E" x="0" y="0" flags="0x204"/>
      <component glyphName="breve" x="152" y="136" flags="0x4"/>
    </TTGlyph>
    <TTGlyph name="Ebreve.sc" xMin="6" yMin="0" xMax="672" yMax="901">
      <component glyphName="ebreve.sc" x="0" y="0" flags="0x204"/>
    </TTGlyph>
    <TTGlyph name="Ecaron" xMin="8" yMin="0" xMax="790" yMax="975">
      <component glyphName="E" x="0" y="0" flags="0x204"/>
      <component glyphName="caron" x="163" y="136" flags="0x4"/>
    </TTGlyph>
    <TTGlyph name="Ecaron.sc" xMin="6" yMin="0" xMax="722" yMax="883">
      <component glyphName="ecaron.sc" x="0" y="0" flags="0x204"/>
    </TTGlyph>
    <TTGlyph name="Ecircumflex" xMin="8" yMin="0" xMax="747" yMax="975">
      <component glyphName="E" x="0" y="0" flags="0x204"/>
      <component glyphName="circumflex" x="138" y="136" flags="0x4"/>
    </TTGlyph>
    <TTGlyph name="Ecircumflex.sc" xMin="6" yMin="0" xMax="664" yMax="883">
      <component glyphName="ecircumflex.sc" x="0" y="0" flags="0x204"/>
    </TTGlyph>
    <TTGlyph name="Edieresis" xMin="8" yMin="0" xMax="767" yMax="976">
      <component glyphName="E" x="0" y="0" flags="0x204"/>
      <component glyphName="dieresis" x="167" y="136" flags="0x4"/>
    </TTGlyph>
    <TTGlyph name="Edieresis.sc" xMin="6" yMin="0" xMax="700" yMax="884">
      <component glyphName="edieresis.sc" x="0" y="0" flags="0x204"/>
    </TTGlyph>
    <TTGlyph name="Edotaccent" xMin="8" yMin="0" xMax="747" yMax="978">
      <component glyphName="E" x="0" y="0" flags="0x204"/>
      <component glyphName="dotaccent" x="157" y="136" flags="0x4"/>
    </TTGlyph>
    <TTGlyph name="Edotaccent.sc" xMin="6" yMin="0" xMax="664" yMax="886">
      <component glyphName="edotaccent.sc" x="0" y="0" flags="0x204"/>
    </TTGlyph>
    <TTGlyph name="Egrave" xMin="8" yMin="0" xMax="747" yMax="961">
      <component glyphName="E" x="0" y="0" flags="0x204"/>
      <component glyphName="grave" x="80" y="136" flags="0x4"/>
    </TTGlyph>
    <TTGlyph name="Egrave.sc" xMin="6" yMin="0" xMax="664" yMax="869">
      <component glyphName="egrave.sc" x="0" y="0" flags="0x204"/>
    </TTGlyph>
    <TTGlyph name="Emacron" xMin="8" yMin="0" xMax="747" yMax="942">
      <component glyphName="E" x="0" y="0" flags="0x204"/>
      <component glyphName="macron" x="149" y="136" flags="0x4"/>
    </TTGlyph>
    <TTGlyph name="Emacron.sc" xMin="6" yMin="0" xMax="664" yMax="850">
      <component glyphName="emacron.sc" x="0" y="0" flags="0x204"/>
    </TTGlyph>
    <TTGlyph name="Eogonek" xMin="8" yMin="-326" xMax="747" yMax="700">
      <contour>
        <pt x="371" y="506" on="1"/>
        <pt x="355" y="433" on="1"/>
        <pt x="632" y="433" on="1"/>
        <pt x="597" y="269" on="1"/>
        <pt x="320" y="269" on="1"/>
        <pt x="304" y="194" on="1"/>
        <pt x="674" y="194" on="1"/>
        <pt x="615" y="0" on="1"/>
        <pt x="556" y="-47" on="1"/>
        <pt x="510" y="-84" on="0"/>
        <pt x="470" y="-125" on="0"/>
        <pt x="470" y="-141" on="1"/>
        <pt x="470" y="-154" on="0"/>
        <pt x="495" y="-167" on="0"/>
        <pt x="523" y="-167" on="1"/>
        <pt x="544" y="-167" on="0"/>
        <pt x="584" y="-159" on="0"/>
        <pt x="609" y="-152" on="1"/>
        <pt x="576" y="-303" on="1"/>
        <pt x="545" y="-314" on="0"/>
        <pt x="479" y="-326" on="0"/>
        <pt x="436" y="-326" on="1"/>
        <pt x="338" y="-326" on="0"/>
        <pt x="256" y="-255" on="0"/>
        <pt x="256" y="-213" on="1"/>
        <pt x="256" y="-159" on="0"/>
        <pt x="347" y="-54" on="0"/>
        <pt x="466" y="0" on="1"/>
        <pt x="8" y="0" on="1"/>
        <pt x="157" y="700" on="1"/>
        <pt x="747" y="700" on="1"/>
        <pt x="729" y="506" on="1"/>
      </contour>
    </TTGlyph>
    <TTGlyph name="Eogonek.sc" xMin="6" yMin="-326" xMax="664" yMax="608">
      <component glyphName="eogonek.sc" x="0" y="0" flags="0x204"/>
    </TTGlyph>
    <TTGlyph name="Eth" xMin="24" yMin="0" xMax="876" yMax="700">
      <contour>
        <pt x="71" y="0" on="1"/>
        <pt x="128" y="267" on="1"/>
        <pt x="24" y="267" on="1"/>
        <pt x="76" y="436" on="1"/>
        <pt x="164" y="436" on="1"/>
        <pt x="220" y="700" on="1"/>
        <pt x="492" y="700" on="1"/>
        <pt x="607" y="700" on="0"/>
        <pt x="757" y="649" on="0"/>
        <pt x="842" y="567" on="0"/>
        <pt x="876" y="461" on="0"/>
        <pt x="876" y="406" on="1"/>
        <pt x="876" y="340" on="0"/>
        <pt x="832" y="195" on="0"/>
        <pt x="730" y="77" on="0"/>
        <pt x="556" y="0" on="0"/>
        <pt x="428" y="0" on="1"/>
      </contour>
      <contour>
        <pt x="623" y="383" on="1"/>
        <pt x="623" y="440" on="0"/>
        <pt x="563" y="501" on="0"/>
        <pt x="483" y="501" on="1"/>
        <pt x="432" y="501" on="1"/>
        <pt x="416" y="424" on="1"/>
        <pt x="538" y="424" on="1"/>
        <pt x="507" y="278" on="1"/>
        <pt x="385" y="278" on="1"/>
        <pt x="368" y="199" on="1"/>
        <pt x="441" y="199" on="1"/>
        <pt x="494" y="199" on="0"/>
        <pt x="565" y="233" on="0"/>
        <pt x="606" y="286" on="0"/>
        <pt x="623" y="352" on="0"/>
      </contour>
    </TTGlyph>
    <TTGlyph name="Eth.sc" xMin="6" yMin="0" xMax="793" yMax="608">
      <component glyphName="eth.sc" x="0" y="0" flags="0x204"/>
    </TTGlyph>
    <TTGlyph name="Euro" xMin="21" yMin="-24" xMax="798" yMax="724">
      <contour>
        <pt x="21" y="194" on="1"/>
        <pt x="57" y="327" on="1"/>
        <pt x="144" y="327" on="1"/>
        <pt x="145" y="340" on="0"/>
        <pt x="148" y="366" on="0"/>
        <pt x="150" y="379" on="1"/>
        <pt x="71" y="379" on="1"/>
        <pt x="107" y="512" on="1"/>
        <pt x="195" y="512" on="1"/>
        <pt x="248" y="611" on="0"/>
        <pt x="448" y="724" on="0"/>
        <pt x="576" y="724" on="1"/>
        <pt x="651" y="724" on="0"/>
        <pt x="766" y="687" on="0"/>
        <pt x="798" y="665" on="1"/>
        <pt x="760" y="490" on="1"/>
        <pt x="759" y="490" on="1"/>
        <pt x="722" y="513" on="0"/>
        <pt x="632" y="545" on="0"/>
        <pt x="583" y="545" on="1"/>
        <pt x="529" y="545" on="0"/>
        <pt x="451" y="510" on="0"/>
        <pt x="426" y="482" on="1"/>
        <pt x="635" y="482" on="1"/>
        <pt x="613" y="379" on="1"/>
        <pt x="376" y="379" on="1"/>
        <pt x="373" y="366" on="0"/>
        <pt x="370" y="340" on="0"/>
        <pt x="369" y="327" on="1"/>
        <pt x="603" y="327" on="1"/>
        <pt x="581" y="224" on="1"/>
        <pt x="385" y="224" on="1"/>
        <pt x="405" y="185" on="0"/>
        <pt x="489" y="156" on="0"/>
        <pt x="538" y="156" on="1"/>
        <pt x="584" y="156" on="0"/>
        <pt x="659" y="172" on="0"/>
        <pt x="696" y="185" on="1"/>
        <pt x="698" y="185" on="1"/>
        <pt x="659" y="7" on="1"/>
        <pt x="633" y="-6" on="0"/>
        <pt x="542" y="-24" on="0"/>
        <pt x="492" y="-24" on="1"/>
        <pt x="364" y="-24" on="0"/>
        <pt x="184" y="86" on="0"/>
        <pt x="155" y="194" on="1"/>
      </contour>
    </TTGlyph>
    <TTGlyph name="Euro.tab" xMin="3" yMin="-24" xMax="756" yMax="724">
      <contour>
        <pt x="3" y="194" on="1"/>
        <pt x="39" y="327" on="1"/>
        <pt x="126" y="327" on="1"/>
        <pt x="127" y="340" on="0"/>
        <pt x="130" y="366" on="0"/>
        <pt x="132" y="379" on="1"/>
        <pt x="53" y="379" on="1"/>
        <pt x="89" y="512" on="1"/>
        <pt x="175" y="512" on="1"/>
        <pt x="227" y="611" on="0"/>
        <pt x="422" y="724" on="0"/>
        <pt x="546" y="724" on="1"/>
        <pt x="616" y="724" on="0"/>
        <pt x="725" y="690" on="0"/>
        <pt x="756" y="669" on="1"/>
        <pt x="719" y="497" on="1"/>
        <pt x="718" y="497" on="1"/>
        <pt x="683" y="518" on="0"/>
        <pt x="596" y="548" on="0"/>
        <pt x="549" y="548" on="1"/>
        <pt x="496" y="548" on="0"/>
        <pt x="420" y="513" on="0"/>
        <pt x="395" y="484" on="1"/>
        <pt x="598" y="484" on="1"/>
        <pt x="576" y="379" on="1"/>
        <pt x="346" y="379" on="1"/>
        <pt x="343" y="366" on="0"/>
        <pt x="340" y="340" on="0"/>
        <pt x="339" y="327" on="1"/>
        <pt x="566" y="327" on="1"/>
        <pt x="544" y="222" on="1"/>
        <pt x="354" y="222" on="1"/>
        <pt x="374" y="182" on="0"/>
        <pt x="455" y="153" on="0"/>
        <pt x="502" y="153" on="1"/>
        <pt x="545" y="153" on="0"/>
        <pt x="618" y="168" on="0"/>
        <pt x="652" y="179" on="1"/>
        <pt x="654" y="179" on="1"/>
        <pt x="617" y="4" on="1"/>
        <pt x="592" y="-7" on="0"/>
        <pt x="508" y="-24" on="0"/>
        <pt x="462" y="-24" on="1"/>
        <pt x="339" y="-24" on="0"/>
        <pt x="165" y="86" on="0"/>
        <pt x="137" y="194" on="1"/>
      </contour>
    </TTGlyph>
    <TTGlyph name="F" xMin="8" yMin="0" xMax="732" yMax="700">
      <contour>
        <pt x="372" y="504" on="1"/>
        <pt x="351" y="403" on="1"/>
        <pt x="628" y="403" on="1"/>
        <pt x="590" y="225" on="1"/>
        <pt x="313" y="225" on="1"/>
        <pt x="265" y="0" on="1"/>
        <pt x="8" y="0" on="1"/>
        <pt x="157" y="700" on="1"/>
        <pt x="732" y="700" on="1"/>
        <pt x="713" y="504" on="1"/>
      </contour>
    </TTGlyph>
    <TTGlyph name="F.sc" xMin="6" yMin="0" xMax="668" yMax="608">
      <component glyphName="f.sc" x="0" y="0" flags="0x204"/>
    </TTGlyph>
    <TTGlyph name="G" xMin="43" yMin="-24" xMax="813" yMax="723">
      <contour>
        <pt x="507" y="515" on="1"/>
        <pt x="452" y="515" on="0"/>
        <pt x="370" y="482" on="0"/>
        <pt x="317" y="425" on="0"/>
        <pt x="291" y="350" on="0"/>
        <pt x="291" y="308" on="1"/>
        <pt x="291" y="243" on="0"/>
        <pt x="362" y="171" on="0"/>
        <pt x="433" y="171" on="1"/>
        <pt x="482" y="171" on="0"/>
        <pt x="555" y="211" on="0"/>
        <pt x="565" y="254" on="1"/>
        <pt x="398" y="254" on="1"/>
        <pt x="433" y="417" on="1"/>
        <pt x="813" y="417" on="1"/>
        <pt x="803" y="302" on="0"/>
        <pt x="752" y="136" on="0"/>
        <pt x="695" y="79" on="1"/>
        <pt x="649" y="33" on="0"/>
        <pt x="509" y="-24" on="0"/>
        <pt x="409" y="-24" on="1"/>
        <pt x="239" y="-24" on="0"/>
        <pt x="43" y="150" on="0"/>
        <pt x="43" y="296" on="1"/>
        <pt x="43" y="382" on="0"/>
        <pt x="103" y="538" on="0"/>
        <pt x="218" y="654" on="0"/>
        <pt x="386" y="723" on="0"/>
        <pt x="493" y="723" on="1"/>
        <pt x="576" y="723" on="0"/>
        <pt x="722" y="682" on="0"/>
        <pt x="773" y="651" on="1"/>
        <pt x="730" y="452" on="1"/>
        <pt x="729" y="452" on="1"/>
        <pt x="678" y="480" on="0"/>
        <pt x="569" y="515" on="0"/>
      </contour>
    </TTGlyph>
    <TTGlyph name="G.sc" xMin="38" yMin="-23" xMax="724" yMax="627">
      <component glyphName="g.sc" x="0" y="0" flags="0x204"/>
    </TTGlyph>
    <TTGlyph name="Gbreve" xMin="43" yMin="-24" xMax="813" yMax="1016">
      <component glyphName="G" x="0" y="0" flags="0x204"/>
      <component glyphName="breve" x="174" y="159" flags="0x4"/>
    </TTGlyph>
    <TTGlyph name="Gbreve.sc" xMin="38" yMin="-23" xMax="724" yMax="920">
      <component glyphName="gbreve.sc" x="0" y="0" flags="0x204"/>
    </TTGlyph>
    <TTGlyph name="Gdotaccent" xMin="43" yMin="-24" xMax="813" yMax="1001">
      <component glyphName="G" x="0" y="0" flags="0x204"/>
      <component glyphName="dotaccent" x="179" y="159" flags="0x4"/>
    </TTGlyph>
    <TTGlyph name="Gdotaccent.sc" xMin="38" yMin="-23" xMax="724" yMax="905">
      <component glyphName="gdotaccent.sc" x="0" y="0" flags="0x204"/>
    </TTGlyph>
    <TTGlyph name="H" xMin="8" yMin="0" xMax="881" yMax="700">
      <contour>
        <pt x="475" y="0" on="1"/>
        <pt x="528" y="250" on="1"/>
        <pt x="318" y="250" on="1"/>
        <pt x="265" y="0" on="1"/>
        <pt x="8" y="0" on="1"/>
        <pt x="157" y="700" on="1"/>
        <pt x="414" y="700" on="1"/>
        <pt x="362" y="458" on="1"/>
        <pt x="572" y="458" on="1"/>
        <pt x="624" y="700" on="1"/>
        <pt x="881" y="700" on="1"/>
        <pt x="732" y="0" on="1"/>
      </contour>
    </TTGlyph>
    <TTGlyph name="H.sc" xMin="6" yMin="0" xMax="793" yMax="608">
      <component glyphName="h.sc" x="0" y="0" flags="0x204"/>
    </TTGlyph>
    <TTGlyph name="Hbar" xMin="62" yMin="0" xMax="1014" yMax="700">
      <contour>
        <pt x="62" y="465" on="1"/>
        <pt x="113" y="634" on="1"/>
        <pt x="204" y="634" on="1"/>
        <pt x="218" y="700" on="1"/>
        <pt x="473" y="700" on="1"/>
        <pt x="457" y="623" on="1"/>
        <pt x="671" y="623" on="1"/>
        <pt x="687" y="700" on="1"/>
        <pt x="942" y="700" on="1"/>
        <pt x="928" y="634" on="1"/>
        <pt x="1014" y="634" on="1"/>
        <pt x="998" y="465" on="1"/>
        <pt x="892" y="465" on="1"/>
        <pt x="793" y="0" on="1"/>
        <pt x="538" y="0" on="1"/>
        <pt x="580" y="199" on="1"/>
        <pt x="366" y="199" on="1"/>
        <pt x="324" y="0" on="1"/>
        <pt x="69" y="0" on="1"/>
        <pt x="168" y="465" on="1"/>
      </contour>
      <contour>
        <pt x="411" y="407" on="1"/>
        <pt x="625" y="407" on="1"/>
        <pt x="639" y="475" on="1"/>
        <pt x="425" y="475" on="1"/>
      </contour>
    </TTGlyph>
    <TTGlyph name="Hbar.sc" xMin="49" yMin="0" xMax="913" yMax="608">
      <component glyphName="hbar.sc" x="0" y="0" flags="0x204"/>
    </TTGlyph>
    <TTGlyph name="I" xMin="8" yMin="0" xMax="414" yMax="700">
      <contour>
        <pt x="265" y="0" on="1"/>
        <pt x="8" y="0" on="1"/>
        <pt x="157" y="700" on="1"/>
        <pt x="414" y="700" on="1"/>
      </contour>
    </TTGlyph>
    <TTGlyph name="I.sc" xMin="7" yMin="0" xMax="387" yMax="608">
      <component glyphName="i.sc" x="0" y="0" flags="0x204"/>
    </TTGlyph>
    <TTGlyph name="Iacute" xMin="8" yMin="0" xMax="617" yMax="957">
      <component glyphName="I" x="0" y="0" flags="0x204"/>
      <component glyphName="acute" x="32" y="136" flags="0x4"/>
    </TTGlyph>
    <TTGlyph name="Iacute.sc" xMin="7" yMin="0" xMax="583" yMax="865">
      <component glyphName="iacute.sc" x="0" y="0" flags="0x204"/>
    </TTGlyph>
    <TTGlyph name="Ibreve" xMin="8" yMin="0" xMax="559" yMax="993">
      <component glyphName="I" x="0" y="0" flags="0x204"/>
      <component glyphName="breve" x="-29" y="136" flags="0x4"/>
    </TTGlyph>
    <TTGlyph name="Ibreve.sc" xMin="7" yMin="0" xMax="535" yMax="901">
      <component glyphName="ibreve.sc" x="0" y="0" flags="0x204"/>
    </TTGlyph>
    <TTGlyph name="Icircumflex" xMin="8" yMin="0" xMax="540" yMax="975">
      <component glyphName="I" x="0" y="0" flags="0x204"/>
      <component glyphName="circumflex" x="-43" y="136" flags="0x4"/>
    </TTGlyph>
    <TTGlyph name="Icircumflex.sc" xMin="-2" yMin="0" xMax="516" yMax="883">
      <component glyphName="icircumflex.sc" x="0" y="0" flags="0x204"/>
    </TTGlyph>
    <TTGlyph name="Idieresis" xMin="8" yMin="0" xMax="586" yMax="976">
      <component glyphName="I" x="0" y="0" flags="0x204"/>
      <component glyphName="dieresis" x="-14" y="136" flags="0x4"/>
    </TTGlyph>
    <TTGlyph name="Idieresis.sc" xMin="7" yMin="0" xMax="563" yMax="884">
      <component glyphName="idieresis.sc" x="0" y="0" flags="0x204"/>
    </TTGlyph>
    <TTGlyph name="Idotaccent" xMin="8" yMin="0" xMax="464" yMax="978">
      <component glyphName="I" x="0" y="0" flags="0x204"/>
      <component glyphName="dotaccent" x="-24" y="136" flags="0x4"/>
    </TTGlyph>
    <TTGlyph name="Idotaccent.sc" xMin="7" yMin="0" xMax="440" yMax="886">
      <component glyphName="idotaccent.sc" x="0" y="0" flags="0x204"/>
    </TTGlyph>
    <TTGlyph name="Igrave" xMin="8" yMin="0" xMax="414" yMax="961">
      <component glyphName="I" x="0" y="0" flags="0x204"/>
      <component glyphName="grave" x="-101" y="136" flags="0x4"/>
    </TTGlyph>
    <TTGlyph name="Igrave.sc" xMin="7" yMin="0" xMax="387" yMax="869">
      <component glyphName="igrave.sc" x="0" y="0" flags="0x204"/>
    </TTGlyph>
    <TTGlyph name="Imacron" xMin="8" yMin="0" xMax="548" yMax="942">
      <component glyphName="I" x="0" y="0" flags="0x204"/>
      <component glyphName="macron" x="-32" y="136" flags="0x4"/>
    </TTGlyph>
    <TTGlyph name="Imacron.sc" xMin="7" yMin="0" xMax="525" yMax="850">
      <component glyphName="imacron.sc" x="0" y="0" flags="0x204"/>
    </TTGlyph>
    <TTGlyph name="Iogonek" xMin="-94" yMin="-326" xMax="414" yMax="700">
      <contour>
        <pt x="226" y="-303" on="1"/>
        <pt x="195" y="-314" on="0"/>
        <pt x="129" y="-326" on="0"/>
        <pt x="86" y="-326" on="1"/>
        <pt x="-12" y="-326" on="0"/>
        <pt x="-94" y="-255" on="0"/>
        <pt x="-94" y="-213" on="1"/>
        <pt x="-94" y="-159" on="0"/>
        <pt x="-3" y="-54" on="0"/>
        <pt x="116" y="0" on="1"/>
        <pt x="8" y="0" on="1"/>
        <pt x="157" y="700" on="1"/>
        <pt x="414" y="700" on="1"/>
        <pt x="265" y="0" on="1"/>
        <pt x="206" y="-47" on="1"/>
        <pt x="160" y="-84" on="0"/>
        <pt x="120" y="-125" on="0"/>
        <pt x="120" y="-141" on="1"/>
        <pt x="120" y="-154" on="0"/>
        <pt x="145" y="-167" on="0"/>
        <pt x="173" y="-167" on="1"/>
        <pt x="194" y="-167" on="0"/>
        <pt x="234" y="-159" on="0"/>
        <pt x="259" y="-152" on="1"/>
      </contour>
    </TTGlyph>
    <TTGlyph name="Iogonek.sc" xMin="-101" yMin="-326" xMax="387" yMax="608">
      <component glyphName="iogonek.sc" x="0" y="0" flags="0x204"/>
    </TTGlyph>
    <TTGlyph name="J" xMin="-10" yMin="-20" xMax="705" yMax="700">
      <contour>
        <pt x="262" y="-20" on="1"/>
        <pt x="181" y="-20" on="0"/>
        <pt x="45" y="19" on="0"/>
        <pt x="-10" y="56" on="1"/>
        <pt x="34" y="264" on="1"/>
        <pt x="35" y="264" on="1"/>
        <pt x="84" y="231" on="0"/>
        <pt x="187" y="194" on="0"/>
        <pt x="238" y="194" on="1"/>
        <pt x="291" y="194" on="0"/>
        <pt x="351" y="240" on="0"/>
        <pt x="363" y="297" on="1"/>
        <pt x="407" y="506" on="1"/>
        <pt x="187" y="506" on="1"/>
        <pt x="247" y="700" on="1"/>
        <pt x="705" y="700" on="1"/>
        <pt x="611" y="261" on="1"/>
        <pt x="582" y="116" on="0"/>
        <pt x="410" y="-20" on="0"/>
      </contour>
    </TTGlyph>
    <TTGlyph name="J.sc" xMin="-13" yMin="-19" xMax="629" yMax="608">
      <component glyphName="j.sc" x="0" y="0" flags="0x204"/>
    </TTGlyph>
    <TTGlyph name="K" xMin="8" yMin="0" xMax="913" yMax="700">
      <contour>
        <pt x="8" y="0" on="1"/>
        <pt x="157" y="700" on="1"/>
        <pt x="414" y="700" on="1"/>
        <pt x="362" y="454" on="1"/>
        <pt x="409" y="454" on="1"/>
        <pt x="614" y="700" on="1"/>
        <pt x="913" y="700" on="1"/>
        <pt x="913" y="699" on="1"/>
        <pt x="601" y="336" on="1"/>
        <pt x="790" y="1" on="1"/>
        <pt x="790" y="0" on="1"/>
        <pt x="505" y="0" on="1"/>
        <pt x="371" y="253" on="1"/>
        <pt x="319" y="253" on="1"/>
        <pt x="265" y="0" on="1"/>
      </contour>
    </TTGlyph>
    <TTGlyph name="K.sc" xMin="6" yMin="0" xMax="825" yMax="608">
      <component glyphName="k.sc" x="0" y="0" flags="0x204"/>
    </TTGlyph>
    <TTGlyph name="L" xMin="8" yMin="0" xMax="635" yMax="700">
      <contour>
        <pt x="8" y="0" on="1"/>
        <pt x="157" y="700" on="1"/>
        <pt x="413" y="700" on="1"/>
        <pt x="309" y="212" on="1"/>
        <pt x="635" y="212" on="1"/>
        <pt x="569" y="0" on="1"/>
      </contour>
    </TTGlyph>
    <TTGlyph name="L.sc" xMin="6" yMin="0" xMax="574" yMax="608">
      <component glyphName="l.sc" x="0" y="0" flags="0x204"/>
    </TTGlyph>
    <TTGlyph name="Lacute" xMin="8" yMin="0" xMax="635" yMax="957">
      <component glyphName="L" x="0" y="0" flags="0x204"/>
      <component glyphName="acute" x="27" y="136" flags="0x4"/>
    </TTGlyph>
    <TTGlyph name="Lacute.sc" xMin="6" yMin="0" xMax="587" yMax="865">
      <component glyphName="lacute.sc" x="0" y="0" flags="0x204"/>
    </TTGlyph>
    <TTGlyph name="Lcaron" xMin="8" yMin="0" xMax="684" yMax="701">
      <component glyphName="L" x="0" y="0" flags="0x204"/>
      <component glyphName="caron.alt" x="179" y="-91" flags="0x4"/>
    </TTGlyph>
    <TTGlyph name="Lcaron.sc" xMin="6" yMin="0" xMax="669" yMax="608">
      <component glyphName="lcaron.sc" x="0" y="0" flags="0x204"/>
    </TTGlyph>
    <TTGlyph name="Ldot" xMin="8" yMin="0" xMax="683" yMax="700">
      <contour>
        <pt x="8" y="0" on="1"/>
        <pt x="157" y="700" on="1"/>
        <pt x="413" y="700" on="1"/>
        <pt x="309" y="212" on="1"/>
        <pt x="635" y="212" on="1"/>
        <pt x="569" y="0" on="1"/>
      </contour>
      <contour>
        <pt x="449" y="430" on="1"/>
        <pt x="449" y="480" on="0"/>
        <pt x="517" y="553" on="0"/>
        <pt x="576" y="553" on="1"/>
        <pt x="627" y="553" on="0"/>
        <pt x="683" y="497" on="0"/>
        <pt x="683" y="453" on="1"/>
        <pt x="683" y="403" on="0"/>
        <pt x="615" y="330" on="0"/>
        <pt x="556" y="330" on="1"/>
        <pt x="505" y="330" on="0"/>
        <pt x="449" y="386" on="0"/>
      </contour>
    </TTGlyph>
    <TTGlyph name="Ldot.sc" xMin="6" yMin="0" xMax="633" yMax="608">
      <component glyphName="ldot.sc" x="0" y="0" flags="0x204"/>
    </TTGlyph>
    <TTGlyph name="Lslash" xMin="3" yMin="0" xMax="685" yMax="700">
      <contour>
        <pt x="58" y="0" on="1"/>
        <pt x="106" y="224" on="1"/>
        <pt x="3" y="187" on="1"/>
        <pt x="42" y="370" on="1"/>
        <pt x="145" y="407" on="1"/>
        <pt x="207" y="700" on="1"/>
        <pt x="463" y="700" on="1"/>
        <pt x="422" y="509" on="1"/>
        <pt x="623" y="582" on="1"/>
        <pt x="583" y="399" on="1"/>
        <pt x="383" y="326" on="1"/>
        <pt x="359" y="212" on="1"/>
        <pt x="685" y="212" on="1"/>
        <pt x="619" y="0" on="1"/>
      </contour>
    </TTGlyph>
    <TTGlyph name="Lslash.sc" xMin="-7" yMin="0" xMax="615" yMax="608">
      <component glyphName="lslash.sc" x="0" y="0" flags="0x204"/>
    </TTGlyph>
    <TTGlyph name="M" xMin="8" yMin="0" xMax="1024" yMax="700">
      <contour>
        <pt x="8" y="0" on="1"/>
        <pt x="157" y="700" on="1"/>
        <pt x="439" y="700" on="1"/>
        <pt x="527" y="431" on="1"/>
        <pt x="721" y="700" on="1"/>
        <pt x="1024" y="700" on="1"/>
        <pt x="876" y="0" on="1"/>
        <pt x="630" y="0" on="1"/>
        <pt x="707" y="365" on="1"/>
        <pt x="462" y="47" on="1"/>
        <pt x="452" y="47" on="1"/>
        <pt x="331" y="367" on="1"/>
        <pt x="254" y="0" on="1"/>
      </contour>
    </TTGlyph>
    <TTGlyph name="M.sc" xMin="6" yMin="0" xMax="899" yMax="608">
      <component glyphName="m.sc" x="0" y="0" flags="0x204"/>
    </TTGlyph>
    <TTGlyph name="N" xMin="8" yMin="0" xMax="883" yMax="700">
      <contour>
        <pt x="8" y="0" on="1"/>
        <pt x="157" y="700" on="1"/>
        <pt x="414" y="700" on="1"/>
        <pt x="565" y="347" on="1"/>
        <pt x="567" y="347" on="1"/>
        <pt x="642" y="700" on="1"/>
        <pt x="883" y="700" on="1"/>
        <pt x="734" y="0" on="1"/>
        <pt x="482" y="0" on="1"/>
        <pt x="327" y="359" on="1"/>
        <pt x="325" y="359" on="1"/>
        <pt x="249" y="0" on="1"/>
      </contour>
    </TTGlyph>
    <TTGlyph name="N.sc" xMin="6" yMin="0" xMax="790" yMax="608">
      <component glyphName="n.sc" x="0" y="0" flags="0x204"/>
    </TTGlyph>
    <TTGlyph name="Nacute" xMin="8" yMin="0" xMax="883" yMax="932">
      <component glyphName="N" x="0" y="0" flags="0x204"/>
      <component glyphName="acute" x="264" y="111" flags="0x4"/>
    </TTGlyph>
    <TTGlyph name="Nacute.sc" xMin="6" yMin="0" xMax="790" yMax="839">
      <component glyphName="nacute.sc" x="0" y="0" flags="0x204"/>
    </TTGlyph>
    <TTGlyph name="Ncaron" xMin="8" yMin="0" xMax="883" yMax="950">
      <component glyphName="N" x="0" y="0" flags="0x204"/>
      <component glyphName="caron" x="242" y="111" flags="0x4"/>
    </TTGlyph>
    <TTGlyph name="Ncaron.sc" xMin="6" yMin="0" xMax="798" yMax="857">
      <component glyphName="ncaron.sc" x="0" y="0" flags="0x204"/>
    </TTGlyph>
    <TTGlyph name="Ntilde" xMin="8" yMin="0" xMax="883" yMax="986">
      <component glyphName="N" x="0" y="0" flags="0x204"/>
      <component glyphName="tilde" x="223" y="136" flags="0x4"/>
    </TTGlyph>
    <TTGlyph name="Ntilde.sc" xMin="6" yMin="0" xMax="790" yMax="894">
      <component glyphName="ntilde.sc" x="0" y="0" flags="0x204"/>
    </TTGlyph>
    <TTGlyph name="O" xMin="43" yMin="-26" xMax="831" yMax="726">
      <contour>
        <pt x="394" y="-26" on="1"/>
        <pt x="317" y="-26" on="0"/>
        <pt x="187" y="18" on="0"/>
        <pt x="95" y="102" on="0"/>
        <pt x="43" y="225" on="0"/>
        <pt x="43" y="303" on="1"/>
        <pt x="43" y="384" on="0"/>
        <pt x="97" y="538" on="0"/>
        <pt x="205" y="655" on="0"/>
        <pt x="370" y="726" on="0"/>
        <pt x="480" y="726" on="1"/>
        <pt x="557" y="726" on="0"/>
        <pt x="687" y="682" on="0"/>
        <pt x="779" y="598" on="0"/>
        <pt x="831" y="475" on="0"/>
        <pt x="831" y="397" on="1"/>
        <pt x="831" y="316" on="0"/>
        <pt x="777" y="162" on="0"/>
        <pt x="669" y="45" on="0"/>
        <pt x="504" y="-26" on="0"/>
      </contour>
      <contour>
        <pt x="418" y="184" on="1"/>
        <pt x="458" y="184" on="0"/>
        <pt x="520" y="216" on="0"/>
        <pt x="562" y="271" on="0"/>
        <pt x="584" y="342" on="0"/>
        <pt x="584" y="381" on="1"/>
        <pt x="584" y="441" on="0"/>
        <pt x="520" y="516" on="0"/>
        <pt x="456" y="516" on="1"/>
        <pt x="416" y="516" on="0"/>
        <pt x="354" y="484" on="0"/>
        <pt x="312" y="430" on="0"/>
        <pt x="290" y="358" on="0"/>
        <pt x="290" y="320" on="1"/>
        <pt x="290" y="259" on="0"/>
        <pt x="354" y="184" on="0"/>
      </contour>
    </TTGlyph>
    <TTGlyph name="O.sc" xMin="40" yMin="-23" xMax="753" yMax="631">
      <component glyphName="o.sc" x="0" y="0" flags="0x204"/>
    </TTGlyph>
    <TTGlyph name="OE" xMin="44" yMin="0" xMax="1188" yMax="700">
      <contour>
        <pt x="812" y="506" on="1"/>
        <pt x="796" y="433" on="1"/>
        <pt x="1073" y="433" on="1"/>
        <pt x="1038" y="269" on="1"/>
        <pt x="761" y="269" on="1"/>
        <pt x="745" y="194" on="1"/>
        <pt x="1115" y="194" on="1"/>
        <pt x="1056" y="0" on="1"/>
        <pt x="433" y="0" on="1"/>
        <pt x="317" y="0" on="0"/>
        <pt x="165" y="51" on="0"/>
        <pt x="78" y="133" on="0"/>
        <pt x="44" y="239" on="0"/>
        <pt x="44" y="294" on="1"/>
        <pt x="44" y="360" on="0"/>
        <pt x="88" y="505" on="0"/>
        <pt x="193" y="623" on="0"/>
        <pt x="368" y="700" on="0"/>
        <pt x="497" y="700" on="1"/>
        <pt x="1188" y="700" on="1"/>
        <pt x="1170" y="506" on="1"/>
      </contour>
      <contour>
        <pt x="297" y="317" on="1"/>
        <pt x="297" y="262" on="0"/>
        <pt x="362" y="201" on="0"/>
        <pt x="444" y="201" on="1"/>
        <pt x="492" y="201" on="1"/>
        <pt x="555" y="499" on="1"/>
        <pt x="485" y="499" on="1"/>
        <pt x="431" y="499" on="0"/>
        <pt x="359" y="465" on="0"/>
        <pt x="315" y="412" on="0"/>
        <pt x="297" y="348" on="0"/>
      </contour>
    </TTGlyph>
    <TTGlyph name="OE.sc" xMin="41" yMin="0" xMax="1057" yMax="608">
      <component glyphName="oe.sc" x="0" y="0" flags="0x204"/>
    </TTGlyph>
    <TTGlyph name="Oacute" xMin="43" yMin="-26" xMax="831" yMax="983">
      <component glyphName="O" x="0" y="0" flags="0x204"/>
      <component glyphName="acute" x="233" y="162" flags="0x4"/>
    </TTGlyph>
    <TTGlyph name="Oacute.sc" xMin="40" yMin="-23" xMax="770" yMax="888">
      <component glyphName="oacute.sc" x="0" y="0" flags="0x204"/>
    </TTGlyph>
    <TTGlyph name="Obreve" xMin="43" yMin="-26" xMax="831" yMax="1019">
      <component glyphName="O" x="0" y="0" flags="0x204"/>
      <component glyphName="breve" x="201" y="162" flags="0x4"/>
    </TTGlyph>
    <TTGlyph name="Obreve.sc" xMin="40" yMin="-23" xMax="753" yMax="924">
      <component glyphName="obreve.sc" x="0" y="0" flags="0x204"/>
    </TTGlyph>
    <TTGlyph name="Ocircumflex" xMin="43" yMin="-26" xMax="831" yMax="1001">
      <component glyphName="O" x="0" y="0" flags="0x204"/>
      <component glyphName="circumflex" x="186" y="162" flags="0x4"/>
    </TTGlyph>
    <TTGlyph name="Ocircumflex.sc" xMin="40" yMin="-23" xMax="753" yMax="906">
      <component glyphName="ocircumflex.sc" x="0" y="0" flags="0x204"/>
    </TTGlyph>
    <TTGlyph name="Odieresis" xMin="43" yMin="-26" xMax="831" yMax="1002">
      <component glyphName="O" x="0" y="0" flags="0x204"/>
      <component glyphName="dieresis" x="216" y="162" flags="0x4"/>
    </TTGlyph>
    <TTGlyph name="Odieresis.sc" xMin="40" yMin="-23" xMax="767" yMax="907">
      <component glyphName="odieresis.sc" x="0" y="0" flags="0x204"/>
    </TTGlyph>
    <TTGlyph name="Ograve" xMin="43" yMin="-26" xMax="831" yMax="987">
      <component glyphName="O" x="0" y="0" flags="0x204"/>
      <component glyphName="grave" x="128" y="162" flags="0x4"/>
    </TTGlyph>
    <TTGlyph name="Ograve.sc" xMin="40" yMin="-23" xMax="753" yMax="892">
      <component glyphName="ograve.sc" x="0" y="0" flags="0x204"/>
    </TTGlyph>
    <TTGlyph name="Ohungarumlaut" xMin="43" yMin="-26" xMax="925" yMax="983">
      <component glyphName="O" x="0" y="0" flags="0x204"/>
      <component glyphName="hungarumlaut" x="274" y="162" flags="0x4"/>
    </TTGlyph>
    <TTGlyph name="Ohungarumlaut.sc" xMin="40" yMin="-23" xMax="876" yMax="888">
      <component glyphName="ohungarumlaut.sc" x="0" y="0" flags="0x204"/>
    </TTGlyph>
    <TTGlyph name="Omacron" xMin="43" yMin="-26" xMax="831" yMax="968">
      <component glyphName="O" x="0" y="0" flags="0x204"/>
      <component glyphName="macron" x="198" y="162" flags="0x4"/>
    </TTGlyph>
    <TTGlyph name="Omacron.sc" xMin="40" yMin="-23" xMax="753" yMax="873">
      <component glyphName="omacron.sc" x="0" y="0" flags="0x204"/>
    </TTGlyph>
    <TTGlyph name="Oslash" xMin="-74" yMin="-58" xMax="948" yMax="758">
      <contour>
        <pt x="-74" y="-58" on="1"/>
        <pt x="87" y="126" on="1"/>
        <pt x="66" y="163" on="0"/>
        <pt x="43" y="252" on="0"/>
        <pt x="43" y="303" on="1"/>
        <pt x="43" y="384" on="0"/>
        <pt x="97" y="538" on="0"/>
        <pt x="205" y="655" on="0"/>
        <pt x="370" y="726" on="0"/>
        <pt x="480" y="726" on="1"/>
        <pt x="529" y="726" on="0"/>
        <pt x="619" y="708" on="0"/>
        <pt x="657" y="690" on="1"/>
        <pt x="719" y="758" on="1"/>
        <pt x="948" y="758" on="1"/>
        <pt x="787" y="574" on="1"/>
        <pt x="808" y="537" on="0"/>
        <pt x="831" y="448" on="0"/>
        <pt x="831" y="397" on="1"/>
        <pt x="831" y="316" on="0"/>
        <pt x="777" y="162" on="0"/>
        <pt x="669" y="45" on="0"/>
        <pt x="504" y="-26" on="0"/>
        <pt x="394" y="-26" on="1"/>
        <pt x="345" y="-26" on="0"/>
        <pt x="255" y="-8" on="0"/>
        <pt x="217" y="10" on="1"/>
        <pt x="155" y="-58" on="1"/>
      </contour>
      <contour>
        <pt x="280" y="319" on="1"/>
        <pt x="280" y="310" on="0"/>
        <pt x="282" y="292" on="0"/>
        <pt x="283" y="284" on="1"/>
        <pt x="499" y="519" on="1"/>
        <pt x="490" y="521" on="0"/>
        <pt x="468" y="524" on="0"/>
        <pt x="457" y="524" on="1"/>
        <pt x="414" y="524" on="0"/>
        <pt x="348" y="490" on="0"/>
        <pt x="303" y="434" on="0"/>
        <pt x="280" y="359" on="0"/>
      </contour>
      <contour>
        <pt x="417" y="176" on="1"/>
        <pt x="460" y="176" on="0"/>
        <pt x="526" y="210" on="0"/>
        <pt x="571" y="267" on="0"/>
        <pt x="594" y="342" on="0"/>
        <pt x="594" y="383" on="1"/>
        <pt x="594" y="392" on="0"/>
        <pt x="592" y="409" on="0"/>
        <pt x="591" y="417" on="1"/>
        <pt x="374" y="181" on="1"/>
        <pt x="384" y="179" on="0"/>
        <pt x="405" y="176" on="0"/>
      </contour>
    </TTGlyph>
    <TTGlyph name="Oslash.sc" xMin="-58" yMin="-42" xMax="851" yMax="650">
      <component glyphName="oslash.sc" x="0" y="0" flags="0x204"/>
    </TTGlyph>
    <TTGlyph name="Oslashacute" xMin="-74" yMin="-58" xMax="948" yMax="964">
      <component glyphName="Oslash" x="0" y="0" flags="0x204"/>
      <component glyphName="acute" x="229" y="143" flags="0x4"/>
    </TTGlyph>
    <TTGlyph name="Oslashacute.sc" xMin="-58" yMin="-42" xMax="851" yMax="868">
      <component glyphName="oslashacute.sc" x="0" y="0" flags="0x204"/>
    </TTGlyph>
    <TTGlyph name="Otilde" xMin="43" yMin="-26" xMax="831" yMax="1012">
      <component glyphName="O" x="0" y="0" flags="0x204"/>
      <component glyphName="tilde" x="187" y="162" flags="0x4"/>
    </TTGlyph>
    <TTGlyph name="Otilde.sc" xMin="40" yMin="-23" xMax="753" yMax="917">
      <component glyphName="otilde.sc" x="0" y="0" flags="0x204"/>
    </TTGlyph>
    <TTGlyph name="P" xMin="8" yMin="0" xMax="801" yMax="700">
      <contour>
        <pt x="475" y="158" on="1"/>
        <pt x="299" y="158" on="1"/>
        <pt x="265" y="0" on="1"/>
        <pt x="8" y="0" on="1"/>
        <pt x="157" y="700" on="1"/>
        <pt x="495" y="700" on="1"/>
        <pt x="653" y="700" on="0"/>
        <pt x="801" y="574" on="0"/>
        <pt x="801" y="458" on="1"/>
        <pt x="801" y="392" on="0"/>
        <pt x="761" y="281" on="0"/>
        <pt x="680" y="202" on="0"/>
        <pt x="557" y="158" on="0"/>
      </contour>
      <contour>
        <pt x="445" y="344" on="1"/>
        <pt x="505" y="344" on="0"/>
        <pt x="552" y="400" on="0"/>
        <pt x="552" y="441" on="1"/>
        <pt x="552" y="472" on="0"/>
        <pt x="515" y="508" on="0"/>
        <pt x="475" y="508" on="1"/>
        <pt x="373" y="508" on="1"/>
        <pt x="338" y="344" on="1"/>
      </contour>
    </TTGlyph>
    <TTGlyph name="P.sc" xMin="6" yMin="0" xMax="718" yMax="608">
      <component glyphName="p.sc" x="0" y="0" flags="0x204"/>
    </TTGlyph>
    <TTGlyph name="Q" xMin="43" yMin="-40" xMax="835" yMax="726">
      <contour>
        <pt x="397" y="-26" on="1"/>
        <pt x="319" y="-26" on="0"/>
        <pt x="188" y="18" on="0"/>
        <pt x="95" y="102" on="0"/>
        <pt x="43" y="225" on="0"/>
        <pt x="43" y="303" on="1"/>
        <pt x="43" y="384" on="0"/>
        <pt x="97" y="538" on="0"/>
        <pt x="205" y="655" on="0"/>
        <pt x="370" y="726" on="0"/>
        <pt x="480" y="726" on="1"/>
        <pt x="557" y="726" on="0"/>
        <pt x="687" y="682" on="0"/>
        <pt x="779" y="600" on="0"/>
        <pt x="831" y="479" on="0"/>
        <pt x="831" y="404" on="1"/>
        <pt x="831" y="350" on="0"/>
        <pt x="805" y="242" on="0"/>
        <pt x="779" y="193" on="1"/>
        <pt x="835" y="155" on="1"/>
        <pt x="791" y="-40" on="1"/>
        <pt x="656" y="52" on="1"/>
        <pt x="606" y="16" on="0"/>
        <pt x="476" y="-26" on="0"/>
      </contour>
      <contour>
        <pt x="438" y="170" on="1"/>
        <pt x="454" y="170" on="0"/>
        <pt x="485" y="176" on="0"/>
        <pt x="498" y="182" on="1"/>
        <pt x="386" y="259" on="1"/>
        <pt x="481" y="389" on="1"/>
        <pt x="596" y="309" on="1"/>
        <pt x="600" y="325" on="0"/>
        <pt x="605" y="358" on="0"/>
        <pt x="605" y="372" on="1"/>
        <pt x="605" y="437" on="0"/>
        <pt x="536" y="516" on="0"/>
        <pt x="467" y="516" on="1"/>
        <pt x="426" y="516" on="0"/>
        <pt x="360" y="483" on="0"/>
        <pt x="315" y="427" on="0"/>
        <pt x="291" y="351" on="0"/>
        <pt x="291" y="308" on="1"/>
        <pt x="291" y="248" on="0"/>
        <pt x="361" y="170" on="0"/>
      </contour>
    </TTGlyph>
    <TTGlyph name="Q.sc" xMin="40" yMin="-34" xMax="764" yMax="631">
      <component glyphName="q.sc" x="0" y="0" flags="0x204"/>
    </TTGlyph>
    <TTGlyph name="R" xMin="8" yMin="0" xMax="806" yMax="700">
      <contour>
        <pt x="748" y="0" on="1"/>
        <pt x="475" y="0" on="1"/>
        <pt x="381" y="166" on="1"/>
        <pt x="300" y="166" on="1"/>
        <pt x="265" y="0" on="1"/>
        <pt x="8" y="0" on="1"/>
        <pt x="157" y="700" on="1"/>
        <pt x="506" y="700" on="1"/>
        <pt x="587" y="700" on="0"/>
        <pt x="701" y="665" on="0"/>
        <pt x="773" y="603" on="0"/>
        <pt x="806" y="515" on="0"/>
        <pt x="806" y="464" on="1"/>
        <pt x="806" y="364" on="0"/>
        <pt x="716" y="228" on="0"/>
        <pt x="624" y="198" on="1"/>
      </contour>
      <contour>
        <pt x="461" y="351" on="1"/>
        <pt x="507" y="351" on="0"/>
        <pt x="554" y="404" on="0"/>
        <pt x="554" y="441" on="1"/>
        <pt x="554" y="473" on="0"/>
        <pt x="517" y="508" on="0"/>
        <pt x="474" y="508" on="1"/>
        <pt x="372" y="508" on="1"/>
        <pt x="339" y="351" on="1"/>
      </contour>
    </TTGlyph>
    <TTGlyph name="R.sc" xMin="6" yMin="0" xMax="724" yMax="608">
      <component glyphName="r.sc" x="0" y="0" flags="0x204"/>
    </TTGlyph>
    <TTGlyph name="R_p" xMin="7" yMin="-218" xMax="1452" yMax="700">
      <contour>
        <pt x="295" y="168" on="1"/>
        <pt x="259" y="0" on="1"/>
        <pt x="7" y="0" on="1"/>
        <pt x="156" y="700" on="1"/>
        <pt x="476" y="700" on="1"/>
        <pt x="557" y="700" on="0"/>
        <pt x="671" y="665" on="0"/>
        <pt x="743" y="603" on="0"/>
        <pt x="776" y="515" on="0"/>
        <pt x="776" y="464" on="1"/>
        <pt x="776" y="364" on="0"/>
        <pt x="686" y="228" on="0"/>
        <pt x="595" y="198" on="1"/>
        <pt x="721" y="0" on="1"/>
        <pt x="452" y="0" on="1"/>
        <pt x="354" y="168" on="1"/>
      </contour>
      <contour>
        <pt x="1266" y="584" on="1"/>
        <pt x="1303" y="584" on="0"/>
        <pt x="1371" y="557" on="0"/>
        <pt x="1422" y="503" on="0"/>
        <pt x="1452" y="420" on="0"/>
        <pt x="1452" y="365" on="1"/>
        <pt x="1452" y="281" on="0"/>
        <pt x="1405" y="141" on="0"/>
        <pt x="1323" y="41" on="0"/>
        <pt x="1207" y="-15" on="0"/>
        <pt x="1138" y="-15" on="1"/>
        <pt x="1096" y="-15" on="0"/>
        <pt x="1029" y="2" on="0"/>
        <pt x="1004" y="17" on="1"/>
        <pt x="954" y="-218" on="1"/>
        <pt x="703" y="-218" on="1"/>
        <pt x="869" y="564" on="1"/>
        <pt x="1113" y="564" on="1"/>
        <pt x="1101" y="499" on="1"/>
        <pt x="1128" y="535" on="0"/>
        <pt x="1211" y="584" on="0"/>
      </contour>
      <contour>
        <pt x="434" y="349" on="1"/>
        <pt x="481" y="349" on="0"/>
        <pt x="528" y="403" on="0"/>
        <pt x="528" y="441" on="1"/>
        <pt x="528" y="475" on="0"/>
        <pt x="491" y="512" on="0"/>
        <pt x="448" y="512" on="1"/>
        <pt x="368" y="512" on="1"/>
        <pt x="333" y="349" on="1"/>
      </contour>
      <contour>
        <pt x="1157" y="394" on="1"/>
        <pt x="1134" y="394" on="0"/>
        <pt x="1093" y="376" on="0"/>
        <pt x="1077" y="363" on="1"/>
        <pt x="1041" y="190" on="1"/>
        <pt x="1054" y="180" on="0"/>
        <pt x="1086" y="169" on="0"/>
        <pt x="1103" y="169" on="1"/>
        <pt x="1128" y="169" on="0"/>
        <pt x="1169" y="196" on="0"/>
        <pt x="1197" y="239" on="0"/>
        <pt x="1212" y="295" on="0"/>
        <pt x="1212" y="324" on="1"/>
        <pt x="1212" y="362" on="0"/>
        <pt x="1182" y="394" on="0"/>
      </contour>
    </TTGlyph>
    <TTGlyph name="Racute" xMin="8" yMin="0" xMax="818" yMax="957">
      <component glyphName="R" x="0" y="0" flags="0x204"/>
      <component glyphName="acute" x="233" y="136" flags="0x4"/>
    </TTGlyph>
    <TTGlyph name="Racute.sc" xMin="6" yMin="0" xMax="750" yMax="865">
      <component glyphName="racute.sc" x="0" y="0" flags="0x204"/>
    </TTGlyph>
    <TTGlyph name="Rcaron" xMin="8" yMin="0" xMax="838" yMax="975">
      <component glyphName="R" x="0" y="0" flags="0x204"/>
      <component glyphName="caron" x="211" y="136" flags="0x4"/>
    </TTGlyph>
    <TTGlyph name="Rcaron.sc" xMin="6" yMin="0" xMax="770" yMax="883">
      <component glyphName="rcaron.sc" x="0" y="0" flags="0x204"/>
    </TTGlyph>
    <TTGlyph name="S" xMin="8" yMin="-21" xMax="742" yMax="721">
      <contour>
        <pt x="54" y="276" on="1"/>
        <pt x="132" y="227" on="0"/>
        <pt x="297" y="171" on="0"/>
        <pt x="370" y="171" on="1"/>
        <pt x="416" y="171" on="0"/>
        <pt x="450" y="192" on="0"/>
        <pt x="450" y="207" on="1"/>
        <pt x="450" y="223" on="0"/>
        <pt x="404" y="245" on="0"/>
        <pt x="329" y="267" on="1"/>
        <pt x="222" y="298" on="0"/>
        <pt x="99" y="384" on="0"/>
        <pt x="99" y="475" on="1"/>
        <pt x="99" y="524" on="0"/>
        <pt x="136" y="613" on="0"/>
        <pt x="216" y="681" on="0"/>
        <pt x="341" y="721" on="0"/>
        <pt x="428" y="721" on="1"/>
        <pt x="516" y="721" on="0"/>
        <pt x="679" y="681" on="0"/>
        <pt x="742" y="646" on="1"/>
        <pt x="698" y="441" on="1"/>
        <pt x="697" y="441" on="1"/>
        <pt x="670" y="459" on="0"/>
        <pt x="602" y="491" on="0"/>
        <pt x="529" y="515" on="0"/>
        <pt x="455" y="529" on="0"/>
        <pt x="423" y="529" on="1"/>
        <pt x="383" y="529" on="0"/>
        <pt x="348" y="510" on="0"/>
        <pt x="348" y="494" on="1"/>
        <pt x="348" y="478" on="0"/>
        <pt x="391" y="460" on="0"/>
        <pt x="453" y="442" on="1"/>
        <pt x="512" y="425" on="0"/>
        <pt x="603" y="388" on="0"/>
        <pt x="664" y="339" on="0"/>
        <pt x="695" y="272" on="0"/>
        <pt x="695" y="226" on="1"/>
        <pt x="695" y="108" on="0"/>
        <pt x="527" y="-21" on="0"/>
        <pt x="378" y="-21" on="1"/>
        <pt x="265" y="-21" on="0"/>
        <pt x="86" y="27" on="0"/>
        <pt x="8" y="69" on="1"/>
        <pt x="53" y="276" on="1"/>
      </contour>
    </TTGlyph>
    <TTGlyph name="S.sc" xMin="0" yMin="-21" xMax="652" yMax="627">
      <component glyphName="s.sc" x="0" y="0" flags="0x204"/>
    </TTGlyph>
    <TTGlyph name="Sacute" xMin="8" yMin="-21" xMax="787" yMax="978">
      <component glyphName="S" x="0" y="0" flags="0x204"/>
      <component glyphName="acute" x="202" y="157" flags="0x4"/>
    </TTGlyph>
    <TTGlyph name="Sacute.sc" xMin="0" yMin="-21" xMax="718" yMax="884">
      <component glyphName="sacute.sc" x="0" y="0" flags="0x204"/>
    </TTGlyph>
    <TTGlyph name="Scaron" xMin="8" yMin="-21" xMax="808" yMax="996">
      <component glyphName="S" x="0" y="0" flags="0x204"/>
      <component glyphName="caron" x="181" y="157" flags="0x4"/>
    </TTGlyph>
    <TTGlyph name="Scaron.sc" xMin="0" yMin="-21" xMax="738" yMax="902">
      <component glyphName="scaron.sc" x="0" y="0" flags="0x204"/>
    </TTGlyph>
    <TTGlyph name="Scedilla" xMin="8" yMin="-206" xMax="742" yMax="721">
      <contour>
        <pt x="54" y="276" on="1"/>
        <pt x="132" y="227" on="0"/>
        <pt x="297" y="171" on="0"/>
        <pt x="370" y="171" on="1"/>
        <pt x="416" y="171" on="0"/>
        <pt x="450" y="192" on="0"/>
        <pt x="450" y="207" on="1"/>
        <pt x="450" y="223" on="0"/>
        <pt x="404" y="245" on="0"/>
        <pt x="329" y="267" on="1"/>
        <pt x="222" y="298" on="0"/>
        <pt x="99" y="384" on="0"/>
        <pt x="99" y="475" on="1"/>
        <pt x="99" y="524" on="0"/>
        <pt x="136" y="613" on="0"/>
        <pt x="216" y="681" on="0"/>
        <pt x="341" y="721" on="0"/>
        <pt x="428" y="721" on="1"/>
        <pt x="516" y="721" on="0"/>
        <pt x="679" y="681" on="0"/>
        <pt x="742" y="646" on="1"/>
        <pt x="698" y="441" on="1"/>
        <pt x="697" y="441" on="1"/>
        <pt x="670" y="459" on="0"/>
        <pt x="602" y="491" on="0"/>
        <pt x="529" y="515" on="0"/>
        <pt x="455" y="529" on="0"/>
        <pt x="423" y="529" on="1"/>
        <pt x="383" y="529" on="0"/>
        <pt x="348" y="510" on="0"/>
        <pt x="348" y="494" on="1"/>
        <pt x="348" y="478" on="0"/>
        <pt x="391" y="460" on="0"/>
        <pt x="453" y="442" on="1"/>
        <pt x="512" y="425" on="0"/>
        <pt x="603" y="388" on="0"/>
        <pt x="664" y="339" on="0"/>
        <pt x="695" y="272" on="0"/>
        <pt x="695" y="226" on="1"/>
        <pt x="695" y="127" on="0"/>
        <pt x="574" y="3" on="0"/>
        <pt x="466" y="-14" on="1"/>
        <pt x="348" y="-206" on="1"/>
        <pt x="86" y="-206" on="1"/>
        <pt x="92" y="-180" on="1"/>
        <pt x="276" y="-15" on="1"/>
        <pt x="199" y="-7" on="0"/>
        <pt x="67" y="37" on="0"/>
        <pt x="8" y="69" on="1"/>
        <pt x="53" y="276" on="1"/>
      </contour>
    </TTGlyph>
    <TTGlyph name="Scedilla.sc" xMin="0" yMin="-205" xMax="652" yMax="627">
      <component glyphName="scedilla.sc" x="0" y="0" flags="0x204"/>
    </TTGlyph>
    <TTGlyph name="T" xMin="66" yMin="0" xMax="797" yMax="700">
      <contour>
        <pt x="777" y="490" on="1"/>
        <pt x="555" y="490" on="1"/>
        <pt x="451" y="0" on="1"/>
        <pt x="194" y="0" on="1"/>
        <pt x="298" y="490" on="1"/>
        <pt x="66" y="490" on="1"/>
        <pt x="130" y="700" on="1"/>
        <pt x="797" y="700" on="1"/>
      </contour>
    </TTGlyph>
    <TTGlyph name="T.sc" xMin="49" yMin="0" xMax="724" yMax="608">
      <component glyphName="t.sc" x="0" y="0" flags="0x204"/>
    </TTGlyph>
    <TTGlyph name="Tcaron" xMin="66" yMin="0" xMax="829" yMax="975">
      <component glyphName="T" x="0" y="0" flags="0x204"/>
      <component glyphName="caron" x="202" y="136" flags="0x4"/>
    </TTGlyph>
    <TTGlyph name="Tcaron.sc" xMin="49" yMin="0" xMax="775" yMax="883">
      <component glyphName="tcaron.sc" x="0" y="0" flags="0x204"/>
    </TTGlyph>
    <TTGlyph name="Thorn" xMin="8" yMin="0" xMax="796" yMax="700">
      <contour>
        <pt x="157" y="700" on="1"/>
        <pt x="414" y="700" on="1"/>
        <pt x="398" y="624" on="1"/>
        <pt x="489" y="624" on="1"/>
        <pt x="647" y="624" on="0"/>
        <pt x="796" y="500" on="0"/>
        <pt x="796" y="387" on="1"/>
        <pt x="796" y="323" on="0"/>
        <pt x="756" y="214" on="0"/>
        <pt x="676" y="136" on="0"/>
        <pt x="553" y="92" on="0"/>
        <pt x="471" y="92" on="1"/>
        <pt x="285" y="92" on="1"/>
        <pt x="265" y="0" on="1"/>
        <pt x="8" y="0" on="1"/>
      </contour>
      <contour>
        <pt x="357" y="432" on="1"/>
        <pt x="324" y="278" on="1"/>
        <pt x="441" y="278" on="1"/>
        <pt x="501" y="278" on="0"/>
        <pt x="547" y="333" on="0"/>
        <pt x="547" y="370" on="1"/>
        <pt x="547" y="397" on="0"/>
        <pt x="509" y="432" on="0"/>
        <pt x="469" y="432" on="1"/>
      </contour>
    </TTGlyph>
    <TTGlyph name="Thorn.sc" xMin="6" yMin="0" xMax="714" yMax="608">
      <component glyphName="thorn.sc" x="0" y="0" flags="0x204"/>
    </TTGlyph>
    <TTGlyph name="U" xMin="54" yMin="-27" xMax="862" yMax="700">
      <contour>
        <pt x="385" y="-27" on="1"/>
        <pt x="232" y="-27" on="0"/>
        <pt x="54" y="86" on="0"/>
        <pt x="54" y="199" on="1"/>
        <pt x="54" y="221" on="0"/>
        <pt x="61" y="277" on="0"/>
        <pt x="66" y="302" on="1"/>
        <pt x="150" y="700" on="1"/>
        <pt x="407" y="700" on="1"/>
        <pt x="321" y="293" on="1"/>
        <pt x="320" y="286" on="0"/>
        <pt x="317" y="266" on="0"/>
        <pt x="317" y="257" on="1"/>
        <pt x="317" y="225" on="0"/>
        <pt x="362" y="195" on="0"/>
        <pt x="403" y="195" on="1"/>
        <pt x="446" y="195" on="0"/>
        <pt x="506" y="235" on="0"/>
        <pt x="518" y="290" on="1"/>
        <pt x="605" y="700" on="1"/>
        <pt x="862" y="700" on="1"/>
        <pt x="769" y="264" on="1"/>
        <pt x="736" y="111" on="0"/>
        <pt x="551" y="-27" on="0"/>
      </contour>
    </TTGlyph>
    <TTGlyph name="U.sc" xMin="47" yMin="-26" xMax="773" yMax="608">
      <component glyphName="u.sc" x="0" y="0" flags="0x204"/>
    </TTGlyph>
    <TTGlyph name="Uacute" xMin="54" yMin="-27" xMax="862" yMax="933">
      <component glyphName="U" x="0" y="0" flags="0x204"/>
      <component glyphName="acute" x="228" y="112" flags="0x4"/>
    </TTGlyph>
    <TTGlyph name="Uacute.sc" xMin="47" yMin="-26" xMax="773" yMax="840">
      <component glyphName="uacute.sc" x="0" y="0" flags="0x204"/>
    </TTGlyph>
    <TTGlyph name="Ubreve" xMin="54" yMin="-27" xMax="862" yMax="969">
      <component glyphName="U" x="0" y="0" flags="0x204"/>
      <component glyphName="breve" x="195" y="112" flags="0x4"/>
    </TTGlyph>
    <TTGlyph name="Ubreve.sc" xMin="47" yMin="-26" xMax="773" yMax="876">
      <component glyphName="ubreve.sc" x="0" y="0" flags="0x204"/>
    </TTGlyph>
    <TTGlyph name="Ucircumflex" xMin="54" yMin="-27" xMax="862" yMax="975">
      <component glyphName="U" x="0" y="0" flags="0x204"/>
      <component glyphName="circumflex" x="186" y="136" flags="0x4"/>
    </TTGlyph>
    <TTGlyph name="Ucircumflex.sc" xMin="47" yMin="-26" xMax="773" yMax="883">
      <component glyphName="ucircumflex.sc" x="0" y="0" flags="0x204"/>
    </TTGlyph>
    <TTGlyph name="Udieresis" xMin="54" yMin="-27" xMax="862" yMax="976">
      <component glyphName="U" x="0" y="0" flags="0x204"/>
      <component glyphName="dieresis" x="216" y="136" flags="0x4"/>
    </TTGlyph>
    <TTGlyph name="Udieresis.sc" xMin="47" yMin="-26" xMax="773" yMax="884">
      <component glyphName="udieresis.sc" x="0" y="0" flags="0x204"/>
    </TTGlyph>
    <TTGlyph name="Ugrave" xMin="54" yMin="-27" xMax="862" yMax="937">
      <component glyphName="U" x="0" y="0" flags="0x204"/>
      <component glyphName="grave" x="123" y="112" flags="0x4"/>
    </TTGlyph>
    <TTGlyph name="Ugrave.sc" xMin="47" yMin="-26" xMax="773" yMax="844">
      <component glyphName="ugrave.sc" x="0" y="0" flags="0x204"/>
    </TTGlyph>
    <TTGlyph name="Uhungarumlaut" xMin="54" yMin="-27" xMax="864" yMax="957">
      <component glyphName="U" x="0" y="0" flags="0x204"/>
      <component glyphName="hungarumlaut" x="213" y="136" flags="0x4"/>
    </TTGlyph>
    <TTGlyph name="Uhungarumlaut.sc" xMin="47" yMin="-26" xMax="823" yMax="865">
      <component glyphName="uhungarumlaut.sc" x="0" y="0" flags="0x204"/>
    </TTGlyph>
    <TTGlyph name="Umacron" xMin="54" yMin="-27" xMax="862" yMax="942">
      <component glyphName="U" x="0" y="0" flags="0x204"/>
      <component glyphName="macron" x="198" y="136" flags="0x4"/>
    </TTGlyph>
    <TTGlyph name="Umacron.sc" xMin="47" yMin="-26" xMax="773" yMax="850">
      <component glyphName="umacron.sc" x="0" y="0" flags="0x204"/>
    </TTGlyph>
    <TTGlyph name="Uogonek" xMin="54" yMin="-326" xMax="862" yMax="700">
      <contour>
        <pt x="497" y="-303" on="1"/>
        <pt x="466" y="-314" on="0"/>
        <pt x="400" y="-326" on="0"/>
        <pt x="357" y="-326" on="1"/>
        <pt x="259" y="-326" on="0"/>
        <pt x="177" y="-255" on="0"/>
        <pt x="177" y="-213" on="1"/>
        <pt x="177" y="-165" on="0"/>
        <pt x="247" y="-73" on="0"/>
        <pt x="335" y="-25" on="1"/>
        <pt x="204" y="-17" on="0"/>
        <pt x="54" y="96" on="0"/>
        <pt x="54" y="199" on="1"/>
        <pt x="54" y="221" on="0"/>
        <pt x="61" y="277" on="0"/>
        <pt x="66" y="302" on="1"/>
        <pt x="150" y="700" on="1"/>
        <pt x="407" y="700" on="1"/>
        <pt x="321" y="293" on="1"/>
        <pt x="320" y="286" on="0"/>
        <pt x="317" y="266" on="0"/>
        <pt x="317" y="257" on="1"/>
        <pt x="317" y="225" on="0"/>
        <pt x="362" y="195" on="0"/>
        <pt x="403" y="195" on="1"/>
        <pt x="446" y="195" on="0"/>
        <pt x="506" y="235" on="0"/>
        <pt x="518" y="290" on="1"/>
        <pt x="605" y="700" on="1"/>
        <pt x="862" y="700" on="1"/>
        <pt x="769" y="264" on="1"/>
        <pt x="744" y="145" on="0"/>
        <pt x="622" y="9" on="0"/>
        <pt x="519" y="-14" on="1"/>
        <pt x="477" y="-47" on="1"/>
        <pt x="431" y="-84" on="0"/>
        <pt x="391" y="-125" on="0"/>
        <pt x="391" y="-141" on="1"/>
        <pt x="391" y="-154" on="0"/>
        <pt x="416" y="-167" on="0"/>
        <pt x="444" y="-167" on="1"/>
        <pt x="465" y="-167" on="0"/>
        <pt x="505" y="-159" on="0"/>
        <pt x="530" y="-152" on="1"/>
      </contour>
    </TTGlyph>
    <TTGlyph name="Uogonek.sc" xMin="47" yMin="-326" xMax="773" yMax="608">
      <component glyphName="uogonek.sc" x="0" y="0" flags="0x204"/>
    </TTGlyph>
    <TTGlyph name="Uring" xMin="54" yMin="-27" xMax="862" yMax="1073">
      <component glyphName="U" x="0" y="0" flags="0x204"/>
      <component glyphName="ring" x="119" y="112" flags="0x4"/>
    </TTGlyph>
    <TTGlyph name="Uring.sc" xMin="47" yMin="-26" xMax="773" yMax="980">
      <component glyphName="uring.sc" x="0" y="0" flags="0x204"/>
    </TTGlyph>
    <TTGlyph name="V" xMin="93" yMin="0" xMax="884" yMax="700">
      <contour>
        <pt x="146" y="0" on="1"/>
        <pt x="93" y="700" on="1"/>
        <pt x="351" y="700" on="1"/>
        <pt x="377" y="231" on="1"/>
        <pt x="398" y="231" on="1"/>
        <pt x="612" y="700" on="1"/>
        <pt x="884" y="700" on="1"/>
        <pt x="535" y="0" on="1"/>
      </contour>
    </TTGlyph>
    <TTGlyph name="V.sc" xMin="75" yMin="0" xMax="805" yMax="608">
      <component glyphName="v.sc" x="0" y="0" flags="0x204"/>
    </TTGlyph>
    <TTGlyph name="W" xMin="101" yMin="0" xMax="1288" yMax="700">
      <contour>
        <pt x="125" y="0" on="1"/>
        <pt x="101" y="700" on="1"/>
        <pt x="359" y="700" on="1"/>
        <pt x="358" y="263" on="1"/>
        <pt x="366" y="263" on="1"/>
        <pt x="570" y="700" on="1"/>
        <pt x="810" y="700" on="1"/>
        <pt x="826" y="263" on="1"/>
        <pt x="834" y="263" on="1"/>
        <pt x="1021" y="700" on="1"/>
        <pt x="1288" y="700" on="1"/>
        <pt x="967" y="0" on="1"/>
        <pt x="644" y="0" on="1"/>
        <pt x="630" y="378" on="1"/>
        <pt x="623" y="378" on="1"/>
        <pt x="441" y="0" on="1"/>
      </contour>
    </TTGlyph>
    <TTGlyph name="W.sc" xMin="80" yMin="0" xMax="1100" yMax="608">
      <component glyphName="w.sc" x="0" y="0" flags="0x204"/>
    </TTGlyph>
    <TTGlyph name="Wacute" xMin="101" yMin="0" xMax="1288" yMax="957">
      <component glyphName="W" x="0" y="0" flags="0x204"/>
      <component glyphName="acute" x="431" y="136" flags="0x4"/>
    </TTGlyph>
    <TTGlyph name="Wacute.sc" xMin="80" yMin="0" xMax="1100" yMax="865">
      <component glyphName="wacute.sc" x="0" y="0" flags="0x204"/>
    </TTGlyph>
    <TTGlyph name="Wcircumflex" xMin="101" yMin="0" xMax="1288" yMax="975">
      <component glyphName="W" x="0" y="0" flags="0x204"/>
      <component glyphName="circumflex" x="370" y="136" flags="0x4"/>
    </TTGlyph>
    <TTGlyph name="Wcircumflex.sc" xMin="80" yMin="0" xMax="1100" yMax="883">
      <component glyphName="wcircumflex.sc" x="0" y="0" flags="0x204"/>
    </TTGlyph>
    <TTGlyph name="Wdieresis" xMin="101" yMin="0" xMax="1288" yMax="976">
      <component glyphName="W" x="0" y="0" flags="0x204"/>
      <component glyphName="dieresis" x="400" y="136" flags="0x4"/>
    </TTGlyph>
    <TTGlyph name="Wdieresis.sc" xMin="80" yMin="0" xMax="1100" yMax="884">
      <component glyphName="wdieresis.sc" x="0" y="0" flags="0x204"/>
    </TTGlyph>
    <TTGlyph name="Wgrave" xMin="101" yMin="0" xMax="1288" yMax="961">
      <component glyphName="W" x="0" y="0" flags="0x204"/>
      <component glyphName="grave" x="298" y="136" flags="0x4"/>
    </TTGlyph>
    <TTGlyph name="Wgrave.sc" xMin="80" yMin="0" xMax="1100" yMax="869">
      <component glyphName="wgrave.sc" x="0" y="0" flags="0x204"/>
    </TTGlyph>
    <TTGlyph name="X" xMin="-63" yMin="0" xMax="925" yMax="700">
      <contour>
        <pt x="-63" y="1" on="1"/>
        <pt x="289" y="379" on="1"/>
        <pt x="102" y="699" on="1"/>
        <pt x="102" y="700" on="1"/>
        <pt x="383" y="700" on="1"/>
        <pt x="476" y="530" on="1"/>
        <pt x="625" y="700" on="1"/>
        <pt x="925" y="700" on="1"/>
        <pt x="925" y="699" on="1"/>
        <pt x="593" y="341" on="1"/>
        <pt x="791" y="1" on="1"/>
        <pt x="791" y="0" on="1"/>
        <pt x="510" y="0" on="1"/>
        <pt x="405" y="192" on="1"/>
        <pt x="237" y="0" on="1"/>
        <pt x="-63" y="0" on="1"/>
      </contour>
    </TTGlyph>
    <TTGlyph name="X.sc" xMin="-51" yMin="0" xMax="823" yMax="608">
      <component glyphName="x.sc" x="0" y="0" flags="0x204"/>
    </TTGlyph>
    <TTGlyph name="Y" xMin="77" yMin="0" xMax="902" yMax="700">
      <contour>
        <pt x="621" y="700" on="1"/>
        <pt x="902" y="700" on="1"/>
        <pt x="522" y="194" on="1"/>
        <pt x="481" y="0" on="1"/>
        <pt x="224" y="0" on="1"/>
        <pt x="265" y="195" on="1"/>
        <pt x="77" y="700" on="1"/>
        <pt x="337" y="700" on="1"/>
        <pt x="428" y="437" on="1"/>
        <pt x="437" y="437" on="1"/>
      </contour>
    </TTGlyph>
    <TTGlyph name="Y.sc" xMin="54" yMin="0" xMax="804" yMax="608">
      <component glyphName="y.sc" x="0" y="0" flags="0x204"/>
    </TTGlyph>
    <TTGlyph name="Yacute" xMin="77" yMin="0" xMax="902" yMax="933">
      <component glyphName="Y" x="0" y="0" flags="0x204"/>
      <component glyphName="acute" x="213" y="112" flags="0x4"/>
    </TTGlyph>
    <TTGlyph name="Yacute.sc" xMin="54" yMin="0" xMax="804" yMax="841">
      <component glyphName="yacute.sc" x="0" y="0" flags="0x204"/>
    </TTGlyph>
    <TTGlyph name="Ycircumflex" xMin="77" yMin="0" xMax="902" yMax="975">
      <component glyphName="Y" x="0" y="0" flags="0x204"/>
      <component glyphName="circumflex" x="170" y="136" flags="0x4"/>
    </TTGlyph>
    <TTGlyph name="Ycircumflex.sc" xMin="54" yMin="0" xMax="804" yMax="883">
      <component glyphName="ycircumflex.sc" x="0" y="0" flags="0x204"/>
    </TTGlyph>
    <TTGlyph name="Ydieresis" xMin="77" yMin="0" xMax="902" yMax="976">
      <component glyphName="Y" x="0" y="0" flags="0x204"/>
      <component glyphName="dieresis" x="200" y="136" flags="0x4"/>
    </TTGlyph>
    <TTGlyph name="Ydieresis.sc" xMin="54" yMin="0" xMax="804" yMax="884">
      <component glyphName="ydieresis.sc" x="0" y="0" flags="0x204"/>
    </TTGlyph>
    <TTGlyph name="Ygrave" xMin="77" yMin="0" xMax="902" yMax="937">
      <component glyphName="Y" x="0" y="0" flags="0x204"/>
      <component glyphName="grave" x="108" y="112" flags="0x4"/>
    </TTGlyph>
    <TTGlyph name="Ygrave.sc" xMin="54" yMin="0" xMax="804" yMax="845">
      <component glyphName="ygrave.sc" x="0" y="0" flags="0x204"/>
    </TTGlyph>
    <TTGlyph name="Z" xMin="-15" yMin="0" xMax="781" yMax="700">
      <contour>
        <pt x="-15" y="0" on="1"/>
        <pt x="28" y="203" on="1"/>
        <pt x="403" y="498" on="1"/>
        <pt x="99" y="498" on="1"/>
        <pt x="161" y="700" on="1"/>
        <pt x="781" y="700" on="1"/>
        <pt x="741" y="512" on="1"/>
        <pt x="358" y="203" on="1"/>
        <pt x="681" y="203" on="1"/>
        <pt x="638" y="0" on="1"/>
      </contour>
    </TTGlyph>
    <TTGlyph name="Z.sc" xMin="-15" yMin="0" xMax="699" yMax="608">
      <component glyphName="z.sc" x="0" y="0" flags="0x204"/>
    </TTGlyph>
    <TTGlyph name="Zacute" xMin="-15" yMin="0" xMax="781" yMax="957">
      <component glyphName="Z" x="0" y="0" flags="0x204"/>
      <component glyphName="acute" x="191" y="136" flags="0x4"/>
    </TTGlyph>
    <TTGlyph name="Zacute.sc" xMin="-15" yMin="0" xMax="718" yMax="865">
      <component glyphName="zacute.sc" x="0" y="0" flags="0x204"/>
    </TTGlyph>
    <TTGlyph name="Zcaron" xMin="-15" yMin="0" xMax="796" yMax="975">
      <component glyphName="Z" x="0" y="0" flags="0x204"/>
      <component glyphName="caron" x="169" y="136" flags="0x4"/>
    </TTGlyph>
    <TTGlyph name="Zcaron.sc" xMin="-15" yMin="0" xMax="738" yMax="883">
      <component glyphName="zcaron.sc" x="0" y="0" flags="0x204"/>
    </TTGlyph>
    <TTGlyph name="Zdotaccent" xMin="-15" yMin="0" xMax="781" yMax="978">
      <component glyphName="Z" x="0" y="0" flags="0x204"/>
      <component glyphName="dotaccent" x="163" y="136" flags="0x4"/>
    </TTGlyph>
    <TTGlyph name="Zdotaccent.sc" xMin="-15" yMin="0" xMax="699" yMax="886">
      <component glyphName="zdotaccent.sc" x="0" y="0" flags="0x204"/>
    </TTGlyph>
    <TTGlyph name="a" xMin="-1" yMin="-16" xMax="605" yMax="585">
      <contour>
        <pt x="305" y="392" on="1"/>
        <pt x="256" y="392" on="0"/>
        <pt x="133" y="362" on="0"/>
        <pt x="84" y="338" on="1"/>
        <pt x="83" y="338" on="1"/>
        <pt x="126" y="541" on="1"/>
        <pt x="175" y="561" on="0"/>
        <pt x="293" y="585" on="0"/>
        <pt x="350" y="585" on="1"/>
        <pt x="475" y="585" on="0"/>
        <pt x="605" y="469" on="0"/>
        <pt x="605" y="369" on="1"/>
        <pt x="605" y="351" on="0"/>
        <pt x="600" y="312" on="0"/>
        <pt x="596" y="291" on="1"/>
        <pt x="534" y="0" on="1"/>
        <pt x="311" y="0" on="1"/>
        <pt x="316" y="62" on="1"/>
        <pt x="288" y="28" on="0"/>
        <pt x="204" y="-16" on="0"/>
        <pt x="151" y="-16" on="1"/>
        <pt x="80" y="-16" on="0"/>
        <pt x="-1" y="57" on="0"/>
        <pt x="-1" y="120" on="1"/>
        <pt x="-1" y="163" on="0"/>
        <pt x="40" y="240" on="0"/>
        <pt x="83" y="268" on="1"/>
        <pt x="124" y="294" on="0"/>
        <pt x="261" y="328" on="0"/>
        <pt x="365" y="335" on="1"/>
        <pt x="366" y="340" on="0"/>
        <pt x="367" y="350" on="0"/>
        <pt x="367" y="354" on="1"/>
        <pt x="367" y="374" on="0"/>
        <pt x="337" y="392" on="0"/>
      </contour>
      <contour>
        <pt x="231" y="170" on="1"/>
        <pt x="231" y="155" on="0"/>
        <pt x="251" y="139" on="0"/>
        <pt x="267" y="139" on="1"/>
        <pt x="284" y="139" on="0"/>
        <pt x="317" y="154" on="0"/>
        <pt x="329" y="165" on="1"/>
        <pt x="343" y="233" on="1"/>
        <pt x="303" y="227" on="0"/>
        <pt x="256" y="212" on="0"/>
        <pt x="244" y="200" on="1"/>
        <pt x="237" y="193" on="0"/>
        <pt x="231" y="178" on="0"/>
      </contour>
    </TTGlyph>
    <TTGlyph name="a.sc" xMin="-38" yMin="0" xMax="699" yMax="608">
      <contour>
        <pt x="445" y="0" on="1"/>
        <pt x="445" y="96" on="1"/>
        <pt x="271" y="96" on="1"/>
        <pt x="230" y="0" on="1"/>
        <pt x="-38" y="0" on="1"/>
        <pt x="258" y="608" on="1"/>
        <pt x="659" y="608" on="1"/>
        <pt x="699" y="0" on="1"/>
      </contour>
      <contour>
        <pt x="405" y="411" on="1"/>
        <pt x="334" y="251" on="1"/>
        <pt x="446" y="251" on="1"/>
        <pt x="441" y="411" on="1"/>
      </contour>
    </TTGlyph>
    <TTGlyph name="aacute" xMin="-1" yMin="-16" xMax="688" yMax="821">
      <component glyphName="a" x="0" y="0" flags="0x204"/>
      <component glyphName="acute" x="103" y="0" flags="0x4"/>
    </TTGlyph>
    <TTGlyph name="aacute.sc" xMin="-38" yMin="0" xMax="767" yMax="865">
      <component glyphName="a.sc" x="0" y="0" flags="0x204"/>
      <component glyphName="acute" x="182" y="44" flags="0x4"/>
    </TTGlyph>
    <TTGlyph name="abreve" xMin="-1" yMin="-16" xMax="658" yMax="857">
      <component glyphName="a" x="0" y="0" flags="0x204"/>
      <component glyphName="breve" x="70" y="0" flags="0x4"/>
    </TTGlyph>
    <TTGlyph name="abreve.sc" xMin="-38" yMin="0" xMax="737" yMax="901">
      <component glyphName="a.sc" x="0" y="0" flags="0x204"/>
      <component glyphName="breve" x="149" y="44" flags="0x4"/>
    </TTGlyph>
    <TTGlyph name="acircumflex" xMin="-1" yMin="-16" xMax="639" yMax="839">
      <component glyphName="a" x="0" y="0" flags="0x204"/>
      <component glyphName="circumflex" x="56" y="0" flags="0x4"/>
    </TTGlyph>
    <TTGlyph name="acircumflex.sc" xMin="-38" yMin="0" xMax="718" yMax="883">
      <component glyphName="a.sc" x="0" y="0" flags="0x204"/>
      <component glyphName="circumflex" x="135" y="44" flags="0x4"/>
    </TTGlyph>
    <TTGlyph name="acute" xMin="158" yMin="630" xMax="585" yMax="821">
      <contour>
        <pt x="368" y="630" on="1"/>
        <pt x="158" y="630" on="1"/>
        <pt x="324" y="821" on="1"/>
        <pt x="585" y="821" on="1"/>
        <pt x="581" y="801" on="1"/>
      </contour>
    </TTGlyph>
    <TTGlyph name="adieresis" xMin="-1" yMin="-16" xMax="686" yMax="840">
      <component glyphName="a" x="0" y="0" flags="0x204"/>
      <component glyphName="dieresis" x="86" y="0" flags="0x4"/>
    </TTGlyph>
    <TTGlyph name="adieresis.sc" xMin="-38" yMin="0" xMax="764" yMax="884">
      <component glyphName="a.sc" x="0" y="0" flags="0x204"/>
      <component glyphName="dieresis" x="164" y="44" flags="0x4"/>
    </TTGlyph>
    <TTGlyph name="ae" xMin="-1" yMin="-21" xMax="948" yMax="588">
      <contour>
        <pt x="691" y="588" on="1"/>
        <pt x="755" y="588" on="0"/>
        <pt x="852" y="549" on="0"/>
        <pt x="916" y="482" on="0"/>
        <pt x="948" y="390" on="0"/>
        <pt x="948" y="337" on="1"/>
        <pt x="948" y="310" on="0"/>
        <pt x="937" y="255" on="0"/>
        <pt x="930" y="233" on="1"/>
        <pt x="580" y="233" on="1"/>
        <pt x="584" y="196" on="0"/>
        <pt x="643" y="160" on="0"/>
        <pt x="700" y="160" on="1"/>
        <pt x="725" y="160" on="0"/>
        <pt x="792" y="172" on="0"/>
        <pt x="850" y="187" on="0"/>
        <pt x="891" y="199" on="0"/>
        <pt x="891" y="199" on="1"/>
        <pt x="851" y="17" on="1"/>
        <pt x="811" y="-1" on="0"/>
        <pt x="711" y="-21" on="0"/>
        <pt x="655" y="-21" on="1"/>
        <pt x="565" y="-21" on="0"/>
        <pt x="443" y="32" on="0"/>
        <pt x="410" y="78" on="1"/>
        <pt x="366" y="38" on="0"/>
        <pt x="243" y="-16" on="0"/>
        <pt x="167" y="-16" on="1"/>
        <pt x="85" y="-16" on="0"/>
        <pt x="-1" y="57" on="0"/>
        <pt x="-1" y="120" on="1"/>
        <pt x="-1" y="163" on="0"/>
        <pt x="40" y="240" on="0"/>
        <pt x="83" y="268" on="1"/>
        <pt x="124" y="294" on="0"/>
        <pt x="262" y="328" on="0"/>
        <pt x="367" y="335" on="1"/>
        <pt x="367" y="354" on="1"/>
        <pt x="367" y="374" on="0"/>
        <pt x="337" y="392" on="0"/>
        <pt x="305" y="392" on="1"/>
        <pt x="256" y="392" on="0"/>
        <pt x="133" y="362" on="0"/>
        <pt x="84" y="338" on="1"/>
        <pt x="83" y="338" on="1"/>
        <pt x="126" y="541" on="1"/>
        <pt x="175" y="561" on="0"/>
        <pt x="293" y="585" on="0"/>
        <pt x="350" y="585" on="1"/>
        <pt x="404" y="585" on="0"/>
        <pt x="488" y="559" on="0"/>
        <pt x="517" y="531" on="1"/>
        <pt x="550" y="559" on="0"/>
        <pt x="639" y="588" on="0"/>
      </contour>
      <contour>
        <pt x="680" y="418" on="1"/>
        <pt x="646" y="418" on="0"/>
        <pt x="599" y="367" on="0"/>
        <pt x="588" y="330" on="1"/>
        <pt x="734" y="330" on="1"/>
        <pt x="735" y="335" on="0"/>
        <pt x="736" y="345" on="0"/>
        <pt x="736" y="349" on="1"/>
        <pt x="736" y="377" on="0"/>
        <pt x="710" y="418" on="0"/>
      </contour>
      <contour>
        <pt x="231" y="170" on="1"/>
        <pt x="231" y="154" on="0"/>
        <pt x="255" y="139" on="0"/>
        <pt x="274" y="139" on="1"/>
        <pt x="299" y="139" on="0"/>
        <pt x="350" y="162" on="0"/>
        <pt x="371" y="176" on="1"/>
        <pt x="369" y="188" on="0"/>
        <pt x="367" y="214" on="0"/>
        <pt x="367" y="227" on="1"/>
        <pt x="367" y="237" on="1"/>
        <pt x="321" y="231" on="0"/>
        <pt x="264" y="216" on="0"/>
        <pt x="251" y="206" on="1"/>
        <pt x="241" y="199" on="0"/>
        <pt x="231" y="180" on="0"/>
      </contour>
    </TTGlyph>
    <TTGlyph name="ae.sc" xMin="-70" yMin="0" xMax="1076" yMax="608">
      <contour>
        <pt x="1010" y="172" on="1"/>
        <pt x="957" y="0" on="1"/>
        <pt x="418" y="0" on="1"/>
        <pt x="439" y="100" on="1"/>
        <pt x="265" y="100" on="1"/>
        <pt x="205" y="0" on="1"/>
        <pt x="-70" y="0" on="1"/>
        <pt x="318" y="608" on="1"/>
        <pt x="1076" y="608" on="1"/>
        <pt x="1059" y="436" on="1"/>
        <pt x="760" y="436" on="1"/>
        <pt x="746" y="371" on="1"/>
        <pt x="973" y="371" on="1"/>
        <pt x="944" y="234" on="1"/>
        <pt x="717" y="234" on="1"/>
        <pt x="704" y="172" on="1"/>
      </contour>
      <contour>
        <pt x="467" y="434" on="1"/>
        <pt x="362" y="260" on="1"/>
        <pt x="473" y="260" on="1"/>
        <pt x="510" y="434" on="1"/>
      </contour>
    </TTGlyph>
    <TTGlyph name="aeacute" xMin="-1" yMin="-21" xMax="948" yMax="828">
      <component glyphName="ae" x="0" y="0" flags="0x204"/>
      <component glyphName="acute" x="230" y="7" flags="0x4"/>
    </TTGlyph>
    <TTGlyph name="aeacute.sc" xMin="-70" yMin="0" xMax="1076" yMax="865">
      <component glyphName="ae.sc" x="0" y="0" flags="0x204"/>
      <component glyphName="acute" x="416" y="44" flags="0x4"/>
    </TTGlyph>
    <TTGlyph name="agrave" xMin="-1" yMin="-16" xMax="605" yMax="825">
      <component glyphName="a" x="0" y="0" flags="0x204"/>
      <component glyphName="grave" x="-2" y="0" flags="0x4"/>
    </TTGlyph>
    <TTGlyph name="agrave.sc" xMin="-38" yMin="0" xMax="699" yMax="869">
      <component glyphName="a.sc" x="0" y="0" flags="0x204"/>
      <component glyphName="grave" x="77" y="44" flags="0x4"/>
    </TTGlyph>
    <TTGlyph name="amacron" xMin="-1" yMin="-16" xMax="648" yMax="806">
      <component glyphName="a" x="0" y="0" flags="0x204"/>
      <component glyphName="macron" x="68" y="0" flags="0x4"/>
    </TTGlyph>
    <TTGlyph name="amacron.sc" xMin="-38" yMin="0" xMax="726" yMax="850">
      <component glyphName="a.sc" x="0" y="0" flags="0x204"/>
      <component glyphName="macron" x="146" y="44" flags="0x4"/>
    </TTGlyph>
    <TTGlyph name="ampersand" xMin="9" yMin="-23" xMax="818" yMax="700">
      <contour>
        <pt x="231" y="-23" on="1"/>
        <pt x="130" y="-23" on="0"/>
        <pt x="9" y="77" on="0"/>
        <pt x="9" y="164" on="1"/>
        <pt x="9" y="209" on="0"/>
        <pt x="46" y="284" on="0"/>
        <pt x="109" y="349" on="0"/>
        <pt x="194" y="405" on="0"/>
        <pt x="243" y="430" on="1"/>
        <pt x="170" y="533" on="1"/>
        <pt x="206" y="700" on="1"/>
        <pt x="736" y="700" on="1"/>
        <pt x="719" y="521" on="1"/>
        <pt x="428" y="521" on="1"/>
        <pt x="577" y="312" on="1"/>
        <pt x="637" y="353" on="0"/>
        <pt x="758" y="435" on="0"/>
        <pt x="817" y="475" on="1"/>
        <pt x="818" y="475" on="1"/>
        <pt x="768" y="229" on="1"/>
        <pt x="745" y="213" on="0"/>
        <pt x="697" y="181" on="0"/>
        <pt x="673" y="165" on="1"/>
        <pt x="786" y="0" on="1"/>
        <pt x="534" y="0" on="1"/>
        <pt x="494" y="55" on="1"/>
        <pt x="431" y="20" on="0"/>
        <pt x="300" y="-23" on="0"/>
      </contour>
      <contour>
        <pt x="236" y="200" on="1"/>
        <pt x="236" y="184" on="0"/>
        <pt x="261" y="162" on="0"/>
        <pt x="286" y="162" on="1"/>
        <pt x="313" y="162" on="0"/>
        <pt x="372" y="184" on="0"/>
        <pt x="403" y="202" on="1"/>
        <pt x="338" y="294" on="1"/>
        <pt x="279" y="263" on="0"/>
        <pt x="236" y="219" on="0"/>
      </contour>
    </TTGlyph>
    <TTGlyph name="ampersand.sc" xMin="5" yMin="-22" xMax="734" yMax="608">
      <contour>
        <pt x="658" y="608" on="1"/>
        <pt x="642" y="439" on="1"/>
        <pt x="395" y="439" on="1"/>
        <pt x="521" y="271" on="1"/>
        <pt x="576" y="307" on="0"/>
        <pt x="683" y="375" on="0"/>
        <pt x="733" y="409" on="1"/>
        <pt x="734" y="409" on="1"/>
        <pt x="690" y="200" on="1"/>
        <pt x="670" y="186" on="0"/>
        <pt x="629" y="159" on="0"/>
        <pt x="608" y="146" on="1"/>
        <pt x="717" y="0" on="1"/>
        <pt x="480" y="0" on="1"/>
        <pt x="445" y="45" on="1"/>
        <pt x="389" y="15" on="0"/>
        <pt x="269" y="-22" on="0"/>
        <pt x="205" y="-22" on="1"/>
        <pt x="111" y="-22" on="0"/>
        <pt x="5" y="64" on="0"/>
        <pt x="5" y="133" on="1"/>
        <pt x="5" y="173" on="0"/>
        <pt x="37" y="239" on="0"/>
        <pt x="92" y="295" on="0"/>
        <pt x="168" y="344" on="0"/>
        <pt x="211" y="368" on="1"/>
        <pt x="143" y="458" on="1"/>
        <pt x="176" y="608" on="1"/>
      </contour>
      <contour>
        <pt x="225" y="171" on="1"/>
        <pt x="225" y="157" on="0"/>
        <pt x="242" y="141" on="0"/>
        <pt x="262" y="141" on="1"/>
        <pt x="283" y="141" on="0"/>
        <pt x="327" y="157" on="0"/>
        <pt x="358" y="173" on="1"/>
        <pt x="302" y="248" on="1"/>
        <pt x="258" y="221" on="0"/>
        <pt x="225" y="186" on="0"/>
      </contour>
    </TTGlyph>
    <TTGlyph name="aogonek" xMin="-1" yMin="-326" xMax="605" yMax="585">
      <contour>
        <pt x="305" y="392" on="1"/>
        <pt x="256" y="392" on="0"/>
        <pt x="133" y="362" on="0"/>
        <pt x="84" y="338" on="1"/>
        <pt x="83" y="338" on="1"/>
        <pt x="126" y="541" on="1"/>
        <pt x="175" y="561" on="0"/>
        <pt x="293" y="585" on="0"/>
        <pt x="350" y="585" on="1"/>
        <pt x="475" y="585" on="0"/>
        <pt x="605" y="469" on="0"/>
        <pt x="605" y="369" on="1"/>
        <pt x="605" y="351" on="0"/>
        <pt x="600" y="312" on="0"/>
        <pt x="596" y="291" on="1"/>
        <pt x="534" y="0" on="1"/>
        <pt x="475" y="-47" on="1"/>
        <pt x="429" y="-84" on="0"/>
        <pt x="389" y="-125" on="0"/>
        <pt x="389" y="-141" on="1"/>
        <pt x="389" y="-154" on="0"/>
        <pt x="414" y="-167" on="0"/>
        <pt x="442" y="-167" on="1"/>
        <pt x="463" y="-167" on="0"/>
        <pt x="503" y="-159" on="0"/>
        <pt x="528" y="-152" on="1"/>
        <pt x="495" y="-303" on="1"/>
        <pt x="464" y="-314" on="0"/>
        <pt x="398" y="-326" on="0"/>
        <pt x="355" y="-326" on="1"/>
        <pt x="257" y="-326" on="0"/>
        <pt x="175" y="-255" on="0"/>
        <pt x="175" y="-213" on="1"/>
        <pt x="175" y="-159" on="0"/>
        <pt x="266" y="-54" on="0"/>
        <pt x="385" y="0" on="1"/>
        <pt x="311" y="0" on="1"/>
        <pt x="316" y="62" on="1"/>
        <pt x="288" y="28" on="0"/>
        <pt x="204" y="-16" on="0"/>
        <pt x="151" y="-16" on="1"/>
        <pt x="80" y="-16" on="0"/>
        <pt x="-1" y="57" on="0"/>
        <pt x="-1" y="120" on="1"/>
        <pt x="-1" y="163" on="0"/>
        <pt x="40" y="240" on="0"/>
        <pt x="83" y="268" on="1"/>
        <pt x="124" y="294" on="0"/>
        <pt x="261" y="328" on="0"/>
        <pt x="365" y="335" on="1"/>
        <pt x="366" y="340" on="0"/>
        <pt x="367" y="350" on="0"/>
        <pt x="367" y="354" on="1"/>
        <pt x="367" y="374" on="0"/>
        <pt x="337" y="392" on="0"/>
      </contour>
      <contour>
        <pt x="231" y="170" on="1"/>
        <pt x="231" y="155" on="0"/>
        <pt x="251" y="139" on="0"/>
        <pt x="267" y="139" on="1"/>
        <pt x="284" y="139" on="0"/>
        <pt x="317" y="154" on="0"/>
        <pt x="329" y="165" on="1"/>
        <pt x="343" y="233" on="1"/>
        <pt x="303" y="227" on="0"/>
        <pt x="256" y="212" on="0"/>
        <pt x="244" y="200" on="1"/>
        <pt x="237" y="193" on="0"/>
        <pt x="231" y="178" on="0"/>
      </contour>
    </TTGlyph>
    <TTGlyph name="aogonek.sc" xMin="-38" yMin="-326" xMax="699" yMax="608">
      <contour>
        <pt x="660" y="-303" on="1"/>
        <pt x="629" y="-314" on="0"/>
        <pt x="563" y="-326" on="0"/>
        <pt x="520" y="-326" on="1"/>
        <pt x="422" y="-326" on="0"/>
        <pt x="340" y="-255" on="0"/>
        <pt x="340" y="-213" on="1"/>
        <pt x="340" y="-159" on="0"/>
        <pt x="431" y="-54" on="0"/>
        <pt x="550" y="0" on="1"/>
        <pt x="445" y="0" on="1"/>
        <pt x="445" y="96" on="1"/>
        <pt x="271" y="96" on="1"/>
        <pt x="230" y="0" on="1"/>
        <pt x="-38" y="0" on="1"/>
        <pt x="258" y="608" on="1"/>
        <pt x="659" y="608" on="1"/>
        <pt x="699" y="0" on="1"/>
        <pt x="640" y="-47" on="1"/>
        <pt x="594" y="-84" on="0"/>
        <pt x="554" y="-125" on="0"/>
        <pt x="554" y="-141" on="1"/>
        <pt x="554" y="-154" on="0"/>
        <pt x="579" y="-167" on="0"/>
        <pt x="607" y="-167" on="1"/>
        <pt x="628" y="-167" on="0"/>
        <pt x="668" y="-159" on="0"/>
        <pt x="693" y="-152" on="1"/>
      </contour>
      <contour>
        <pt x="405" y="411" on="1"/>
        <pt x="334" y="251" on="1"/>
        <pt x="446" y="251" on="1"/>
        <pt x="441" y="411" on="1"/>
      </contour>
    </TTGlyph>
    <TTGlyph name="aring" xMin="-1" yMin="-16" xMax="612" yMax="961">
      <component glyphName="a" x="0" y="0" flags="0x204"/>
      <component glyphName="ring" x="-6" y="0" flags="0x4"/>
    </TTGlyph>
    <TTGlyph name="aring.sc" xMin="-38" yMin="0" xMax="699" yMax="1005">
      <component glyphName="a.sc" x="0" y="0" flags="0x204"/>
      <component glyphName="ring" x="72" y="44" flags="0x4"/>
    </TTGlyph>
    <TTGlyph name="aringacute" xMin="-1" yMin="-16" xMax="769" yMax="1203">
      <component glyphName="a" x="0" y="0" flags="0x204"/>
      <component glyphName="ring" x="-6" y="0" flags="0x4"/>
      <component glyphName="acute" x="184" y="382" flags="0x4"/>
    </TTGlyph>
    <TTGlyph name="aringacute.sc" xMin="-38" yMin="0" xMax="848" yMax="1247">
      <component glyphName="a.sc" x="0" y="0" flags="0x204"/>
      <component glyphName="ring" x="72" y="44" flags="0x4"/>
      <component glyphName="acute" x="263" y="426" flags="0x4"/>
    </TTGlyph>
    <TTGlyph name="asciicircum" xMin="43" yMin="316" xMax="708" yMax="700">
      <contour>
        <pt x="620" y="700" on="1"/>
        <pt x="708" y="316" on="1"/>
        <pt x="483" y="316" on="1"/>
        <pt x="441" y="504" on="1"/>
        <pt x="410" y="504" on="1"/>
        <pt x="288" y="316" on="1"/>
        <pt x="43" y="316" on="1"/>
        <pt x="295" y="700" on="1"/>
      </contour>
    </TTGlyph>
    <TTGlyph name="asciicircum.tab" xMin="37" yMin="316" xMax="702" yMax="700">
      <component glyphName="asciicircum" x="-6" y="0" flags="0x4"/>
    </TTGlyph>
    <TTGlyph name="asciitilde" xMin="39" yMin="174" xMax="728" yMax="528">
      <contour>
        <pt x="497" y="186" on="1"/>
        <pt x="464" y="186" on="0"/>
        <pt x="402" y="208" on="0"/>
        <pt x="353" y="236" on="1"/>
        <pt x="307" y="261" on="0"/>
        <pt x="258" y="279" on="0"/>
        <pt x="233" y="279" on="1"/>
        <pt x="187" y="279" on="0"/>
        <pt x="92" y="220" on="0"/>
        <pt x="40" y="174" on="1"/>
        <pt x="39" y="174" on="1"/>
        <pt x="94" y="433" on="1"/>
        <pt x="137" y="472" on="0"/>
        <pt x="221" y="516" on="0"/>
        <pt x="270" y="516" on="1"/>
        <pt x="303" y="516" on="0"/>
        <pt x="365" y="494" on="0"/>
        <pt x="414" y="466" on="1"/>
        <pt x="460" y="441" on="0"/>
        <pt x="509" y="423" on="0"/>
        <pt x="534" y="423" on="1"/>
        <pt x="580" y="423" on="0"/>
        <pt x="675" y="482" on="0"/>
        <pt x="727" y="528" on="1"/>
        <pt x="728" y="528" on="1"/>
        <pt x="673" y="269" on="1"/>
        <pt x="630" y="230" on="0"/>
        <pt x="546" y="186" on="0"/>
      </contour>
    </TTGlyph>
    <TTGlyph name="asciitilde.tab" xMin="32" yMin="174" xMax="721" yMax="528">
      <component glyphName="asciitilde" x="-7" y="0" flags="0x4"/>
    </TTGlyph>
    <TTGlyph name="asterisk" xMin="112" yMin="218" xMax="607" yMax="716">
      <contour>
        <pt x="412" y="222" on="1"/>
        <pt x="380" y="218" on="1"/>
        <pt x="309" y="307" on="1"/>
        <pt x="200" y="278" on="1"/>
        <pt x="177" y="299" on="1"/>
        <pt x="203" y="412" on="1"/>
        <pt x="112" y="479" on="1"/>
        <pt x="114" y="511" on="1"/>
        <pt x="216" y="560" on="1"/>
        <pt x="212" y="673" on="1"/>
        <pt x="239" y="691" on="1"/>
        <pt x="342" y="641" on="1"/>
        <pt x="429" y="716" on="1"/>
        <pt x="459" y="705" on="1"/>
        <pt x="484" y="593" on="1"/>
        <pt x="596" y="572" on="1"/>
        <pt x="607" y="542" on="1"/>
        <pt x="534" y="452" on="1"/>
        <pt x="587" y="353" on="1"/>
        <pt x="571" y="326" on="1"/>
        <pt x="456" y="326" on="1"/>
      </contour>
    </TTGlyph>
    <TTGlyph name="at" xMin="66" yMin="-142" xMax="1080" yMax="821">
      <contour>
        <pt x="796" y="124" on="1"/>
        <pt x="758" y="124" on="0"/>
        <pt x="661" y="149" on="0"/>
        <pt x="630" y="193" on="1"/>
        <pt x="607" y="165" on="0"/>
        <pt x="535" y="118" on="0"/>
        <pt x="480" y="118" on="1"/>
        <pt x="425" y="118" on="0"/>
        <pt x="359" y="172" on="0"/>
        <pt x="359" y="221" on="1"/>
        <pt x="359" y="252" on="0"/>
        <pt x="390" y="311" on="0"/>
        <pt x="422" y="331" on="1"/>
        <pt x="452" y="350" on="0"/>
        <pt x="554" y="376" on="0"/>
        <pt x="632" y="381" on="1"/>
        <pt x="633" y="385" on="0"/>
        <pt x="633" y="392" on="0"/>
        <pt x="633" y="395" on="1"/>
        <pt x="633" y="411" on="0"/>
        <pt x="611" y="424" on="0"/>
        <pt x="587" y="424" on="1"/>
        <pt x="551" y="424" on="0"/>
        <pt x="459" y="401" on="0"/>
        <pt x="423" y="384" on="1"/>
        <pt x="422" y="384" on="1"/>
        <pt x="454" y="535" on="1"/>
        <pt x="491" y="550" on="0"/>
        <pt x="578" y="568" on="0"/>
        <pt x="621" y="568" on="1"/>
        <pt x="714" y="568" on="0"/>
        <pt x="811" y="482" on="0"/>
        <pt x="811" y="407" on="1"/>
        <pt x="811" y="394" on="0"/>
        <pt x="808" y="365" on="0"/>
        <pt x="804" y="349" on="1"/>
        <pt x="800" y="331" on="1"/>
        <pt x="798" y="322" on="0"/>
        <pt x="790" y="292" on="0"/>
        <pt x="790" y="282" on="1"/>
        <pt x="790" y="266" on="0"/>
        <pt x="809" y="252" on="0"/>
        <pt x="827" y="252" on="1"/>
        <pt x="849" y="252" on="0"/>
        <pt x="881" y="283" on="0"/>
        <pt x="902" y="332" on="0"/>
        <pt x="913" y="394" on="0"/>
        <pt x="913" y="425" on="1"/>
        <pt x="913" y="537" on="0"/>
        <pt x="764" y="665" on="0"/>
        <pt x="627" y="665" on="1"/>
        <pt x="516" y="665" on="0"/>
        <pt x="367" y="589" on="0"/>
        <pt x="280" y="472" on="0"/>
        <pt x="244" y="330" on="0"/>
        <pt x="244" y="265" on="1"/>
        <pt x="244" y="199" on="0"/>
        <pt x="290" y="104" on="0"/>
        <pt x="374" y="43" on="0"/>
        <pt x="491" y="14" on="0"/>
        <pt x="562" y="14" on="1"/>
        <pt x="622" y="14" on="0"/>
        <pt x="739" y="32" on="0"/>
        <pt x="802" y="51" on="1"/>
        <pt x="764" y="-110" on="1"/>
        <pt x="714" y="-125" on="0"/>
        <pt x="597" y="-142" on="0"/>
        <pt x="535" y="-142" on="1"/>
        <pt x="437" y="-142" on="0"/>
        <pt x="265" y="-96" on="0"/>
        <pt x="139" y="2" on="0"/>
        <pt x="66" y="156" on="0"/>
        <pt x="66" y="263" on="1"/>
        <pt x="66" y="359" on="0"/>
        <pt x="131" y="559" on="0"/>
        <pt x="268" y="719" on="0"/>
        <pt x="483" y="821" on="0"/>
        <pt x="630" y="821" on="1"/>
        <pt x="738" y="821" on="0"/>
        <pt x="906" y="767" on="0"/>
        <pt x="1020" y="668" on="0"/>
        <pt x="1080" y="528" on="0"/>
        <pt x="1080" y="443" on="1"/>
        <pt x="1080" y="371" on="0"/>
        <pt x="1042" y="253" on="0"/>
        <pt x="970" y="170" on="0"/>
        <pt x="864" y="124" on="0"/>
      </contour>
      <contour>
        <pt x="559" y="233" on="1"/>
        <pt x="572" y="233" on="0"/>
        <pt x="596" y="244" on="0"/>
        <pt x="605" y="253" on="1"/>
        <pt x="616" y="305" on="1"/>
        <pt x="585" y="301" on="0"/>
        <pt x="551" y="290" on="0"/>
        <pt x="542" y="281" on="1"/>
        <pt x="537" y="276" on="0"/>
        <pt x="532" y="264" on="0"/>
        <pt x="532" y="258" on="1"/>
        <pt x="532" y="245" on="0"/>
        <pt x="547" y="233" on="0"/>
      </contour>
    </TTGlyph>
    <TTGlyph name="at.cap" xMin="68" yMin="-132" xMax="1082" yMax="831">
      <component glyphName="at" x="2" y="10" flags="0x4"/>
    </TTGlyph>
    <TTGlyph name="atilde" xMin="-1" yMin="-16" xMax="652" yMax="850">
      <component glyphName="a" x="0" y="0" flags="0x204"/>
      <component glyphName="tilde" x="56" y="0" flags="0x4"/>
    </TTGlyph>
    <TTGlyph name="atilde.sc" xMin="-38" yMin="0" xMax="731" yMax="894">
      <component glyphName="a.sc" x="0" y="0" flags="0x204"/>
      <component glyphName="tilde" x="135" y="44" flags="0x4"/>
    </TTGlyph>
    <TTGlyph name="b" xMin="0" yMin="-17" xMax="699" yMax="792">
      <contour>
        <pt x="416" y="792" on="1"/>
        <pt x="356" y="510" on="1"/>
        <pt x="382" y="541" on="0"/>
        <pt x="459" y="581" on="0"/>
        <pt x="507" y="581" on="1"/>
        <pt x="545" y="581" on="0"/>
        <pt x="615" y="556" on="0"/>
        <pt x="668" y="501" on="0"/>
        <pt x="699" y="415" on="0"/>
        <pt x="699" y="355" on="1"/>
        <pt x="699" y="276" on="0"/>
        <pt x="652" y="140" on="0"/>
        <pt x="565" y="40" on="0"/>
        <pt x="438" y="-17" on="0"/>
        <pt x="359" y="-17" on="1"/>
        <pt x="317" y="-17" on="0"/>
        <pt x="224" y="0" on="0"/>
        <pt x="181" y="19" on="1"/>
        <pt x="0" y="19" on="1"/>
        <pt x="165" y="792" on="1"/>
      </contour>
      <contour>
        <pt x="348" y="167" on="1"/>
        <pt x="375" y="167" on="0"/>
        <pt x="417" y="193" on="0"/>
        <pt x="444" y="235" on="0"/>
        <pt x="459" y="290" on="0"/>
        <pt x="459" y="319" on="1"/>
        <pt x="459" y="357" on="0"/>
        <pt x="429" y="392" on="0"/>
        <pt x="404" y="392" on="1"/>
        <pt x="381" y="392" on="0"/>
        <pt x="339" y="374" on="0"/>
        <pt x="324" y="361" on="1"/>
        <pt x="287" y="182" on="1"/>
        <pt x="302" y="175" on="0"/>
        <pt x="333" y="167" on="0"/>
      </contour>
    </TTGlyph>
    <TTGlyph name="b.sc" xMin="6" yMin="0" xMax="731" yMax="608">
      <contour>
        <pt x="6" y="0" on="1"/>
        <pt x="135" y="608" on="1"/>
        <pt x="489" y="608" on="1"/>
        <pt x="620" y="608" on="0"/>
        <pt x="731" y="533" on="0"/>
        <pt x="731" y="464" on="1"/>
        <pt x="731" y="407" on="0"/>
        <pt x="655" y="338" on="0"/>
        <pt x="593" y="317" on="1"/>
        <pt x="644" y="300" on="0"/>
        <pt x="700" y="238" on="0"/>
        <pt x="700" y="192" on="1"/>
        <pt x="700" y="105" on="0"/>
        <pt x="561" y="0" on="0"/>
        <pt x="389" y="0" on="1"/>
      </contour>
      <contour>
        <pt x="332" y="363" on="1"/>
        <pt x="422" y="363" on="1"/>
        <pt x="459" y="363" on="0"/>
        <pt x="488" y="392" on="0"/>
        <pt x="488" y="415" on="1"/>
        <pt x="488" y="435" on="0"/>
        <pt x="461" y="455" on="0"/>
        <pt x="435" y="455" on="1"/>
        <pt x="352" y="455" on="1"/>
      </contour>
      <contour>
        <pt x="308" y="248" on="1"/>
        <pt x="288" y="154" on="1"/>
        <pt x="387" y="154" on="1"/>
        <pt x="423" y="154" on="0"/>
        <pt x="456" y="182" on="0"/>
        <pt x="456" y="206" on="1"/>
        <pt x="456" y="227" on="0"/>
        <pt x="432" y="248" on="0"/>
        <pt x="404" y="248" on="1"/>
      </contour>
    </TTGlyph>
    <TTGlyph name="backslash" xMin="132" yMin="-214" xMax="483" yMax="792">
      <contour>
        <pt x="483" y="-214" on="1"/>
        <pt x="268" y="-214" on="1"/>
        <pt x="132" y="792" on="1"/>
        <pt x="347" y="792" on="1"/>
      </contour>
    </TTGlyph>
    <TTGlyph name="backslash.cap" xMin="147" yMin="-153" xMax="498" yMax="853">
      <component glyphName="backslash" x="15" y="61" flags="0x4"/>
    </TTGlyph>
    <TTGlyph name="bar" xMin="83" yMin="-214" xMax="520" yMax="792">
      <contour>
        <pt x="307" y="-214" on="1"/>
        <pt x="83" y="-214" on="1"/>
        <pt x="296" y="792" on="1"/>
        <pt x="520" y="792" on="1"/>
      </contour>
    </TTGlyph>
    <TTGlyph name="bar.cap" xMin="96" yMin="-153" xMax="533" yMax="853">
      <component glyphName="bar" x="13" y="61" flags="0x4"/>
    </TTGlyph>
    <TTGlyph name="bar.tab" xMin="67" yMin="-153" xMax="504" yMax="853">
      <component glyphName="bar.cap" x="-29" y="0" flags="0x4"/>
    </TTGlyph>
    <TTGlyph name="braceleft" xMin="-4" yMin="-238" xMax="656" yMax="816">
      <contour>
        <pt x="-4" y="303" on="1"/>
        <pt x="3" y="335" on="1"/>
        <pt x="188" y="475" on="1"/>
        <pt x="199" y="557" on="1"/>
        <pt x="209" y="635" on="0"/>
        <pt x="267" y="737" on="0"/>
        <pt x="345" y="794" on="0"/>
        <pt x="437" y="816" on="0"/>
        <pt x="482" y="816" on="1"/>
        <pt x="539" y="816" on="0"/>
        <pt x="627" y="792" on="0"/>
        <pt x="656" y="779" on="1"/>
        <pt x="619" y="608" on="1"/>
        <pt x="618" y="608" on="1"/>
        <pt x="594" y="619" on="0"/>
        <pt x="544" y="632" on="0"/>
        <pt x="522" y="632" on="1"/>
        <pt x="484" y="632" on="0"/>
        <pt x="425" y="582" on="0"/>
        <pt x="415" y="522" on="1"/>
        <pt x="394" y="395" on="1"/>
        <pt x="241" y="291" on="1"/>
        <pt x="348" y="174" on="1"/>
        <pt x="319" y="82" on="1"/>
        <pt x="312" y="61" on="0"/>
        <pt x="307" y="28" on="0"/>
        <pt x="307" y="16" on="1"/>
        <pt x="307" y="-24" on="0"/>
        <pt x="368" y="-59" on="0"/>
        <pt x="417" y="-59" on="1"/>
        <pt x="433" y="-59" on="0"/>
        <pt x="462" y="-57" on="0"/>
        <pt x="479" y="-55" on="1"/>
        <pt x="480" y="-55" on="1"/>
        <pt x="443" y="-226" on="1"/>
        <pt x="415" y="-233" on="0"/>
        <pt x="355" y="-238" on="0"/>
        <pt x="332" y="-238" on="1"/>
        <pt x="284" y="-238" on="0"/>
        <pt x="196" y="-216" on="0"/>
        <pt x="128" y="-168" on="0"/>
        <pt x="87" y="-91" on="0"/>
        <pt x="87" y="-35" on="1"/>
        <pt x="87" y="-7" on="0"/>
        <pt x="100" y="64" on="0"/>
        <pt x="109" y="93" on="1"/>
        <pt x="127" y="149" on="1"/>
      </contour>
    </TTGlyph>
    <TTGlyph name="braceleft.cap" xMin="9" yMin="-177" xMax="669" yMax="877">
      <component glyphName="braceleft" x="13" y="61" flags="0x4"/>
    </TTGlyph>
    <TTGlyph name="braceright" xMin="-70" yMin="-247" xMax="590" yMax="807">
      <contour>
        <pt x="590" y="266" on="1"/>
        <pt x="583" y="234" on="1"/>
        <pt x="398" y="94" on="1"/>
        <pt x="387" y="12" on="1"/>
        <pt x="377" y="-66" on="0"/>
        <pt x="319" y="-168" on="0"/>
        <pt x="241" y="-225" on="0"/>
        <pt x="149" y="-247" on="0"/>
        <pt x="104" y="-247" on="1"/>
        <pt x="47" y="-247" on="0"/>
        <pt x="-41" y="-223" on="0"/>
        <pt x="-70" y="-210" on="1"/>
        <pt x="-33" y="-39" on="1"/>
        <pt x="-32" y="-39" on="1"/>
        <pt x="-8" y="-50" on="0"/>
        <pt x="42" y="-63" on="0"/>
        <pt x="64" y="-63" on="1"/>
        <pt x="102" y="-63" on="0"/>
        <pt x="161" y="-13" on="0"/>
        <pt x="171" y="47" on="1"/>
        <pt x="192" y="174" on="1"/>
        <pt x="345" y="278" on="1"/>
        <pt x="238" y="395" on="1"/>
        <pt x="267" y="487" on="1"/>
        <pt x="274" y="508" on="0"/>
        <pt x="279" y="541" on="0"/>
        <pt x="279" y="553" on="1"/>
        <pt x="279" y="593" on="0"/>
        <pt x="218" y="628" on="0"/>
        <pt x="169" y="628" on="1"/>
        <pt x="153" y="628" on="0"/>
        <pt x="124" y="626" on="0"/>
        <pt x="107" y="624" on="1"/>
        <pt x="106" y="624" on="1"/>
        <pt x="143" y="795" on="1"/>
        <pt x="171" y="802" on="0"/>
        <pt x="231" y="807" on="0"/>
        <pt x="254" y="807" on="1"/>
        <pt x="302" y="807" on="0"/>
        <pt x="390" y="785" on="0"/>
        <pt x="458" y="737" on="0"/>
        <pt x="499" y="660" on="0"/>
        <pt x="499" y="604" on="1"/>
        <pt x="499" y="576" on="0"/>
        <pt x="486" y="505" on="0"/>
        <pt x="477" y="476" on="1"/>
        <pt x="459" y="420" on="1"/>
      </contour>
    </TTGlyph>
    <TTGlyph name="braceright.cap" xMin="-55" yMin="-177" xMax="605" yMax="877">
      <component glyphName="braceright" x="15" y="70" flags="0x4"/>
    </TTGlyph>
    <TTGlyph name="bracketleft" xMin="-53" yMin="-214" xMax="567" yMax="792">
      <contour>
        <pt x="-53" y="-214" on="1"/>
        <pt x="161" y="792" on="1"/>
        <pt x="567" y="792" on="1"/>
        <pt x="528" y="611" on="1"/>
        <pt x="349" y="611" on="1"/>
        <pt x="212" y="-33" on="1"/>
        <pt x="392" y="-33" on="1"/>
        <pt x="353" y="-214" on="1"/>
      </contour>
    </TTGlyph>
    <TTGlyph name="bracketleft.cap" xMin="-40" yMin="-153" xMax="580" yMax="853">
      <component glyphName="bracketleft" x="13" y="61" flags="0x4"/>
    </TTGlyph>
    <TTGlyph name="bracketright" xMin="-65" yMin="-214" xMax="555" yMax="792">
      <contour>
        <pt x="555" y="792" on="1"/>
        <pt x="341" y="-214" on="1"/>
        <pt x="-65" y="-214" on="1"/>
        <pt x="-26" y="-33" on="1"/>
        <pt x="153" y="-33" on="1"/>
        <pt x="290" y="611" on="1"/>
        <pt x="110" y="611" on="1"/>
        <pt x="149" y="792" on="1"/>
      </contour>
    </TTGlyph>
    <TTGlyph name="bracketright.cap" xMin="-52" yMin="-153" xMax="568" yMax="853">
      <component glyphName="bracketright" x="13" y="61" flags="0x4"/>
    </TTGlyph>
    <TTGlyph name="breve" xMin="133" yMin="622" xMax="588" yMax="857">
      <contour>
        <pt x="148" y="857" on="1"/>
        <pt x="305" y="857" on="1"/>
        <pt x="301" y="847" on="0"/>
        <pt x="297" y="827" on="0"/>
        <pt x="297" y="820" on="1"/>
        <pt x="297" y="798" on="0"/>
        <pt x="326" y="776" on="0"/>
        <pt x="351" y="776" on="1"/>
        <pt x="389" y="776" on="0"/>
        <pt x="427" y="816" on="0"/>
        <pt x="431" y="857" on="1"/>
        <pt x="587" y="857" on="1"/>
        <pt x="587" y="852" on="0"/>
        <pt x="588" y="841" on="0"/>
        <pt x="588" y="836" on="1"/>
        <pt x="588" y="728" on="0"/>
        <pt x="458" y="622" on="0"/>
        <pt x="341" y="622" on="1"/>
        <pt x="242" y="622" on="0"/>
        <pt x="133" y="695" on="0"/>
        <pt x="133" y="770" on="1"/>
        <pt x="133" y="789" on="0"/>
        <pt x="141" y="833" on="0"/>
      </contour>
    </TTGlyph>
    <TTGlyph name="bullet" xMin="48" yMin="140" xMax="451" yMax="504">
      <contour>
        <pt x="48" y="305" on="1"/>
        <pt x="48" y="346" on="0"/>
        <pt x="78" y="419" on="0"/>
        <pt x="134" y="473" on="0"/>
        <pt x="215" y="504" on="0"/>
        <pt x="266" y="504" on="1"/>
        <pt x="357" y="504" on="0"/>
        <pt x="451" y="410" on="0"/>
        <pt x="451" y="338" on="1"/>
        <pt x="451" y="297" on="0"/>
        <pt x="421" y="224" on="0"/>
        <pt x="365" y="171" on="0"/>
        <pt x="284" y="140" on="0"/>
        <pt x="233" y="140" on="1"/>
        <pt x="141" y="140" on="0"/>
        <pt x="48" y="233" on="0"/>
      </contour>
    </TTGlyph>
    <TTGlyph name="bullet.cap" xMin="54" yMin="168" xMax="457" yMax="532">
      <component glyphName="bullet" x="6" y="28" flags="0x4"/>
    </TTGlyph>
    <TTGlyph name="c" xMin="25" yMin="-21" xMax="573" yMax="585">
      <contour>
        <pt x="262" y="268" on="1"/>
        <pt x="262" y="218" on="0"/>
        <pt x="329" y="175" on="0"/>
        <pt x="376" y="175" on="1"/>
        <pt x="410" y="175" on="0"/>
        <pt x="474" y="193" on="0"/>
        <pt x="505" y="203" on="1"/>
        <pt x="506" y="203" on="1"/>
        <pt x="465" y="10" on="1"/>
        <pt x="443" y="-2" on="0"/>
        <pt x="360" y="-21" on="0"/>
        <pt x="311" y="-21" on="1"/>
        <pt x="255" y="-21" on="0"/>
        <pt x="151" y="10" on="0"/>
        <pt x="72" y="73" on="0"/>
        <pt x="25" y="173" on="0"/>
        <pt x="25" y="241" on="1"/>
        <pt x="25" y="316" on="0"/>
        <pt x="74" y="442" on="0"/>
        <pt x="161" y="534" on="0"/>
        <pt x="284" y="585" on="0"/>
        <pt x="358" y="585" on="1"/>
        <pt x="426" y="585" on="0"/>
        <pt x="542" y="547" on="0"/>
        <pt x="573" y="524" on="1"/>
        <pt x="533" y="337" on="1"/>
        <pt x="532" y="337" on="1"/>
        <pt x="501" y="359" on="0"/>
        <pt x="424" y="389" on="0"/>
        <pt x="386" y="389" on="1"/>
        <pt x="330" y="389" on="0"/>
        <pt x="262" y="322" on="0"/>
      </contour>
    </TTGlyph>
    <TTGlyph name="c.sc" xMin="38" yMin="-19" xMax="665" yMax="627">
      <contour>
        <pt x="424" y="627" on="1"/>
        <pt x="500" y="627" on="0"/>
        <pt x="630" y="589" on="0"/>
        <pt x="665" y="565" on="1"/>
        <pt x="622" y="365" on="1"/>
        <pt x="621" y="365" on="1"/>
        <pt x="580" y="391" on="0"/>
        <pt x="491" y="422" on="0"/>
        <pt x="442" y="422" on="1"/>
        <pt x="367" y="422" on="0"/>
        <pt x="284" y="339" on="0"/>
        <pt x="284" y="282" on="1"/>
        <pt x="284" y="232" on="0"/>
        <pt x="361" y="186" on="0"/>
        <pt x="427" y="186" on="1"/>
        <pt x="467" y="186" on="0"/>
        <pt x="547" y="201" on="0"/>
        <pt x="590" y="217" on="1"/>
        <pt x="591" y="217" on="1"/>
        <pt x="547" y="13" on="1"/>
        <pt x="519" y="2" on="0"/>
        <pt x="421" y="-19" on="0"/>
        <pt x="366" y="-19" on="1"/>
        <pt x="284" y="-19" on="0"/>
        <pt x="160" y="21" on="0"/>
        <pt x="79" y="93" on="0"/>
        <pt x="38" y="194" on="0"/>
        <pt x="38" y="253" on="1"/>
        <pt x="38" y="341" on="0"/>
        <pt x="99" y="481" on="0"/>
        <pt x="203" y="577" on="0"/>
        <pt x="345" y="627" on="0"/>
      </contour>
    </TTGlyph>
    <TTGlyph name="cacute" xMin="25" yMin="-21" xMax="682" yMax="821">
      <component glyphName="c" x="0" y="0" flags="0x204"/>
      <component glyphName="acute" x="97" y="0" flags="0x4"/>
    </TTGlyph>
    <TTGlyph name="cacute.sc" xMin="38" yMin="-19" xMax="753" yMax="884">
      <component glyphName="c.sc" x="0" y="0" flags="0x204"/>
      <component glyphName="acute" x="168" y="63" flags="0x4"/>
    </TTGlyph>
    <TTGlyph name="caron" xMin="109" yMin="630" xMax="627" yMax="839">
      <contour>
        <pt x="627" y="839" on="1"/>
        <pt x="408" y="630" on="1"/>
        <pt x="152" y="630" on="1"/>
        <pt x="109" y="839" on="1"/>
        <pt x="295" y="839" on="1"/>
        <pt x="307" y="763" on="1"/>
        <pt x="344" y="763" on="1"/>
        <pt x="423" y="839" on="1"/>
      </contour>
    </TTGlyph>
    <TTGlyph name="caron.alt" xMin="260" yMin="606" xMax="505" yMax="792">
      <contour>
        <pt x="260" y="606" on="1"/>
        <pt x="299" y="792" on="1"/>
        <pt x="505" y="792" on="1"/>
        <pt x="499" y="760" on="1"/>
        <pt x="383" y="606" on="1"/>
      </contour>
    </TTGlyph>
    <TTGlyph name="ccaron" xMin="25" yMin="-21" xMax="702" yMax="839">
      <component glyphName="c" x="0" y="0" flags="0x204"/>
      <component glyphName="caron" x="75" y="0" flags="0x4"/>
    </TTGlyph>
    <TTGlyph name="ccaron.sc" xMin="38" yMin="-19" xMax="773" yMax="902">
      <component glyphName="c.sc" x="0" y="0" flags="0x204"/>
      <component glyphName="caron" x="146" y="63" flags="0x4"/>
    </TTGlyph>
    <TTGlyph name="ccedilla" xMin="-20" yMin="-206" xMax="573" yMax="585">
      <contour>
        <pt x="262" y="268" on="1"/>
        <pt x="262" y="218" on="0"/>
        <pt x="329" y="175" on="0"/>
        <pt x="376" y="175" on="1"/>
        <pt x="410" y="175" on="0"/>
        <pt x="474" y="193" on="0"/>
        <pt x="505" y="203" on="1"/>
        <pt x="506" y="203" on="1"/>
        <pt x="465" y="10" on="1"/>
        <pt x="448" y="1" on="0"/>
        <pt x="392" y="-15" on="0"/>
        <pt x="358" y="-19" on="1"/>
        <pt x="242" y="-206" on="1"/>
        <pt x="-20" y="-206" on="1"/>
        <pt x="-14" y="-180" on="1"/>
        <pt x="182" y="-5" on="1"/>
        <pt x="200" y="-5" on="1"/>
        <pt x="125" y="18" on="0"/>
        <pt x="25" y="140" on="0"/>
        <pt x="25" y="241" on="1"/>
        <pt x="25" y="316" on="0"/>
        <pt x="74" y="442" on="0"/>
        <pt x="161" y="534" on="0"/>
        <pt x="284" y="585" on="0"/>
        <pt x="358" y="585" on="1"/>
        <pt x="426" y="585" on="0"/>
        <pt x="542" y="547" on="0"/>
        <pt x="573" y="524" on="1"/>
        <pt x="533" y="337" on="1"/>
        <pt x="532" y="337" on="1"/>
        <pt x="501" y="359" on="0"/>
        <pt x="424" y="389" on="0"/>
        <pt x="386" y="389" on="1"/>
        <pt x="330" y="389" on="0"/>
        <pt x="262" y="322" on="0"/>
      </contour>
    </TTGlyph>
    <TTGlyph name="ccedilla.sc" xMin="16" yMin="-203" xMax="665" yMax="627">
      <contour>
        <pt x="424" y="627" on="1"/>
        <pt x="500" y="627" on="0"/>
        <pt x="630" y="589" on="0"/>
        <pt x="665" y="565" on="1"/>
        <pt x="622" y="365" on="1"/>
        <pt x="621" y="365" on="1"/>
        <pt x="580" y="391" on="0"/>
        <pt x="491" y="422" on="0"/>
        <pt x="442" y="422" on="1"/>
        <pt x="367" y="422" on="0"/>
        <pt x="284" y="339" on="0"/>
        <pt x="284" y="282" on="1"/>
        <pt x="284" y="232" on="0"/>
        <pt x="361" y="186" on="0"/>
        <pt x="427" y="186" on="1"/>
        <pt x="467" y="186" on="0"/>
        <pt x="547" y="201" on="0"/>
        <pt x="590" y="217" on="1"/>
        <pt x="591" y="217" on="1"/>
        <pt x="547" y="13" on="1"/>
        <pt x="522" y="3" on="0"/>
        <pt x="440" y="-16" on="0"/>
        <pt x="392" y="-18" on="1"/>
        <pt x="278" y="-203" on="1"/>
        <pt x="16" y="-203" on="1"/>
        <pt x="22" y="-177" on="1"/>
        <pt x="218" y="-2" on="1"/>
        <pt x="232" y="-2" on="1"/>
        <pt x="135" y="26" on="0"/>
        <pt x="38" y="161" on="0"/>
        <pt x="38" y="253" on="1"/>
        <pt x="38" y="341" on="0"/>
        <pt x="99" y="481" on="0"/>
        <pt x="203" y="577" on="0"/>
        <pt x="345" y="627" on="0"/>
      </contour>
    </TTGlyph>
    <TTGlyph name="cdotaccent" xMin="25" yMin="-21" xMax="573" yMax="842">
      <component glyphName="c" x="0" y="0" flags="0x204"/>
      <component glyphName="dotaccent" x="69" y="0" flags="0x4"/>
    </TTGlyph>
    <TTGlyph name="cdotaccent.sc" xMin="38" yMin="-19" xMax="665" yMax="905">
      <component glyphName="c.sc" x="0" y="0" flags="0x204"/>
      <component glyphName="dotaccent" x="140" y="63" flags="0x4"/>
    </TTGlyph>
    <TTGlyph name="cedilla" xMin="-83" yMin="-201" xMax="303" yMax="0">
      <contour>
        <pt x="303" y="0" on="1"/>
        <pt x="179" y="-201" on="1"/>
        <pt x="-83" y="-201" on="1"/>
        <pt x="-77" y="-175" on="1"/>
        <pt x="119" y="0" on="1"/>
      </contour>
    </TTGlyph>
    <TTGlyph name="cent" xMin="53" yMin="-43" xMax="572" yMax="723">
      <contour>
        <pt x="149" y="-43" on="1"/>
        <pt x="180" y="102" on="1"/>
        <pt x="123" y="127" on="0"/>
        <pt x="53" y="228" on="0"/>
        <pt x="53" y="304" on="1"/>
        <pt x="53" y="419" on="0"/>
        <pt x="179" y="583" on="0"/>
        <pt x="289" y="606" on="1"/>
        <pt x="314" y="723" on="1"/>
        <pt x="530" y="723" on="1"/>
        <pt x="502" y="593" on="1"/>
        <pt x="524" y="585" on="0"/>
        <pt x="559" y="566" on="0"/>
        <pt x="572" y="556" on="1"/>
        <pt x="536" y="389" on="1"/>
        <pt x="535" y="389" on="1"/>
        <pt x="507" y="411" on="0"/>
        <pt x="442" y="442" on="0"/>
        <pt x="396" y="442" on="1"/>
        <pt x="336" y="442" on="0"/>
        <pt x="265" y="379" on="0"/>
        <pt x="265" y="330" on="1"/>
        <pt x="265" y="284" on="0"/>
        <pt x="336" y="248" on="0"/>
        <pt x="379" y="248" on="1"/>
        <pt x="432" y="248" on="0"/>
        <pt x="483" y="265" on="0"/>
        <pt x="513" y="277" on="1"/>
        <pt x="514" y="277" on="1"/>
        <pt x="477" y="105" on="1"/>
        <pt x="463" y="97" on="0"/>
        <pt x="419" y="82" on="0"/>
        <pt x="391" y="78" on="1"/>
        <pt x="368" y="-30" on="1"/>
      </contour>
    </TTGlyph>
    <TTGlyph name="cent.tab" xMin="122" yMin="-43" xMax="655" yMax="723">
      <contour>
        <pt x="226" y="-43" on="1"/>
        <pt x="257" y="101" on="1"/>
        <pt x="197" y="126" on="0"/>
        <pt x="122" y="228" on="0"/>
        <pt x="122" y="306" on="1"/>
        <pt x="122" y="420" on="0"/>
        <pt x="253" y="584" on="0"/>
        <pt x="366" y="606" on="1"/>
        <pt x="391" y="723" on="1"/>
        <pt x="607" y="723" on="1"/>
        <pt x="579" y="592" on="1"/>
        <pt x="602" y="584" on="0"/>
        <pt x="641" y="562" on="0"/>
        <pt x="655" y="551" on="1"/>
        <pt x="619" y="384" on="1"/>
        <pt x="618" y="384" on="1"/>
        <pt x="589" y="409" on="0"/>
        <pt x="522" y="442" on="0"/>
        <pt x="473" y="442" on="1"/>
        <pt x="410" y="442" on="0"/>
        <pt x="334" y="381" on="0"/>
        <pt x="334" y="332" on="1"/>
        <pt x="334" y="308" on="0"/>
        <pt x="355" y="276" on="0"/>
        <pt x="389" y="256" on="0"/>
        <pt x="433" y="248" on="0"/>
        <pt x="456" y="248" on="1"/>
        <pt x="502" y="248" on="0"/>
        <pt x="567" y="268" on="0"/>
        <pt x="598" y="281" on="1"/>
        <pt x="599" y="281" on="1"/>
        <pt x="562" y="109" on="1"/>
        <pt x="546" y="100" on="0"/>
        <pt x="499" y="83" on="0"/>
        <pt x="468" y="79" on="1"/>
        <pt x="445" y="-30" on="1"/>
      </contour>
    </TTGlyph>
    <TTGlyph name="circle.checked" xMin="104" yMin="-46" xMax="974" yMax="746">
      <contour>
        <pt x="539" y="-46" on="1"/>
        <pt x="441" y="-46" on="0"/>
        <pt x="279" y="11" on="0"/>
        <pt x="166" y="113" on="0"/>
        <pt x="104" y="260" on="0"/>
        <pt x="104" y="350" on="1"/>
        <pt x="104" y="439" on="0"/>
        <pt x="166" y="586" on="0"/>
        <pt x="279" y="689" on="0"/>
        <pt x="441" y="746" on="0"/>
        <pt x="539" y="746" on="1"/>
        <pt x="638" y="746" on="0"/>
        <pt x="799" y="689" on="0"/>
        <pt x="912" y="587" on="0"/>
        <pt x="974" y="440" on="0"/>
        <pt x="974" y="350" on="1"/>
        <pt x="974" y="261" on="0"/>
        <pt x="912" y="114" on="0"/>
        <pt x="799" y="11" on="0"/>
        <pt x="637" y="-46" on="0"/>
      </contour>
      <contour>
        <pt x="539" y="168" on="1"/>
        <pt x="624" y="168" on="0"/>
        <pt x="731" y="271" on="0"/>
        <pt x="731" y="350" on="1"/>
        <pt x="731" y="429" on="0"/>
        <pt x="624" y="532" on="0"/>
        <pt x="539" y="532" on="1"/>
        <pt x="454" y="532" on="0"/>
        <pt x="347" y="429" on="0"/>
        <pt x="347" y="350" on="1"/>
        <pt x="347" y="271" on="0"/>
        <pt x="454" y="168" on="0"/>
      </contour>
      <contour>
        <pt x="539" y="233" on="1"/>
        <pt x="483" y="233" on="0"/>
        <pt x="414" y="299" on="0"/>
        <pt x="414" y="350" on="1"/>
        <pt x="414" y="401" on="0"/>
        <pt x="483" y="467" on="0"/>
        <pt x="539" y="467" on="1"/>
        <pt x="595" y="467" on="0"/>
        <pt x="664" y="401" on="0"/>
        <pt x="664" y="350" on="1"/>
        <pt x="664" y="299" on="0"/>
        <pt x="595" y="233" on="0"/>
      </contour>
    </TTGlyph>
    <TTGlyph name="circle.half" xMin="104" yMin="-46" xMax="974" yMax="746">
      <contour>
        <pt x="539" y="-46" on="1"/>
        <pt x="441" y="-46" on="0"/>
        <pt x="279" y="11" on="0"/>
        <pt x="166" y="113" on="0"/>
        <pt x="104" y="260" on="0"/>
        <pt x="104" y="350" on="1"/>
        <pt x="104" y="439" on="0"/>
        <pt x="166" y="586" on="0"/>
        <pt x="279" y="689" on="0"/>
        <pt x="441" y="746" on="0"/>
        <pt x="539" y="746" on="1"/>
        <pt x="638" y="746" on="0"/>
        <pt x="799" y="689" on="0"/>
        <pt x="912" y="587" on="0"/>
        <pt x="974" y="440" on="0"/>
        <pt x="974" y="350" on="1"/>
        <pt x="974" y="261" on="0"/>
        <pt x="912" y="114" on="0"/>
        <pt x="799" y="11" on="0"/>
        <pt x="637" y="-46" on="0"/>
      </contour>
      <contour>
        <pt x="514" y="158" on="1"/>
        <pt x="555" y="158" on="0"/>
        <pt x="629" y="183" on="0"/>
        <pt x="684" y="231" on="0"/>
        <pt x="717" y="303" on="0"/>
        <pt x="717" y="350" on="1"/>
        <pt x="717" y="397" on="0"/>
        <pt x="684" y="469" on="0"/>
        <pt x="629" y="517" on="0"/>
        <pt x="555" y="542" on="0"/>
        <pt x="514" y="542" on="1"/>
      </contour>
    </TTGlyph>
    <TTGlyph name="circle.open" xMin="104" yMin="-46" xMax="974" yMax="746">
      <contour>
        <pt x="539" y="-46" on="1"/>
        <pt x="441" y="-46" on="0"/>
        <pt x="279" y="11" on="0"/>
        <pt x="166" y="113" on="0"/>
        <pt x="104" y="260" on="0"/>
        <pt x="104" y="350" on="1"/>
        <pt x="104" y="439" on="0"/>
        <pt x="166" y="586" on="0"/>
        <pt x="279" y="689" on="0"/>
        <pt x="441" y="746" on="0"/>
        <pt x="539" y="746" on="1"/>
        <pt x="638" y="746" on="0"/>
        <pt x="799" y="689" on="0"/>
        <pt x="912" y="587" on="0"/>
        <pt x="974" y="440" on="0"/>
        <pt x="974" y="350" on="1"/>
        <pt x="974" y="261" on="0"/>
        <pt x="912" y="114" on="0"/>
        <pt x="799" y="11" on="0"/>
        <pt x="637" y="-46" on="0"/>
      </contour>
      <contour>
        <pt x="539" y="168" on="1"/>
        <pt x="620" y="168" on="0"/>
        <pt x="717" y="271" on="0"/>
        <pt x="717" y="350" on="1"/>
        <pt x="717" y="429" on="0"/>
        <pt x="620" y="532" on="0"/>
        <pt x="539" y="532" on="1"/>
        <pt x="458" y="532" on="0"/>
        <pt x="361" y="429" on="0"/>
        <pt x="361" y="350" on="1"/>
        <pt x="361" y="271" on="0"/>
        <pt x="458" y="168" on="0"/>
      </contour>
    </TTGlyph>
    <TTGlyph name="circle.solid" xMin="104" yMin="-46" xMax="974" yMax="746">
      <contour>
        <pt x="539" y="-46" on="1"/>
        <pt x="441" y="-46" on="0"/>
        <pt x="279" y="11" on="0"/>
        <pt x="166" y="113" on="0"/>
        <pt x="104" y="260" on="0"/>
        <pt x="104" y="350" on="1"/>
        <pt x="104" y="439" on="0"/>
        <pt x="166" y="586" on="0"/>
        <pt x="279" y="689" on="0"/>
        <pt x="441" y="746" on="0"/>
        <pt x="539" y="746" on="1"/>
        <pt x="638" y="746" on="0"/>
        <pt x="799" y="689" on="0"/>
        <pt x="912" y="587" on="0"/>
        <pt x="974" y="440" on="0"/>
        <pt x="974" y="350" on="1"/>
        <pt x="974" y="261" on="0"/>
        <pt x="912" y="114" on="0"/>
        <pt x="799" y="11" on="0"/>
        <pt x="637" y="-46" on="0"/>
      </contour>
    </TTGlyph>
    <TTGlyph name="circumflex" xMin="65" yMin="630" xMax="583" yMax="839">
      <contour>
        <pt x="65" y="630" on="1"/>
        <pt x="240" y="839" on="1"/>
        <pt x="496" y="839" on="1"/>
        <pt x="583" y="630" on="1"/>
        <pt x="397" y="630" on="1"/>
        <pt x="369" y="706" on="1"/>
        <pt x="332" y="706" on="1"/>
        <pt x="269" y="630" on="1"/>
      </contour>
    </TTGlyph>
    <TTGlyph name="colon" xMin="38" yMin="-11" xMax="381" yMax="568">
      <component glyphName="period" x="8" y="0" flags="0x4"/>
      <component glyphName="period" x="82" y="336" flags="0x4"/>
    </TTGlyph>
    <TTGlyph name="colon.fig" xMin="53" yMin="60" xMax="396" yMax="639">
      <component glyphName="colon" x="15" y="71" flags="0x4"/>
    </TTGlyph>
    <TTGlyph name="colon.tab" xMin="10" yMin="-11" xMax="353" yMax="568">
      <component glyphName="colon" x="-28" y="0" flags="0x4"/>
    </TTGlyph>
    <TTGlyph name="colonmonetary" xMin="26" yMin="-110" xMax="791" yMax="805">
      <contour>
        <pt x="471" y="515" on="1"/>
        <pt x="427" y="515" on="0"/>
        <pt x="358" y="485" on="0"/>
        <pt x="310" y="433" on="0"/>
        <pt x="284" y="363" on="0"/>
        <pt x="284" y="323" on="1"/>
        <pt x="284" y="285" on="0"/>
        <pt x="310" y="231" on="0"/>
        <pt x="354" y="199" on="0"/>
        <pt x="414" y="184" on="0"/>
        <pt x="446" y="184" on="1"/>
        <pt x="484" y="184" on="0"/>
        <pt x="558" y="204" on="0"/>
        <pt x="593" y="217" on="1"/>
        <pt x="594" y="217" on="1"/>
        <pt x="550" y="11" on="1"/>
        <pt x="527" y="0" on="0"/>
        <pt x="451" y="-18" on="0"/>
        <pt x="405" y="-19" on="1"/>
        <pt x="364" y="-110" on="1"/>
        <pt x="221" y="-110" on="1"/>
        <pt x="269" y="-6" on="1"/>
        <pt x="257" y="-3" on="0"/>
        <pt x="234" y="4" on="0"/>
        <pt x="224" y="8" on="1"/>
        <pt x="169" y="-110" on="1"/>
        <pt x="26" y="-110" on="1"/>
        <pt x="114" y="81" on="1"/>
        <pt x="75" y="122" on="0"/>
        <pt x="31" y="237" on="0"/>
        <pt x="31" y="309" on="1"/>
        <pt x="31" y="397" on="0"/>
        <pt x="89" y="543" on="0"/>
        <pt x="191" y="649" on="0"/>
        <pt x="331" y="713" on="0"/>
        <pt x="413" y="719" on="1"/>
        <pt x="453" y="805" on="1"/>
        <pt x="596" y="805" on="1"/>
        <pt x="552" y="710" on="1"/>
        <pt x="565" y="708" on="0"/>
        <pt x="589" y="702" on="0"/>
        <pt x="599" y="698" on="1"/>
        <pt x="648" y="805" on="1"/>
        <pt x="791" y="805" on="1"/>
        <pt x="632" y="465" on="1"/>
        <pt x="596" y="486" on="0"/>
        <pt x="514" y="515" on="0"/>
      </contour>
    </TTGlyph>
    <TTGlyph name="comma" xMin="-40" yMin="-179" xMax="327" yMax="192">
      <contour>
        <pt x="83" y="192" on="1"/>
        <pt x="327" y="192" on="1"/>
        <pt x="327" y="125" on="1"/>
        <pt x="96" y="-179" on="1"/>
        <pt x="-40" y="-179" on="1"/>
      </contour>
    </TTGlyph>
    <TTGlyph name="comma.tab" xMin="-65" yMin="-179" xMax="302" yMax="192">
      <component glyphName="comma" x="-25" y="0" flags="0x4"/>
    </TTGlyph>
    <TTGlyph name="copyright" xMin="57" yMin="-76" xMax="999" yMax="786">
      <contour>
        <pt x="528" y="-76" on="1"/>
        <pt x="424" y="-76" on="0"/>
        <pt x="250" y="-16" on="0"/>
        <pt x="126" y="94" on="0"/>
        <pt x="57" y="255" on="0"/>
        <pt x="57" y="355" on="1"/>
        <pt x="57" y="455" on="0"/>
        <pt x="126" y="616" on="0"/>
        <pt x="250" y="726" on="0"/>
        <pt x="424" y="786" on="0"/>
        <pt x="528" y="786" on="1"/>
        <pt x="632" y="786" on="0"/>
        <pt x="806" y="726" on="0"/>
        <pt x="930" y="616" on="0"/>
        <pt x="999" y="455" on="0"/>
        <pt x="999" y="355" on="1"/>
        <pt x="999" y="255" on="0"/>
        <pt x="930" y="94" on="0"/>
        <pt x="806" y="-16" on="0"/>
        <pt x="632" y="-76" on="0"/>
      </contour>
      <contour>
        <pt x="528" y="60" on="1"/>
        <pt x="675" y="60" on="0"/>
        <pt x="837" y="210" on="0"/>
        <pt x="837" y="355" on="1"/>
        <pt x="837" y="500" on="0"/>
        <pt x="675" y="650" on="0"/>
        <pt x="528" y="650" on="1"/>
        <pt x="381" y="650" on="0"/>
        <pt x="219" y="500" on="0"/>
        <pt x="219" y="355" on="1"/>
        <pt x="219" y="210" on="0"/>
        <pt x="381" y="60" on="0"/>
      </contour>
      <contour>
        <pt x="551" y="165" on="1"/>
        <pt x="455" y="165" on="0"/>
        <pt x="335" y="260" on="0"/>
        <pt x="335" y="354" on="1"/>
        <pt x="335" y="401" on="0"/>
        <pt x="367" y="473" on="0"/>
        <pt x="425" y="521" on="0"/>
        <pt x="504" y="545" on="0"/>
        <pt x="550" y="545" on="1"/>
        <pt x="594" y="545" on="0"/>
        <pt x="660" y="528" on="0"/>
        <pt x="688" y="515" on="1"/>
        <pt x="688" y="389" on="1"/>
        <pt x="686" y="389" on="1"/>
        <pt x="655" y="406" on="0"/>
        <pt x="600" y="421" on="0"/>
        <pt x="572" y="421" on="1"/>
        <pt x="537" y="421" on="0"/>
        <pt x="489" y="389" on="0"/>
        <pt x="489" y="356" on="1"/>
        <pt x="489" y="321" on="0"/>
        <pt x="539" y="291" on="0"/>
        <pt x="572" y="291" on="1"/>
        <pt x="601" y="291" on="0"/>
        <pt x="657" y="307" on="0"/>
        <pt x="686" y="324" on="1"/>
        <pt x="688" y="324" on="1"/>
        <pt x="688" y="195" on="1"/>
        <pt x="666" y="184" on="0"/>
        <pt x="594" y="165" on="0"/>
      </contour>
    </TTGlyph>
    <TTGlyph name="d" xMin="20" yMin="-20" xMax="771" yMax="792">
      <contour>
        <pt x="206" y="-20" on="1"/>
        <pt x="169" y="-20" on="0"/>
        <pt x="101" y="7" on="0"/>
        <pt x="50" y="61" on="0"/>
        <pt x="20" y="144" on="0"/>
        <pt x="20" y="199" on="1"/>
        <pt x="20" y="283" on="0"/>
        <pt x="67" y="423" on="0"/>
        <pt x="149" y="523" on="0"/>
        <pt x="265" y="579" on="0"/>
        <pt x="334" y="579" on="1"/>
        <pt x="376" y="579" on="0"/>
        <pt x="443" y="562" on="0"/>
        <pt x="468" y="547" on="1"/>
        <pt x="520" y="792" on="1"/>
        <pt x="771" y="792" on="1"/>
        <pt x="603" y="0" on="1"/>
        <pt x="359" y="0" on="1"/>
        <pt x="371" y="65" on="1"/>
        <pt x="344" y="29" on="0"/>
        <pt x="261" y="-20" on="0"/>
      </contour>
      <contour>
        <pt x="315" y="170" on="1"/>
        <pt x="338" y="170" on="0"/>
        <pt x="379" y="188" on="0"/>
        <pt x="395" y="201" on="1"/>
        <pt x="431" y="374" on="1"/>
        <pt x="418" y="384" on="0"/>
        <pt x="386" y="395" on="0"/>
        <pt x="369" y="395" on="1"/>
        <pt x="344" y="395" on="0"/>
        <pt x="303" y="368" on="0"/>
        <pt x="275" y="325" on="0"/>
        <pt x="260" y="269" on="0"/>
        <pt x="260" y="240" on="1"/>
        <pt x="260" y="202" on="0"/>
        <pt x="290" y="170" on="0"/>
      </contour>
    </TTGlyph>
    <TTGlyph name="d.sc" xMin="6" yMin="0" xMax="744" yMax="608">
      <contour>
        <pt x="6" y="0" on="1"/>
        <pt x="135" y="608" on="1"/>
        <pt x="407" y="608" on="1"/>
        <pt x="576" y="608" on="0"/>
        <pt x="744" y="470" on="0"/>
        <pt x="744" y="354" on="1"/>
        <pt x="744" y="289" on="0"/>
        <pt x="703" y="161" on="0"/>
        <pt x="605" y="62" on="0"/>
        <pt x="440" y="0" on="0"/>
        <pt x="317" y="0" on="1"/>
      </contour>
      <contour>
        <pt x="496" y="333" on="1"/>
        <pt x="496" y="384" on="0"/>
        <pt x="433" y="421" on="0"/>
        <pt x="379" y="421" on="1"/>
        <pt x="346" y="421" on="1"/>
        <pt x="296" y="187" on="1"/>
        <pt x="347" y="187" on="1"/>
        <pt x="424" y="187" on="0"/>
        <pt x="496" y="273" on="0"/>
      </contour>
    </TTGlyph>
    <TTGlyph name="dagger" xMin="67" yMin="168" xMax="550" yMax="700">
      <contour>
        <pt x="147" y="168" on="1"/>
        <pt x="203" y="430" on="1"/>
        <pt x="67" y="430" on="1"/>
        <pt x="114" y="581" on="1"/>
        <pt x="236" y="581" on="1"/>
        <pt x="261" y="700" on="1"/>
        <pt x="445" y="700" on="1"/>
        <pt x="420" y="581" on="1"/>
        <pt x="550" y="581" on="1"/>
        <pt x="516" y="430" on="1"/>
        <pt x="387" y="430" on="1"/>
        <pt x="331" y="168" on="1"/>
      </contour>
    </TTGlyph>
    <TTGlyph name="daggerdbl" xMin="28" yMin="101" xMax="560" yMax="700">
      <contour>
        <pt x="138" y="101" on="1"/>
        <pt x="163" y="218" on="1"/>
        <pt x="28" y="218" on="1"/>
        <pt x="57" y="352" on="1"/>
        <pt x="192" y="352" on="1"/>
        <pt x="212" y="449" on="1"/>
        <pt x="71" y="449" on="1"/>
        <pt x="112" y="583" on="1"/>
        <pt x="241" y="583" on="1"/>
        <pt x="266" y="700" on="1"/>
        <pt x="450" y="700" on="1"/>
        <pt x="425" y="583" on="1"/>
        <pt x="560" y="583" on="1"/>
        <pt x="531" y="449" on="1"/>
        <pt x="396" y="449" on="1"/>
        <pt x="376" y="352" on="1"/>
        <pt x="517" y="352" on="1"/>
        <pt x="476" y="218" on="1"/>
        <pt x="347" y="218" on="1"/>
        <pt x="322" y="101" on="1"/>
      </contour>
    </TTGlyph>
    <TTGlyph name="dcaron" xMin="20" yMin="-20" xMax="1045" yMax="792">
      <component glyphName="d" x="0" y="0" flags="0x204"/>
      <component glyphName="caron.alt" x="540" y="0" flags="0x4"/>
    </TTGlyph>
    <TTGlyph name="dcaron.sc" xMin="6" yMin="0" xMax="783" yMax="883">
      <component glyphName="d.sc" x="0" y="0" flags="0x204"/>
      <component glyphName="caron" x="156" y="44" flags="0x4"/>
    </TTGlyph>
    <TTGlyph name="dcroat" xMin="20" yMin="-20" xMax="830" yMax="792">
      <contour>
        <pt x="206" y="-20" on="1"/>
        <pt x="169" y="-20" on="0"/>
        <pt x="101" y="6" on="0"/>
        <pt x="50" y="57" on="0"/>
        <pt x="20" y="132" on="0"/>
        <pt x="20" y="180" on="1"/>
        <pt x="20" y="257" on="0"/>
        <pt x="64" y="390" on="0"/>
        <pt x="144" y="487" on="0"/>
        <pt x="257" y="542" on="0"/>
        <pt x="326" y="542" on="1"/>
        <pt x="369" y="542" on="0"/>
        <pt x="435" y="525" on="0"/>
        <pt x="460" y="510" on="1"/>
        <pt x="476" y="583" on="1"/>
        <pt x="323" y="583" on="1"/>
        <pt x="350" y="710" on="1"/>
        <pt x="503" y="710" on="1"/>
        <pt x="520" y="792" on="1"/>
        <pt x="771" y="792" on="1"/>
        <pt x="754" y="710" on="1"/>
        <pt x="830" y="710" on="1"/>
        <pt x="818" y="583" on="1"/>
        <pt x="727" y="583" on="1"/>
        <pt x="603" y="0" on="1"/>
        <pt x="359" y="0" on="1"/>
        <pt x="371" y="65" on="1"/>
        <pt x="344" y="29" on="0"/>
        <pt x="261" y="-20" on="0"/>
      </contour>
      <contour>
        <pt x="315" y="170" on="1"/>
        <pt x="338" y="170" on="0"/>
        <pt x="379" y="188" on="0"/>
        <pt x="395" y="201" on="1"/>
        <pt x="423" y="336" on="1"/>
        <pt x="408" y="347" on="0"/>
        <pt x="373" y="358" on="0"/>
        <pt x="355" y="358" on="1"/>
        <pt x="330" y="358" on="0"/>
        <pt x="293" y="333" on="0"/>
        <pt x="271" y="296" on="0"/>
        <pt x="260" y="254" on="0"/>
        <pt x="260" y="237" on="1"/>
        <pt x="260" y="201" on="0"/>
        <pt x="290" y="170" on="0"/>
      </contour>
    </TTGlyph>
    <TTGlyph name="dcroat.sc" xMin="6" yMin="0" xMax="793" yMax="608">
      <component glyphName="eth.sc" x="0" y="0" flags="0x204"/>
    </TTGlyph>
    <TTGlyph name="degree" xMin="81" yMin="266" xMax="584" yMax="726">
      <contour>
        <pt x="348" y="726" on="1"/>
        <pt x="462" y="726" on="0"/>
        <pt x="584" y="611" on="0"/>
        <pt x="584" y="518" on="1"/>
        <pt x="584" y="467" on="0"/>
        <pt x="551" y="375" on="0"/>
        <pt x="485" y="307" on="0"/>
        <pt x="384" y="266" on="0"/>
        <pt x="317" y="266" on="1"/>
        <pt x="203" y="266" on="0"/>
        <pt x="81" y="381" on="0"/>
        <pt x="81" y="474" on="1"/>
        <pt x="81" y="525" on="0"/>
        <pt x="114" y="617" on="0"/>
        <pt x="180" y="685" on="0"/>
        <pt x="281" y="726" on="0"/>
      </contour>
      <contour>
        <pt x="327" y="413" on="1"/>
        <pt x="372" y="413" on="0"/>
        <pt x="414" y="471" on="0"/>
        <pt x="414" y="506" on="1"/>
        <pt x="414" y="540" on="0"/>
        <pt x="375" y="579" on="0"/>
        <pt x="338" y="579" on="1"/>
        <pt x="293" y="579" on="0"/>
        <pt x="251" y="521" on="0"/>
        <pt x="251" y="486" on="1"/>
        <pt x="251" y="452" on="0"/>
        <pt x="290" y="413" on="0"/>
      </contour>
    </TTGlyph>
    <TTGlyph name="degree.tab" xMin="110" yMin="266" xMax="613" yMax="726">
      <component glyphName="degree" x="29" y="0" flags="0x4"/>
    </TTGlyph>
    <TTGlyph name="dieresis" xMin="88" yMin="625" xMax="600" yMax="840">
      <contour>
        <pt x="321" y="742" on="1"/>
        <pt x="321" y="693" on="0"/>
        <pt x="255" y="625" on="0"/>
        <pt x="195" y="625" on="1"/>
        <pt x="141" y="625" on="0"/>
        <pt x="88" y="681" on="0"/>
        <pt x="88" y="724" on="1"/>
        <pt x="88" y="773" on="0"/>
        <pt x="154" y="840" on="0"/>
        <pt x="214" y="840" on="1"/>
        <pt x="268" y="840" on="0"/>
        <pt x="321" y="785" on="0"/>
      </contour>
      <contour>
        <pt x="600" y="742" on="1"/>
        <pt x="600" y="693" on="0"/>
        <pt x="534" y="625" on="0"/>
        <pt x="474" y="625" on="1"/>
        <pt x="420" y="625" on="0"/>
        <pt x="367" y="681" on="0"/>
        <pt x="367" y="724" on="1"/>
        <pt x="367" y="773" on="0"/>
        <pt x="433" y="840" on="0"/>
        <pt x="493" y="840" on="1"/>
        <pt x="547" y="840" on="0"/>
        <pt x="600" y="785" on="0"/>
      </contour>
    </TTGlyph>
    <TTGlyph name="divide" xMin="60" yMin="16" xMax="705" yMax="686">
      <contour>
        <pt x="438" y="686" on="1"/>
        <pt x="494" y="686" on="0"/>
        <pt x="552" y="633" on="0"/>
        <pt x="552" y="593" on="1"/>
        <pt x="552" y="547" on="0"/>
        <pt x="483" y="479" on="0"/>
        <pt x="422" y="479" on="1"/>
        <pt x="366" y="479" on="0"/>
        <pt x="308" y="532" on="0"/>
        <pt x="308" y="572" on="1"/>
        <pt x="308" y="618" on="0"/>
        <pt x="377" y="686" on="0"/>
      </contour>
      <contour>
        <pt x="705" y="439" on="1"/>
        <pt x="668" y="263" on="1"/>
        <pt x="60" y="263" on="1"/>
        <pt x="97" y="439" on="1"/>
      </contour>
      <contour>
        <pt x="213" y="109" on="1"/>
        <pt x="213" y="155" on="0"/>
        <pt x="282" y="223" on="0"/>
        <pt x="343" y="223" on="1"/>
        <pt x="399" y="223" on="0"/>
        <pt x="457" y="170" on="0"/>
        <pt x="457" y="130" on="1"/>
        <pt x="457" y="84" on="0"/>
        <pt x="388" y="16" on="0"/>
        <pt x="327" y="16" on="1"/>
        <pt x="271" y="16" on="0"/>
        <pt x="213" y="69" on="0"/>
      </contour>
    </TTGlyph>
    <TTGlyph name="divide.tab" xMin="54" yMin="16" xMax="699" yMax="686">
      <component glyphName="divide" x="-6" y="0" flags="0x4"/>
    </TTGlyph>
    <TTGlyph name="dollar" xMin="31" yMin="-120" xMax="698" yMax="805">
      <contour>
        <pt x="176" y="-120" on="1"/>
        <pt x="207" y="26" on="1"/>
        <pt x="158" y="37" on="0"/>
        <pt x="71" y="72" on="0"/>
        <pt x="31" y="95" on="1"/>
        <pt x="71" y="282" on="1"/>
        <pt x="72" y="282" on="1"/>
        <pt x="144" y="236" on="0"/>
        <pt x="294" y="184" on="0"/>
        <pt x="359" y="184" on="1"/>
        <pt x="402" y="184" on="0"/>
        <pt x="433" y="203" on="0"/>
        <pt x="433" y="219" on="1"/>
        <pt x="433" y="235" on="0"/>
        <pt x="391" y="256" on="0"/>
        <pt x="322" y="275" on="1"/>
        <pt x="225" y="303" on="0"/>
        <pt x="113" y="382" on="0"/>
        <pt x="113" y="465" on="1"/>
        <pt x="113" y="504" on="0"/>
        <pt x="139" y="576" on="0"/>
        <pt x="193" y="635" on="0"/>
        <pt x="278" y="677" on="0"/>
        <pt x="336" y="686" on="1"/>
        <pt x="361" y="805" on="1"/>
        <pt x="585" y="805" on="1"/>
        <pt x="558" y="674" on="1"/>
        <pt x="596" y="664" on="0"/>
        <pt x="667" y="637" on="0"/>
        <pt x="698" y="619" on="1"/>
        <pt x="658" y="434" on="1"/>
        <pt x="657" y="434" on="1"/>
        <pt x="632" y="451" on="0"/>
        <pt x="570" y="481" on="0"/>
        <pt x="504" y="503" on="0"/>
        <pt x="437" y="516" on="0"/>
        <pt x="408" y="516" on="1"/>
        <pt x="371" y="516" on="0"/>
        <pt x="339" y="499" on="0"/>
        <pt x="339" y="483" on="1"/>
        <pt x="339" y="467" on="0"/>
        <pt x="379" y="451" on="0"/>
        <pt x="436" y="434" on="1"/>
        <pt x="542" y="403" on="0"/>
        <pt x="655" y="320" on="0"/>
        <pt x="655" y="236" on="1"/>
        <pt x="655" y="140" on="0"/>
        <pt x="535" y="25" on="0"/>
        <pt x="428" y="12" on="1"/>
        <pt x="403" y="-106" on="1"/>
      </contour>
    </TTGlyph>
    <TTGlyph name="dollar.tab" xMin="39" yMin="-120" xMax="700" yMax="805">
      <contour>
        <pt x="181" y="-120" on="1"/>
        <pt x="212" y="26" on="1"/>
        <pt x="165" y="37" on="0"/>
        <pt x="79" y="72" on="0"/>
        <pt x="39" y="95" on="1"/>
        <pt x="79" y="282" on="1"/>
        <pt x="80" y="282" on="1"/>
        <pt x="152" y="236" on="0"/>
        <pt x="300" y="184" on="0"/>
        <pt x="364" y="184" on="1"/>
        <pt x="405" y="184" on="0"/>
        <pt x="435" y="203" on="0"/>
        <pt x="435" y="219" on="1"/>
        <pt x="435" y="235" on="0"/>
        <pt x="394" y="256" on="0"/>
        <pt x="327" y="275" on="1"/>
        <pt x="231" y="303" on="0"/>
        <pt x="121" y="382" on="0"/>
        <pt x="121" y="465" on="1"/>
        <pt x="121" y="504" on="0"/>
        <pt x="147" y="576" on="0"/>
        <pt x="200" y="635" on="0"/>
        <pt x="284" y="677" on="0"/>
        <pt x="341" y="686" on="1"/>
        <pt x="366" y="805" on="1"/>
        <pt x="590" y="805" on="1"/>
        <pt x="563" y="674" on="1"/>
        <pt x="600" y="664" on="0"/>
        <pt x="670" y="637" on="0"/>
        <pt x="700" y="619" on="1"/>
        <pt x="660" y="434" on="1"/>
        <pt x="659" y="434" on="1"/>
        <pt x="635" y="451" on="0"/>
        <pt x="573" y="481" on="0"/>
        <pt x="507" y="503" on="0"/>
        <pt x="441" y="516" on="0"/>
        <pt x="413" y="516" on="1"/>
        <pt x="378" y="516" on="0"/>
        <pt x="347" y="499" on="0"/>
        <pt x="347" y="483" on="1"/>
        <pt x="347" y="467" on="0"/>
        <pt x="385" y="451" on="0"/>
        <pt x="441" y="434" on="1"/>
        <pt x="545" y="403" on="0"/>
        <pt x="657" y="320" on="0"/>
        <pt x="657" y="236" on="1"/>
        <pt x="657" y="140" on="0"/>
        <pt x="538" y="26" on="0"/>
        <pt x="433" y="13" on="1"/>
        <pt x="408" y="-106" on="1"/>
      </contour>
    </TTGlyph>
    <TTGlyph name="dotaccent" xMin="203" yMin="622" xMax="488" yMax="842">
      <contour>
        <pt x="203" y="721" on="1"/>
        <pt x="203" y="773" on="0"/>
        <pt x="283" y="842" on="0"/>
        <pt x="357" y="842" on="1"/>
        <pt x="420" y="842" on="0"/>
        <pt x="488" y="788" on="0"/>
        <pt x="488" y="742" on="1"/>
        <pt x="488" y="688" on="0"/>
        <pt x="406" y="622" on="0"/>
        <pt x="334" y="622" on="1"/>
        <pt x="269" y="622" on="0"/>
        <pt x="203" y="675" on="0"/>
      </contour>
    </TTGlyph>
    <TTGlyph name="dotlessi" xMin="-4" yMin="0" xMax="367" yMax="564">
      <contour>
        <pt x="116" y="564" on="1"/>
        <pt x="367" y="564" on="1"/>
        <pt x="247" y="0" on="1"/>
        <pt x="-4" y="0" on="1"/>
      </contour>
    </TTGlyph>
    <TTGlyph name="dotlessi.sc" xMin="7" yMin="0" xMax="387" yMax="608">
      <component glyphName="i.sc" x="0" y="0" flags="0x204"/>
    </TTGlyph>
    <TTGlyph name="dotmath" xMin="83" yMin="228" xMax="352" yMax="471">
      <component glyphName="period" x="53" y="239" flags="0x4"/>
    </TTGlyph>
    <TTGlyph name="dotmath.tab" xMin="61" yMin="228" xMax="330" yMax="471">
      <component glyphName="dotmath" x="-22" y="0" flags="0x4"/>
    </TTGlyph>
    <TTGlyph name="e" xMin="26" yMin="-21" xMax="622" yMax="588">
      <contour>
        <pt x="374" y="160" on="1"/>
        <pt x="425" y="160" on="0"/>
        <pt x="527" y="186" on="0"/>
        <pt x="564" y="199" on="1"/>
        <pt x="565" y="199" on="1"/>
        <pt x="525" y="17" on="1"/>
        <pt x="485" y="-1" on="0"/>
        <pt x="385" y="-21" on="0"/>
        <pt x="329" y="-21" on="1"/>
        <pt x="252" y="-21" on="0"/>
        <pt x="138" y="18" on="0"/>
        <pt x="63" y="87" on="0"/>
        <pt x="26" y="184" on="0"/>
        <pt x="26" y="241" on="1"/>
        <pt x="26" y="307" on="0"/>
        <pt x="70" y="433" on="0"/>
        <pt x="155" y="529" on="0"/>
        <pt x="281" y="588" on="0"/>
        <pt x="362" y="588" on="1"/>
        <pt x="428" y="588" on="0"/>
        <pt x="527" y="549" on="0"/>
        <pt x="591" y="482" on="0"/>
        <pt x="622" y="390" on="0"/>
        <pt x="622" y="337" on="1"/>
        <pt x="622" y="310" on="0"/>
        <pt x="611" y="255" on="0"/>
        <pt x="604" y="233" on="1"/>
        <pt x="254" y="233" on="1"/>
        <pt x="258" y="196" on="0"/>
        <pt x="317" y="160" on="0"/>
      </contour>
      <contour>
        <pt x="354" y="418" on="1"/>
        <pt x="320" y="418" on="0"/>
        <pt x="272" y="367" on="0"/>
        <pt x="262" y="330" on="1"/>
        <pt x="408" y="330" on="1"/>
        <pt x="409" y="335" on="0"/>
        <pt x="410" y="345" on="0"/>
        <pt x="410" y="349" on="1"/>
        <pt x="410" y="377" on="0"/>
        <pt x="384" y="418" on="0"/>
      </contour>
    </TTGlyph>
    <TTGlyph name="e.sc" xMin="6" yMin="0" xMax="664" yMax="608">
      <contour>
        <pt x="6" y="0" on="1"/>
        <pt x="135" y="608" on="1"/>
        <pt x="664" y="608" on="1"/>
        <pt x="647" y="436" on="1"/>
        <pt x="348" y="436" on="1"/>
        <pt x="334" y="371" on="1"/>
        <pt x="561" y="371" on="1"/>
        <pt x="532" y="234" on="1"/>
        <pt x="305" y="234" on="1"/>
        <pt x="292" y="172" on="1"/>
        <pt x="598" y="172" on="1"/>
        <pt x="545" y="0" on="1"/>
      </contour>
    </TTGlyph>
    <TTGlyph name="eacute" xMin="26" yMin="-21" xMax="693" yMax="821">
      <component glyphName="e" x="0" y="0" flags="0x204"/>
      <component glyphName="acute" x="108" y="0" flags="0x4"/>
    </TTGlyph>
    <TTGlyph name="eacute.sc" xMin="6" yMin="0" xMax="702" yMax="865">
      <component glyphName="e.sc" x="0" y="0" flags="0x204"/>
      <component glyphName="acute" x="117" y="44" flags="0x4"/>
    </TTGlyph>
    <TTGlyph name="ebreve" xMin="26" yMin="-21" xMax="663" yMax="857">
      <component glyphName="e" x="0" y="0" flags="0x204"/>
      <component glyphName="breve" x="75" y="0" flags="0x4"/>
    </TTGlyph>
    <TTGlyph name="ebreve.sc" xMin="6" yMin="0" xMax="672" yMax="901">
      <component glyphName="e.sc" x="0" y="0" flags="0x204"/>
      <component glyphName="breve" x="84" y="44" flags="0x4"/>
    </TTGlyph>
    <TTGlyph name="ecaron" xMin="26" yMin="-21" xMax="713" yMax="839">
      <component glyphName="e" x="0" y="0" flags="0x204"/>
      <component glyphName="caron" x="86" y="0" flags="0x4"/>
    </TTGlyph>
    <TTGlyph name="ecaron.sc" xMin="6" yMin="0" xMax="722" yMax="883">
      <component glyphName="e.sc" x="0" y="0" flags="0x204"/>
      <component glyphName="caron" x="95" y="44" flags="0x4"/>
    </TTGlyph>
    <TTGlyph name="ecircumflex" xMin="26" yMin="-21" xMax="644" yMax="839">
      <component glyphName="e" x="0" y="0" flags="0x204"/>
      <component glyphName="circumflex" x="61" y="0" flags="0x4"/>
    </TTGlyph>
    <TTGlyph name="ecircumflex.sc" xMin="6" yMin="0" xMax="664" yMax="883">
      <component glyphName="e.sc" x="0" y="0" flags="0x204"/>
      <component glyphName="circumflex" x="70" y="44" flags="0x4"/>
    </TTGlyph>
    <TTGlyph name="edieresis" xMin="26" yMin="-21" xMax="690" yMax="840">
      <component glyphName="e" x="0" y="0" flags="0x204"/>
      <component glyphName="dieresis" x="90" y="0" flags="0x4"/>
    </TTGlyph>
    <TTGlyph name="edieresis.sc" xMin="6" yMin="0" xMax="700" yMax="884">
      <component glyphName="e.sc" x="0" y="0" flags="0x204"/>
      <component glyphName="dieresis" x="100" y="44" flags="0x4"/>
    </TTGlyph>
    <TTGlyph name="edotaccent" xMin="26" yMin="-21" xMax="622" yMax="842">
      <component glyphName="e" x="0" y="0" flags="0x204"/>
      <component glyphName="dotaccent" x="80" y="0" flags="0x4"/>
    </TTGlyph>
    <TTGlyph name="edotaccent.sc" xMin="6" yMin="0" xMax="664" yMax="886">
      <component glyphName="e.sc" x="0" y="0" flags="0x204"/>
      <component glyphName="dotaccent" x="89" y="44" flags="0x4"/>
    </TTGlyph>
    <TTGlyph name="egrave" xMin="26" yMin="-21" xMax="622" yMax="825">
      <component glyphName="e" x="0" y="0" flags="0x204"/>
      <component glyphName="grave" x="3" y="0" flags="0x4"/>
    </TTGlyph>
    <TTGlyph name="egrave.sc" xMin="6" yMin="0" xMax="664" yMax="869">
      <component glyphName="e.sc" x="0" y="0" flags="0x204"/>
      <component glyphName="grave" x="12" y="44" flags="0x4"/>
    </TTGlyph>
    <TTGlyph name="eight" xMin="7" yMin="-24" xMax="733" yMax="725">
      <contour>
        <pt x="332" y="-24" on="1"/>
        <pt x="169" y="-24" on="0"/>
        <pt x="7" y="82" on="0"/>
        <pt x="7" y="171" on="1"/>
        <pt x="7" y="239" on="0"/>
        <pt x="103" y="347" on="0"/>
        <pt x="187" y="364" on="1"/>
        <pt x="144" y="383" on="0"/>
        <pt x="93" y="456" on="0"/>
        <pt x="93" y="502" on="1"/>
        <pt x="93" y="545" on="0"/>
        <pt x="132" y="626" on="0"/>
        <pt x="213" y="688" on="0"/>
        <pt x="340" y="725" on="0"/>
        <pt x="428" y="725" on="1"/>
        <pt x="507" y="725" on="0"/>
        <pt x="623" y="693" on="0"/>
        <pt x="697" y="638" on="0"/>
        <pt x="733" y="564" on="0"/>
        <pt x="733" y="523" on="1"/>
        <pt x="733" y="453" on="0"/>
        <pt x="639" y="360" on="0"/>
        <pt x="573" y="347" on="1"/>
        <pt x="624" y="327" on="0"/>
        <pt x="682" y="252" on="0"/>
        <pt x="682" y="201" on="1"/>
        <pt x="682" y="157" on="0"/>
        <pt x="642" y="75" on="0"/>
        <pt x="558" y="13" on="0"/>
        <pt x="425" y="-24" on="0"/>
      </contour>
      <contour>
        <pt x="406" y="420" on="1"/>
        <pt x="457" y="420" on="0"/>
        <pt x="507" y="462" on="0"/>
        <pt x="507" y="492" on="1"/>
        <pt x="507" y="520" on="0"/>
        <pt x="464" y="549" on="0"/>
        <pt x="421" y="549" on="1"/>
        <pt x="370" y="549" on="0"/>
        <pt x="320" y="507" on="0"/>
        <pt x="320" y="477" on="1"/>
        <pt x="320" y="449" on="0"/>
        <pt x="363" y="420" on="0"/>
      </contour>
      <contour>
        <pt x="349" y="287" on="1"/>
        <pt x="291" y="287" on="0"/>
        <pt x="242" y="243" on="0"/>
        <pt x="242" y="213" on="1"/>
        <pt x="242" y="185" on="0"/>
        <pt x="290" y="154" on="0"/>
        <pt x="334" y="154" on="1"/>
        <pt x="392" y="154" on="0"/>
        <pt x="447" y="193" on="0"/>
        <pt x="447" y="227" on="1"/>
        <pt x="447" y="256" on="0"/>
        <pt x="398" y="287" on="0"/>
      </contour>
    </TTGlyph>
    <TTGlyph name="eight.den" xMin="-28" yMin="-15" xMax="412" yMax="443">
      <component glyphName="eight.small" x="-5" y="0" flags="0x4"/>
    </TTGlyph>
    <TTGlyph name="eight.den_tab" xMin="-42" yMin="-15" xMax="398" yMax="443">
      <component glyphName="eight.small" x="-19" y="0" flags="0x4"/>
    </TTGlyph>
    <TTGlyph name="eight.inf" xMin="-58" yMin="-229" xMax="382" yMax="229">
      <component glyphName="eight.small" x="-35" y="-214" flags="0x4"/>
    </TTGlyph>
    <TTGlyph name="eight.num" xMin="40" yMin="258" xMax="480" yMax="716">
      <component glyphName="eight.small" x="63" y="273" flags="0x4"/>
    </TTGlyph>
    <TTGlyph name="eight.num_tab" xMin="26" yMin="258" xMax="466" yMax="716">
      <component glyphName="eight.small" x="49" y="273" flags="0x4"/>
    </TTGlyph>
    <TTGlyph name="eight.osf" xMin="11" yMin="-24" xMax="703" yMax="725">
      <contour>
        <pt x="415" y="725" on="1"/>
        <pt x="491" y="725" on="0"/>
        <pt x="600" y="693" on="0"/>
        <pt x="670" y="638" on="0"/>
        <pt x="703" y="564" on="0"/>
        <pt x="703" y="523" on="1"/>
        <pt x="703" y="453" on="0"/>
        <pt x="609" y="360" on="0"/>
        <pt x="543" y="347" on="1"/>
        <pt x="594" y="327" on="0"/>
        <pt x="652" y="252" on="0"/>
        <pt x="652" y="201" on="1"/>
        <pt x="652" y="157" on="0"/>
        <pt x="615" y="75" on="0"/>
        <pt x="535" y="13" on="0"/>
        <pt x="408" y="-24" on="0"/>
        <pt x="319" y="-24" on="1"/>
        <pt x="163" y="-24" on="0"/>
        <pt x="11" y="82" on="0"/>
        <pt x="11" y="171" on="1"/>
        <pt x="11" y="239" on="0"/>
        <pt x="107" y="347" on="0"/>
        <pt x="191" y="364" on="1"/>
        <pt x="148" y="383" on="0"/>
        <pt x="97" y="456" on="0"/>
        <pt x="97" y="502" on="1"/>
        <pt x="97" y="545" on="0"/>
        <pt x="133" y="626" on="0"/>
        <pt x="210" y="688" on="0"/>
        <pt x="331" y="725" on="0"/>
      </contour>
      <contour>
        <pt x="408" y="549" on="1"/>
        <pt x="360" y="549" on="0"/>
        <pt x="313" y="507" on="0"/>
        <pt x="313" y="477" on="1"/>
        <pt x="313" y="449" on="0"/>
        <pt x="353" y="420" on="0"/>
        <pt x="393" y="420" on="1"/>
        <pt x="441" y="420" on="0"/>
        <pt x="488" y="462" on="0"/>
        <pt x="488" y="492" on="1"/>
        <pt x="488" y="520" on="0"/>
        <pt x="448" y="549" on="0"/>
      </contour>
      <contour>
        <pt x="321" y="154" on="1"/>
        <pt x="376" y="154" on="0"/>
        <pt x="428" y="193" on="0"/>
        <pt x="428" y="227" on="1"/>
        <pt x="428" y="256" on="0"/>
        <pt x="382" y="287" on="0"/>
        <pt x="336" y="287" on="1"/>
        <pt x="281" y="287" on="0"/>
        <pt x="235" y="243" on="0"/>
        <pt x="235" y="213" on="1"/>
        <pt x="235" y="185" on="0"/>
        <pt x="280" y="154" on="0"/>
      </contour>
    </TTGlyph>
    <TTGlyph name="eight.small" xMin="-23" yMin="-15" xMax="417" yMax="443">
      <contour>
        <pt x="173" y="-15" on="1"/>
        <pt x="76" y="-15" on="0"/>
        <pt x="-23" y="51" on="0"/>
        <pt x="-23" y="105" on="1"/>
        <pt x="-23" y="147" on="0"/>
        <pt x="35" y="212" on="0"/>
        <pt x="86" y="223" on="1"/>
        <pt x="60" y="236" on="0"/>
        <pt x="29" y="279" on="0"/>
        <pt x="29" y="309" on="1"/>
        <pt x="29" y="334" on="0"/>
        <pt x="53" y="383" on="0"/>
        <pt x="102" y="420" on="0"/>
        <pt x="179" y="443" on="0"/>
        <pt x="232" y="443" on="1"/>
        <pt x="328" y="443" on="0"/>
        <pt x="417" y="370" on="0"/>
        <pt x="417" y="319" on="1"/>
        <pt x="417" y="276" on="0"/>
        <pt x="359" y="219" on="0"/>
        <pt x="317" y="211" on="1"/>
        <pt x="349" y="199" on="0"/>
        <pt x="385" y="152" on="0"/>
        <pt x="385" y="120" on="1"/>
        <pt x="385" y="94" on="0"/>
        <pt x="361" y="45" on="0"/>
        <pt x="309" y="8" on="0"/>
        <pt x="229" y="-15" on="0"/>
      </contour>
      <contour>
        <pt x="216" y="258" on="1"/>
        <pt x="242" y="258" on="0"/>
        <pt x="272" y="281" on="0"/>
        <pt x="272" y="298" on="1"/>
        <pt x="272" y="314" on="0"/>
        <pt x="249" y="329" on="0"/>
        <pt x="228" y="329" on="1"/>
        <pt x="202" y="329" on="0"/>
        <pt x="172" y="305" on="0"/>
        <pt x="172" y="289" on="1"/>
        <pt x="172" y="273" on="0"/>
        <pt x="195" y="258" on="0"/>
      </contour>
      <contour>
        <pt x="184" y="173" on="1"/>
        <pt x="156" y="173" on="0"/>
        <pt x="127" y="151" on="0"/>
        <pt x="127" y="132" on="1"/>
        <pt x="127" y="116" on="0"/>
        <pt x="153" y="99" on="0"/>
        <pt x="178" y="99" on="1"/>
        <pt x="206" y="99" on="0"/>
        <pt x="235" y="121" on="0"/>
        <pt x="235" y="140" on="1"/>
        <pt x="235" y="157" on="0"/>
        <pt x="209" y="173" on="0"/>
      </contour>
    </TTGlyph>
    <TTGlyph name="eight.sup" xMin="65" yMin="350" xMax="505" yMax="808">
      <component glyphName="eight.small" x="88" y="365" flags="0x4"/>
    </TTGlyph>
    <TTGlyph name="eight.tab" xMin="13" yMin="-24" xMax="721" yMax="725">
      <contour>
        <pt x="329" y="-24" on="1"/>
        <pt x="171" y="-24" on="0"/>
        <pt x="13" y="82" on="0"/>
        <pt x="13" y="172" on="1"/>
        <pt x="13" y="240" on="0"/>
        <pt x="109" y="348" on="0"/>
        <pt x="193" y="365" on="1"/>
        <pt x="150" y="384" on="0"/>
        <pt x="99" y="457" on="0"/>
        <pt x="99" y="506" on="1"/>
        <pt x="99" y="547" on="0"/>
        <pt x="137" y="627" on="0"/>
        <pt x="216" y="688" on="0"/>
        <pt x="340" y="725" on="0"/>
        <pt x="425" y="725" on="1"/>
        <pt x="502" y="725" on="0"/>
        <pt x="615" y="693" on="0"/>
        <pt x="687" y="638" on="0"/>
        <pt x="721" y="563" on="0"/>
        <pt x="721" y="522" on="1"/>
        <pt x="721" y="452" on="0"/>
        <pt x="627" y="359" on="0"/>
        <pt x="561" y="346" on="1"/>
        <pt x="612" y="326" on="0"/>
        <pt x="670" y="251" on="0"/>
        <pt x="670" y="200" on="1"/>
        <pt x="670" y="156" on="0"/>
        <pt x="631" y="75" on="0"/>
        <pt x="549" y="13" on="0"/>
        <pt x="419" y="-24" on="0"/>
      </contour>
      <contour>
        <pt x="403" y="420" on="1"/>
        <pt x="449" y="420" on="0"/>
        <pt x="495" y="462" on="0"/>
        <pt x="495" y="492" on="1"/>
        <pt x="495" y="520" on="0"/>
        <pt x="456" y="549" on="0"/>
        <pt x="418" y="549" on="1"/>
        <pt x="372" y="549" on="0"/>
        <pt x="326" y="507" on="0"/>
        <pt x="326" y="477" on="1"/>
        <pt x="326" y="449" on="0"/>
        <pt x="365" y="420" on="0"/>
      </contour>
      <contour>
        <pt x="345" y="287" on="1"/>
        <pt x="296" y="287" on="0"/>
        <pt x="248" y="248" on="0"/>
        <pt x="248" y="215" on="1"/>
        <pt x="248" y="185" on="0"/>
        <pt x="294" y="154" on="0"/>
        <pt x="338" y="154" on="1"/>
        <pt x="387" y="154" on="0"/>
        <pt x="435" y="193" on="0"/>
        <pt x="435" y="226" on="1"/>
        <pt x="435" y="256" on="0"/>
        <pt x="389" y="287" on="0"/>
      </contour>
    </TTGlyph>
    <TTGlyph name="ellipsis" xMin="30" yMin="-11" xMax="1099" yMax="232">
      <contour>
        <pt x="30" y="99" on="1"/>
        <pt x="30" y="153" on="0"/>
        <pt x="108" y="232" on="0"/>
        <pt x="176" y="232" on="1"/>
        <pt x="237" y="232" on="0"/>
        <pt x="299" y="171" on="0"/>
        <pt x="299" y="122" on="1"/>
        <pt x="299" y="68" on="0"/>
        <pt x="221" y="-11" on="0"/>
        <pt x="153" y="-11" on="1"/>
        <pt x="92" y="-11" on="0"/>
        <pt x="30" y="50" on="0"/>
      </contour>
      <contour>
        <pt x="430" y="99" on="1"/>
        <pt x="430" y="153" on="0"/>
        <pt x="508" y="232" on="0"/>
        <pt x="576" y="232" on="1"/>
        <pt x="637" y="232" on="0"/>
        <pt x="699" y="171" on="0"/>
        <pt x="699" y="122" on="1"/>
        <pt x="699" y="68" on="0"/>
        <pt x="621" y="-11" on="0"/>
        <pt x="553" y="-11" on="1"/>
        <pt x="492" y="-11" on="0"/>
        <pt x="430" y="50" on="0"/>
      </contour>
      <contour>
        <pt x="830" y="99" on="1"/>
        <pt x="830" y="153" on="0"/>
        <pt x="908" y="232" on="0"/>
        <pt x="976" y="232" on="1"/>
        <pt x="1037" y="232" on="0"/>
        <pt x="1099" y="171" on="0"/>
        <pt x="1099" y="122" on="1"/>
        <pt x="1099" y="68" on="0"/>
        <pt x="1021" y="-11" on="0"/>
        <pt x="953" y="-11" on="1"/>
        <pt x="892" y="-11" on="0"/>
        <pt x="830" y="50" on="0"/>
      </contour>
    </TTGlyph>
    <TTGlyph name="emacron" xMin="26" yMin="-21" xMax="652" yMax="806">
      <component glyphName="e" x="0" y="0" flags="0x204"/>
      <component glyphName="macron" x="72" y="0" flags="0x4"/>
    </TTGlyph>
    <TTGlyph name="emacron.sc" xMin="6" yMin="0" xMax="664" yMax="850">
      <component glyphName="e.sc" x="0" y="0" flags="0x204"/>
      <component glyphName="macron" x="82" y="44" flags="0x4"/>
    </TTGlyph>
    <TTGlyph name="emdash" xMin="38" yMin="226" xMax="835" yMax="427">
      <contour>
        <pt x="38" y="226" on="1"/>
        <pt x="81" y="427" on="1"/>
        <pt x="835" y="427" on="1"/>
        <pt x="792" y="226" on="1"/>
      </contour>
    </TTGlyph>
    <TTGlyph name="emdash.cap" xMin="43" yMin="249" xMax="840" yMax="450">
      <component glyphName="emdash" x="5" y="23" flags="0x4"/>
    </TTGlyph>
    <TTGlyph name="endash" xMin="38" yMin="226" xMax="633" yMax="427">
      <contour>
        <pt x="38" y="226" on="1"/>
        <pt x="81" y="427" on="1"/>
        <pt x="633" y="427" on="1"/>
        <pt x="590" y="226" on="1"/>
      </contour>
    </TTGlyph>
    <TTGlyph name="endash.cap" xMin="43" yMin="249" xMax="638" yMax="450">
      <component glyphName="endash" x="5" y="23" flags="0x4"/>
    </TTGlyph>
    <TTGlyph name="endash.tab" xMin="69" yMin="249" xMax="684" yMax="450">
      <contour>
        <pt x="69" y="249" on="1"/>
        <pt x="112" y="450" on="1"/>
        <pt x="684" y="450" on="1"/>
        <pt x="641" y="249" on="1"/>
      </contour>
    </TTGlyph>
    <TTGlyph name="eogonek" xMin="26" yMin="-326" xMax="622" yMax="588">
      <contour>
        <pt x="374" y="160" on="1"/>
        <pt x="425" y="160" on="0"/>
        <pt x="527" y="186" on="0"/>
        <pt x="564" y="199" on="1"/>
        <pt x="565" y="199" on="1"/>
        <pt x="525" y="17" on="1"/>
        <pt x="445" y="-47" on="1"/>
        <pt x="399" y="-84" on="0"/>
        <pt x="359" y="-125" on="0"/>
        <pt x="359" y="-141" on="1"/>
        <pt x="359" y="-154" on="0"/>
        <pt x="384" y="-167" on="0"/>
        <pt x="412" y="-167" on="1"/>
        <pt x="433" y="-167" on="0"/>
        <pt x="477" y="-158" on="0"/>
        <pt x="498" y="-152" on="1"/>
        <pt x="465" y="-303" on="1"/>
        <pt x="434" y="-314" on="0"/>
        <pt x="368" y="-326" on="0"/>
        <pt x="325" y="-326" on="1"/>
        <pt x="244" y="-326" on="0"/>
        <pt x="145" y="-268" on="0"/>
        <pt x="145" y="-211" on="1"/>
        <pt x="145" y="-156" on="0"/>
        <pt x="233" y="-61" on="0"/>
        <pt x="292" y="-20" on="1"/>
        <pt x="157" y="-10" on="0"/>
        <pt x="26" y="134" on="0"/>
        <pt x="26" y="241" on="1"/>
        <pt x="26" y="307" on="0"/>
        <pt x="70" y="433" on="0"/>
        <pt x="155" y="529" on="0"/>
        <pt x="281" y="588" on="0"/>
        <pt x="362" y="588" on="1"/>
        <pt x="428" y="588" on="0"/>
        <pt x="527" y="549" on="0"/>
        <pt x="591" y="482" on="0"/>
        <pt x="622" y="390" on="0"/>
        <pt x="622" y="337" on="1"/>
        <pt x="622" y="310" on="0"/>
        <pt x="611" y="255" on="0"/>
        <pt x="604" y="233" on="1"/>
        <pt x="254" y="233" on="1"/>
        <pt x="258" y="196" on="0"/>
        <pt x="317" y="160" on="0"/>
      </contour>
      <contour>
        <pt x="354" y="418" on="1"/>
        <pt x="320" y="418" on="0"/>
        <pt x="272" y="367" on="0"/>
        <pt x="262" y="330" on="1"/>
        <pt x="408" y="330" on="1"/>
        <pt x="409" y="335" on="0"/>
        <pt x="410" y="345" on="0"/>
        <pt x="410" y="349" on="1"/>
        <pt x="410" y="377" on="0"/>
        <pt x="384" y="418" on="0"/>
      </contour>
    </TTGlyph>
    <TTGlyph name="eogonek.sc" xMin="6" yMin="-326" xMax="664" yMax="608">
      <contour>
        <pt x="6" y="0" on="1"/>
        <pt x="135" y="608" on="1"/>
        <pt x="664" y="608" on="1"/>
        <pt x="647" y="436" on="1"/>
        <pt x="348" y="436" on="1"/>
        <pt x="334" y="371" on="1"/>
        <pt x="561" y="371" on="1"/>
        <pt x="532" y="234" on="1"/>
        <pt x="305" y="234" on="1"/>
        <pt x="292" y="172" on="1"/>
        <pt x="598" y="172" on="1"/>
        <pt x="545" y="0" on="1"/>
        <pt x="486" y="-47" on="1"/>
        <pt x="440" y="-84" on="0"/>
        <pt x="400" y="-125" on="0"/>
        <pt x="400" y="-141" on="1"/>
        <pt x="400" y="-154" on="0"/>
        <pt x="425" y="-167" on="0"/>
        <pt x="453" y="-167" on="1"/>
        <pt x="474" y="-167" on="0"/>
        <pt x="514" y="-159" on="0"/>
        <pt x="539" y="-152" on="1"/>
        <pt x="506" y="-303" on="1"/>
        <pt x="475" y="-314" on="0"/>
        <pt x="409" y="-326" on="0"/>
        <pt x="366" y="-326" on="1"/>
        <pt x="268" y="-326" on="0"/>
        <pt x="186" y="-255" on="0"/>
        <pt x="186" y="-213" on="1"/>
        <pt x="186" y="-159" on="0"/>
        <pt x="277" y="-54" on="0"/>
        <pt x="396" y="0" on="1"/>
      </contour>
    </TTGlyph>
    <TTGlyph name="equal" xMin="39" yMin="121" xMax="699" yMax="581">
      <contour>
        <pt x="97" y="393" on="1"/>
        <pt x="137" y="581" on="1"/>
        <pt x="699" y="581" on="1"/>
        <pt x="659" y="393" on="1"/>
      </contour>
      <contour>
        <pt x="39" y="121" on="1"/>
        <pt x="79" y="309" on="1"/>
        <pt x="641" y="309" on="1"/>
        <pt x="601" y="121" on="1"/>
      </contour>
    </TTGlyph>
    <TTGlyph name="equal.tab" xMin="47" yMin="121" xMax="707" yMax="581">
      <component glyphName="equal" x="8" y="0" flags="0x4"/>
    </TTGlyph>
    <TTGlyph name="eth" xMin="19" yMin="-26" xMax="694" yMax="794">
      <contour>
        <pt x="660" y="370" on="1"/>
        <pt x="660" y="281" on="0"/>
        <pt x="615" y="134" on="0"/>
        <pt x="527" y="31" on="0"/>
        <pt x="395" y="-26" on="0"/>
        <pt x="310" y="-26" on="1"/>
        <pt x="247" y="-26" on="0"/>
        <pt x="140" y="7" on="0"/>
        <pt x="63" y="69" on="0"/>
        <pt x="19" y="161" on="0"/>
        <pt x="19" y="220" on="1"/>
        <pt x="19" y="284" on="0"/>
        <pt x="59" y="389" on="0"/>
        <pt x="129" y="463" on="0"/>
        <pt x="225" y="503" on="0"/>
        <pt x="280" y="503" on="1"/>
        <pt x="326" y="503" on="0"/>
        <pt x="400" y="474" on="0"/>
        <pt x="429" y="448" on="1"/>
        <pt x="422" y="484" on="0"/>
        <pt x="391" y="553" on="0"/>
        <pt x="366" y="587" on="1"/>
        <pt x="162" y="532" on="1"/>
        <pt x="189" y="657" on="1"/>
        <pt x="276" y="681" on="1"/>
        <pt x="247" y="706" on="0"/>
        <pt x="173" y="757" on="0"/>
        <pt x="130" y="782" on="1"/>
        <pt x="130" y="792" on="1"/>
        <pt x="407" y="792" on="1"/>
        <pt x="426" y="781" on="0"/>
        <pt x="465" y="753" on="0"/>
        <pt x="484" y="737" on="1"/>
        <pt x="694" y="794" on="1"/>
        <pt x="667" y="669" on="1"/>
        <pt x="571" y="643" on="1"/>
        <pt x="610" y="589" on="0"/>
        <pt x="660" y="452" on="0"/>
      </contour>
      <contour>
        <pt x="249" y="247" on="1"/>
        <pt x="249" y="208" on="0"/>
        <pt x="291" y="169" on="0"/>
        <pt x="328" y="169" on="1"/>
        <pt x="365" y="169" on="0"/>
        <pt x="429" y="237" on="0"/>
        <pt x="434" y="324" on="1"/>
        <pt x="414" y="339" on="0"/>
        <pt x="372" y="352" on="0"/>
        <pt x="347" y="352" on="1"/>
        <pt x="304" y="352" on="0"/>
        <pt x="249" y="292" on="0"/>
      </contour>
    </TTGlyph>
    <TTGlyph name="eth.sc" xMin="6" yMin="0" xMax="793" yMax="608">
      <contour>
        <pt x="55" y="0" on="1"/>
        <pt x="103" y="225" on="1"/>
        <pt x="6" y="225" on="1"/>
        <pt x="55" y="386" on="1"/>
        <pt x="137" y="386" on="1"/>
        <pt x="184" y="608" on="1"/>
        <pt x="456" y="608" on="1"/>
        <pt x="625" y="608" on="0"/>
        <pt x="793" y="470" on="0"/>
        <pt x="793" y="354" on="1"/>
        <pt x="793" y="289" on="0"/>
        <pt x="752" y="161" on="0"/>
        <pt x="654" y="62" on="0"/>
        <pt x="489" y="0" on="0"/>
        <pt x="366" y="0" on="1"/>
      </contour>
      <contour>
        <pt x="545" y="333" on="1"/>
        <pt x="545" y="387" on="0"/>
        <pt x="482" y="425" on="0"/>
        <pt x="428" y="425" on="1"/>
        <pt x="391" y="425" on="1"/>
        <pt x="379" y="368" on="1"/>
        <pt x="485" y="368" on="1"/>
        <pt x="458" y="241" on="1"/>
        <pt x="352" y="241" on="1"/>
        <pt x="340" y="183" on="1"/>
        <pt x="396" y="183" on="1"/>
        <pt x="473" y="183" on="0"/>
        <pt x="545" y="270" on="0"/>
      </contour>
    </TTGlyph>
    <TTGlyph name="exclam" xMin="41" yMin="-11" xMax="445" yMax="700">
      <contour>
        <pt x="127" y="290" on="1"/>
        <pt x="144" y="667" on="1"/>
        <pt x="152" y="700" on="1"/>
        <pt x="445" y="700" on="1"/>
        <pt x="437" y="667" on="1"/>
        <pt x="292" y="290" on="1"/>
      </contour>
      <contour>
        <pt x="41" y="99" on="1"/>
        <pt x="41" y="153" on="0"/>
        <pt x="119" y="232" on="0"/>
        <pt x="187" y="232" on="1"/>
        <pt x="248" y="232" on="0"/>
        <pt x="310" y="171" on="0"/>
        <pt x="310" y="122" on="1"/>
        <pt x="310" y="68" on="0"/>
        <pt x="232" y="-11" on="0"/>
        <pt x="164" y="-11" on="1"/>
        <pt x="103" y="-11" on="0"/>
        <pt x="41" y="50" on="0"/>
      </contour>
    </TTGlyph>
    <TTGlyph name="exclamdown" xMin="-24" yMin="-123" xMax="380" yMax="588">
      <contour>
        <pt x="380" y="478" on="1"/>
        <pt x="380" y="424" on="0"/>
        <pt x="302" y="345" on="0"/>
        <pt x="234" y="345" on="1"/>
        <pt x="173" y="345" on="0"/>
        <pt x="111" y="406" on="0"/>
        <pt x="111" y="455" on="1"/>
        <pt x="111" y="509" on="0"/>
        <pt x="189" y="588" on="0"/>
        <pt x="257" y="588" on="1"/>
        <pt x="318" y="588" on="0"/>
        <pt x="380" y="527" on="0"/>
      </contour>
      <contour>
        <pt x="294" y="287" on="1"/>
        <pt x="277" y="-90" on="1"/>
        <pt x="269" y="-123" on="1"/>
        <pt x="-24" y="-123" on="1"/>
        <pt x="-16" y="-90" on="1"/>
        <pt x="129" y="287" on="1"/>
      </contour>
    </TTGlyph>
    <TTGlyph name="exclamdown.cap" xMin="2" yMin="0" xMax="406" yMax="711">
      <contour>
        <pt x="406" y="601" on="1"/>
        <pt x="406" y="547" on="0"/>
        <pt x="328" y="468" on="0"/>
        <pt x="260" y="468" on="1"/>
        <pt x="199" y="468" on="0"/>
        <pt x="137" y="529" on="0"/>
        <pt x="137" y="578" on="1"/>
        <pt x="137" y="632" on="0"/>
        <pt x="215" y="711" on="0"/>
        <pt x="283" y="711" on="1"/>
        <pt x="344" y="711" on="0"/>
        <pt x="406" y="650" on="0"/>
      </contour>
      <contour>
        <pt x="320" y="410" on="1"/>
        <pt x="303" y="33" on="1"/>
        <pt x="295" y="0" on="1"/>
        <pt x="2" y="0" on="1"/>
        <pt x="10" y="33" on="1"/>
        <pt x="155" y="410" on="1"/>
      </contour>
    </TTGlyph>
    <TTGlyph name="f" xMin="28" yMin="0" xMax="596" yMax="807">
      <contour>
        <pt x="429" y="575" on="1"/>
        <pt x="427" y="564" on="1"/>
        <pt x="561" y="564" on="1"/>
        <pt x="523" y="388" on="1"/>
        <pt x="389" y="388" on="1"/>
        <pt x="307" y="0" on="1"/>
        <pt x="62" y="0" on="1"/>
        <pt x="145" y="388" on="1"/>
        <pt x="28" y="388" on="1"/>
        <pt x="96" y="564" on="1"/>
        <pt x="182" y="564" on="1"/>
        <pt x="186" y="582" on="1"/>
        <pt x="208" y="686" on="0"/>
        <pt x="330" y="807" on="0"/>
        <pt x="449" y="807" on="1"/>
        <pt x="495" y="807" on="0"/>
        <pt x="568" y="791" on="0"/>
        <pt x="596" y="779" on="1"/>
        <pt x="563" y="625" on="1"/>
        <pt x="562" y="625" on="1"/>
        <pt x="549" y="629" on="0"/>
        <pt x="513" y="635" on="0"/>
        <pt x="500" y="635" on="1"/>
        <pt x="468" y="635" on="0"/>
        <pt x="436" y="606" on="0"/>
      </contour>
    </TTGlyph>
    <TTGlyph name="f.sc" xMin="6" yMin="0" xMax="668" yMax="608">
      <contour>
        <pt x="347" y="422" on="1"/>
        <pt x="328" y="335" on="1"/>
        <pt x="577" y="335" on="1"/>
        <pt x="545" y="186" on="1"/>
        <pt x="296" y="186" on="1"/>
        <pt x="257" y="0" on="1"/>
        <pt x="6" y="0" on="1"/>
        <pt x="135" y="608" on="1"/>
        <pt x="668" y="608" on="1"/>
        <pt x="650" y="422" on="1"/>
      </contour>
    </TTGlyph>
    <TTGlyph name="five" xMin="-2" yMin="-23" xMax="671" yMax="700">
      <contour>
        <pt x="-2" y="39" on="1"/>
        <pt x="39" y="232" on="1"/>
        <pt x="40" y="232" on="1"/>
        <pt x="98" y="204" on="0"/>
        <pt x="229" y="173" on="0"/>
        <pt x="297" y="173" on="1"/>
        <pt x="357" y="173" on="0"/>
        <pt x="397" y="204" on="0"/>
        <pt x="397" y="221" on="1"/>
        <pt x="397" y="254" on="0"/>
        <pt x="266" y="276" on="0"/>
        <pt x="111" y="276" on="1"/>
        <pt x="63" y="276" on="1"/>
        <pt x="162" y="700" on="1"/>
        <pt x="671" y="700" on="1"/>
        <pt x="653" y="510" on="1"/>
        <pt x="334" y="510" on="1"/>
        <pt x="316" y="438" on="1"/>
        <pt x="386" y="435" on="0"/>
        <pt x="503" y="410" on="0"/>
        <pt x="586" y="360" on="0"/>
        <pt x="632" y="281" on="0"/>
        <pt x="632" y="224" on="1"/>
        <pt x="632" y="110" on="0"/>
        <pt x="458" y="-23" on="0"/>
        <pt x="295" y="-23" on="1"/>
        <pt x="208" y="-23" on="0"/>
        <pt x="63" y="11" on="0"/>
      </contour>
    </TTGlyph>
    <TTGlyph name="five.den" xMin="-20" yMin="-16" xMax="403" yMax="427">
      <component glyphName="five.small" x="-5" y="0" flags="0x4"/>
    </TTGlyph>
    <TTGlyph name="five.den_tab" xMin="-34" yMin="-16" xMax="389" yMax="427">
      <component glyphName="five.small" x="-19" y="0" flags="0x4"/>
    </TTGlyph>
    <TTGlyph name="five.inf" xMin="-50" yMin="-230" xMax="373" yMax="213">
      <component glyphName="five.small" x="-35" y="-214" flags="0x4"/>
    </TTGlyph>
    <TTGlyph name="five.num" xMin="48" yMin="257" xMax="471" yMax="700">
      <component glyphName="five.small" x="63" y="273" flags="0x4"/>
    </TTGlyph>
    <TTGlyph name="five.num_tab" xMin="34" yMin="257" xMax="457" yMax="700">
      <component glyphName="five.small" x="49" y="273" flags="0x4"/>
    </TTGlyph>
    <TTGlyph name="five.osf" xMin="-22" yMin="-117" xMax="610" yMax="608">
      <contour>
        <pt x="-22" y="-55" on="1"/>
        <pt x="18" y="132" on="1"/>
        <pt x="19" y="132" on="1"/>
        <pt x="71" y="105" on="0"/>
        <pt x="178" y="73" on="0"/>
        <pt x="237" y="73" on="1"/>
        <pt x="289" y="73" on="0"/>
        <pt x="335" y="102" on="0"/>
        <pt x="335" y="125" on="1"/>
        <pt x="335" y="159" on="0"/>
        <pt x="206" y="185" on="0"/>
        <pt x="90" y="185" on="1"/>
        <pt x="43" y="185" on="1"/>
        <pt x="144" y="608" on="1"/>
        <pt x="610" y="608" on="1"/>
        <pt x="592" y="421" on="1"/>
        <pt x="313" y="421" on="1"/>
        <pt x="295" y="345" on="1"/>
        <pt x="421" y="338" on="0"/>
        <pt x="565" y="236" on="0"/>
        <pt x="565" y="129" on="1"/>
        <pt x="565" y="20" on="0"/>
        <pt x="405" y="-117" on="0"/>
        <pt x="251" y="-117" on="1"/>
        <pt x="167" y="-117" on="0"/>
        <pt x="39" y="-83" on="0"/>
      </contour>
    </TTGlyph>
    <TTGlyph name="five.small" xMin="-15" yMin="-16" xMax="408" yMax="427">
      <contour>
        <pt x="170" y="-16" on="1"/>
        <pt x="118" y="-16" on="0"/>
        <pt x="26" y="2" on="0"/>
        <pt x="-15" y="18" on="1"/>
        <pt x="13" y="146" on="1"/>
        <pt x="14" y="146" on="1"/>
        <pt x="51" y="131" on="0"/>
        <pt x="129" y="116" on="0"/>
        <pt x="172" y="116" on="1"/>
        <pt x="203" y="116" on="0"/>
        <pt x="227" y="128" on="0"/>
        <pt x="227" y="137" on="1"/>
        <pt x="227" y="154" on="0"/>
        <pt x="148" y="167" on="0"/>
        <pt x="55" y="170" on="1"/>
        <pt x="25" y="171" on="1"/>
        <pt x="85" y="427" on="1"/>
        <pt x="408" y="427" on="1"/>
        <pt x="395" y="299" on="1"/>
        <pt x="188" y="299" on="1"/>
        <pt x="179" y="259" on="1"/>
        <pt x="267" y="256" on="0"/>
        <pt x="378" y="203" on="0"/>
        <pt x="378" y="133" on="1"/>
        <pt x="378" y="64" on="0"/>
        <pt x="272" y="-16" on="0"/>
      </contour>
    </TTGlyph>
    <TTGlyph name="five.sup" xMin="73" yMin="349" xMax="496" yMax="792">
      <component glyphName="five.small" x="88" y="365" flags="0x4"/>
    </TTGlyph>
    <TTGlyph name="five.tab" xMin="30" yMin="-23" xMax="712" yMax="700">
      <contour>
        <pt x="326" y="-23" on="1"/>
        <pt x="239" y="-23" on="0"/>
        <pt x="95" y="11" on="0"/>
        <pt x="30" y="40" on="1"/>
        <pt x="71" y="233" on="1"/>
        <pt x="72" y="233" on="1"/>
        <pt x="130" y="204" on="0"/>
        <pt x="260" y="173" on="0"/>
        <pt x="328" y="173" on="1"/>
        <pt x="385" y="173" on="0"/>
        <pt x="430" y="200" on="0"/>
        <pt x="430" y="220" on="1"/>
        <pt x="430" y="254" on="0"/>
        <pt x="297" y="274" on="0"/>
        <pt x="140" y="274" on="1"/>
        <pt x="92" y="274" on="1"/>
        <pt x="191" y="700" on="1"/>
        <pt x="712" y="700" on="1"/>
        <pt x="692" y="510" on="1"/>
        <pt x="363" y="510" on="1"/>
        <pt x="344" y="434" on="1"/>
        <pt x="415" y="431" on="0"/>
        <pt x="533" y="406" on="0"/>
        <pt x="617" y="357" on="0"/>
        <pt x="663" y="280" on="0"/>
        <pt x="663" y="224" on="1"/>
        <pt x="663" y="110" on="0"/>
        <pt x="489" y="-23" on="0"/>
      </contour>
    </TTGlyph>
    <TTGlyph name="fiveeighths" xMin="48" yMin="-15" xMax="1132" yMax="700">
      <component glyphName="five.num" x="0" y="0" flags="0x4"/>
      <component glyphName="fraction" x="434" y="0" flags="0x4"/>
      <component glyphName="eight.den" x="720" y="0" flags="0x4"/>
    </TTGlyph>
    <TTGlyph name="fiveeighths.tab" xMin="34" yMin="-15" xMax="1050" yMax="700">
      <component glyphName="five.num_tab" x="0" y="0" flags="0x4"/>
      <component glyphName="fraction.tab" x="434" y="0" flags="0x4"/>
      <component glyphName="eight.den_tab" x="652" y="0" flags="0x4"/>
    </TTGlyph>
    <TTGlyph name="four" xMin="1" yMin="0" xMax="757" yMax="700">
      <contour>
        <pt x="351" y="0" on="1"/>
        <pt x="379" y="131" on="1"/>
        <pt x="1" y="131" on="1"/>
        <pt x="37" y="302" on="1"/>
        <pt x="296" y="700" on="1"/>
        <pt x="730" y="700" on="1"/>
        <pt x="649" y="319" on="1"/>
        <pt x="757" y="319" on="1"/>
        <pt x="698" y="131" on="1"/>
        <pt x="610" y="131" on="1"/>
        <pt x="582" y="0" on="1"/>
      </contour>
      <contour>
        <pt x="283" y="314" on="1"/>
        <pt x="426" y="314" on="1"/>
        <pt x="469" y="516" on="1"/>
        <pt x="407" y="516" on="1"/>
      </contour>
    </TTGlyph>
    <TTGlyph name="four.den" xMin="-38" yMin="0" xMax="409" yMax="427">
      <component glyphName="four.small" x="-5" y="0" flags="0x4"/>
    </TTGlyph>
    <TTGlyph name="four.den_tab" xMin="-52" yMin="0" xMax="395" yMax="427">
      <component glyphName="four.small" x="-19" y="0" flags="0x4"/>
    </TTGlyph>
    <TTGlyph name="four.inf" xMin="-68" yMin="-214" xMax="379" yMax="213">
      <component glyphName="four.small" x="-35" y="-214" flags="0x4"/>
    </TTGlyph>
    <TTGlyph name="four.num" xMin="30" yMin="273" xMax="477" yMax="700">
      <component glyphName="four.small" x="63" y="273" flags="0x4"/>
    </TTGlyph>
    <TTGlyph name="four.num_tab" xMin="16" yMin="273" xMax="463" yMax="700">
      <component glyphName="four.small" x="49" y="273" flags="0x4"/>
    </TTGlyph>
    <TTGlyph name="four.osf" xMin="-15" yMin="-92" xMax="711" yMax="608">
      <contour>
        <pt x="320" y="-92" on="1"/>
        <pt x="349" y="42" on="1"/>
        <pt x="-15" y="42" on="1"/>
        <pt x="21" y="210" on="1"/>
        <pt x="267" y="608" on="1"/>
        <pt x="685" y="608" on="1"/>
        <pt x="603" y="223" on="1"/>
        <pt x="711" y="223" on="1"/>
        <pt x="656" y="42" on="1"/>
        <pt x="565" y="42" on="1"/>
        <pt x="536" y="-92" on="1"/>
      </contour>
      <contour>
        <pt x="258" y="218" on="1"/>
        <pt x="392" y="218" on="1"/>
        <pt x="436" y="424" on="1"/>
        <pt x="382" y="424" on="1"/>
      </contour>
    </TTGlyph>
    <TTGlyph name="four.small" xMin="-33" yMin="0" xMax="414" yMax="427">
      <contour>
        <pt x="173" y="0" on="1"/>
        <pt x="189" y="74" on="1"/>
        <pt x="-33" y="74" on="1"/>
        <pt x="-9" y="189" on="1"/>
        <pt x="131" y="427" on="1"/>
        <pt x="414" y="427" on="1"/>
        <pt x="364" y="193" on="1"/>
        <pt x="411" y="193" on="1"/>
        <pt x="379" y="74" on="1"/>
        <pt x="340" y="74" on="1"/>
        <pt x="324" y="0" on="1"/>
      </contour>
      <contour>
        <pt x="145" y="189" on="1"/>
        <pt x="221" y="189" on="1"/>
        <pt x="247" y="308" on="1"/>
        <pt x="212" y="308" on="1"/>
      </contour>
    </TTGlyph>
    <TTGlyph name="four.sup" xMin="55" yMin="365" xMax="502" yMax="792">
      <component glyphName="four.small" x="88" y="365" flags="0x4"/>
    </TTGlyph>
    <TTGlyph name="four.tab" xMin="-13" yMin="0" xMax="718" yMax="700">
      <contour>
        <pt x="339" y="0" on="1"/>
        <pt x="365" y="119" on="1"/>
        <pt x="-13" y="119" on="1"/>
        <pt x="23" y="292" on="1"/>
        <pt x="264" y="700" on="1"/>
        <pt x="709" y="700" on="1"/>
        <pt x="627" y="311" on="1"/>
        <pt x="718" y="311" on="1"/>
        <pt x="662" y="119" on="1"/>
        <pt x="586" y="119" on="1"/>
        <pt x="561" y="0" on="1"/>
      </contour>
      <contour>
        <pt x="271" y="306" on="1"/>
        <pt x="412" y="306" on="1"/>
        <pt x="457" y="515" on="1"/>
        <pt x="387" y="515" on="1"/>
      </contour>
    </TTGlyph>
    <TTGlyph name="fraction" xMin="-237" yMin="0" xMax="551" yMax="700">
      <contour>
        <pt x="-237" y="1" on="1"/>
        <pt x="391" y="700" on="1"/>
        <pt x="551" y="700" on="1"/>
        <pt x="551" y="699" on="1"/>
        <pt x="-77" y="0" on="1"/>
        <pt x="-237" y="0" on="1"/>
      </contour>
    </TTGlyph>
    <TTGlyph name="fraction.tab" xMin="-285" yMin="0" xMax="503" yMax="700">
      <contour>
        <pt x="-285" y="1" on="1"/>
        <pt x="343" y="700" on="1"/>
        <pt x="503" y="700" on="1"/>
        <pt x="503" y="699" on="1"/>
        <pt x="-125" y="0" on="1"/>
        <pt x="-285" y="0" on="1"/>
      </contour>
    </TTGlyph>
    <TTGlyph name="g" xMin="-68" yMin="-248" xMax="733" yMax="661">
      <contour>
        <pt x="266" y="-248" on="1"/>
        <pt x="191" y="-248" on="0"/>
        <pt x="68" y="-225" on="0"/>
        <pt x="-20" y="-184" on="0"/>
        <pt x="-68" y="-125" on="0"/>
        <pt x="-68" y="-89" on="1"/>
        <pt x="-68" y="-43" on="0"/>
        <pt x="0" y="25" on="0"/>
        <pt x="53" y="40" on="1"/>
        <pt x="127" y="211" on="1"/>
        <pt x="84" y="236" on="0"/>
        <pt x="42" y="309" on="0"/>
        <pt x="42" y="352" on="1"/>
        <pt x="42" y="399" on="0"/>
        <pt x="77" y="484" on="0"/>
        <pt x="149" y="546" on="0"/>
        <pt x="262" y="582" on="0"/>
        <pt x="340" y="582" on="1"/>
        <pt x="362" y="582" on="0"/>
        <pt x="401" y="578" on="0"/>
        <pt x="419" y="575" on="1"/>
        <pt x="485" y="661" on="1"/>
        <pt x="733" y="661" on="1"/>
        <pt x="729" y="640" on="1"/>
        <pt x="563" y="502" on="1"/>
        <pt x="591" y="478" on="0"/>
        <pt x="617" y="421" on="0"/>
        <pt x="617" y="384" on="1"/>
        <pt x="617" y="342" on="0"/>
        <pt x="582" y="264" on="0"/>
        <pt x="510" y="205" on="0"/>
        <pt x="397" y="169" on="0"/>
        <pt x="319" y="169" on="1"/>
        <pt x="309" y="169" on="0"/>
        <pt x="291" y="169" on="0"/>
        <pt x="282" y="170" on="1"/>
        <pt x="269" y="133" on="1"/>
        <pt x="426" y="107" on="0"/>
        <pt x="597" y="17" on="0"/>
        <pt x="597" y="-64" on="1"/>
        <pt x="597" y="-107" on="0"/>
        <pt x="550" y="-175" on="0"/>
        <pt x="464" y="-222" on="0"/>
        <pt x="341" y="-248" on="0"/>
      </contour>
      <contour>
        <pt x="322" y="302" on="1"/>
        <pt x="355" y="303" on="0"/>
        <pt x="393" y="353" on="0"/>
        <pt x="393" y="388" on="1"/>
        <pt x="393" y="416" on="0"/>
        <pt x="362" y="446" on="0"/>
        <pt x="335" y="445" on="1"/>
        <pt x="302" y="444" on="0"/>
        <pt x="264" y="394" on="0"/>
        <pt x="264" y="359" on="1"/>
        <pt x="264" y="331" on="0"/>
        <pt x="295" y="301" on="0"/>
      </contour>
      <contour>
        <pt x="288" y="-120" on="1"/>
        <pt x="339" y="-120" on="0"/>
        <pt x="382" y="-103" on="0"/>
        <pt x="382" y="-90" on="1"/>
        <pt x="382" y="-66" on="0"/>
        <pt x="252" y="-30" on="0"/>
        <pt x="128" y="-13" on="1"/>
        <pt x="122" y="-21" on="0"/>
        <pt x="116" y="-40" on="0"/>
        <pt x="116" y="-50" on="1"/>
        <pt x="116" y="-68" on="0"/>
        <pt x="148" y="-95" on="0"/>
        <pt x="198" y="-112" on="0"/>
        <pt x="259" y="-120" on="0"/>
      </contour>
    </TTGlyph>
    <TTGlyph name="g.sc" xMin="38" yMin="-23" xMax="724" yMax="627">
      <contour>
        <pt x="454" y="431" on="1"/>
        <pt x="371" y="431" on="0"/>
        <pt x="284" y="340" on="0"/>
        <pt x="284" y="265" on="1"/>
        <pt x="284" y="218" on="0"/>
        <pt x="337" y="160" on="0"/>
        <pt x="397" y="160" on="1"/>
        <pt x="437" y="160" on="0"/>
        <pt x="489" y="189" on="0"/>
        <pt x="496" y="220" on="1"/>
        <pt x="361" y="220" on="1"/>
        <pt x="391" y="360" on="1"/>
        <pt x="724" y="360" on="1"/>
        <pt x="725" y="282" on="0"/>
        <pt x="687" y="128" on="0"/>
        <pt x="631" y="72" on="1"/>
        <pt x="588" y="29" on="0"/>
        <pt x="463" y="-23" on="0"/>
        <pt x="364" y="-23" on="1"/>
        <pt x="285" y="-23" on="0"/>
        <pt x="163" y="17" on="0"/>
        <pt x="81" y="91" on="0"/>
        <pt x="38" y="194" on="0"/>
        <pt x="38" y="257" on="1"/>
        <pt x="38" y="338" on="0"/>
        <pt x="95" y="475" on="0"/>
        <pt x="200" y="572" on="0"/>
        <pt x="350" y="627" on="0"/>
        <pt x="441" y="627" on="1"/>
        <pt x="511" y="627" on="0"/>
        <pt x="634" y="601" on="0"/>
        <pt x="691" y="579" on="1"/>
        <pt x="651" y="387" on="1"/>
        <pt x="650" y="387" on="1"/>
        <pt x="605" y="406" on="0"/>
        <pt x="506" y="431" on="0"/>
      </contour>
    </TTGlyph>
    <TTGlyph name="gbreve" xMin="-68" yMin="-248" xMax="733" yMax="928">
      <component glyphName="g" x="0" y="0" flags="0x204"/>
      <component glyphName="breve" x="51" y="71" flags="0x4"/>
    </TTGlyph>
    <TTGlyph name="gbreve.sc" xMin="38" yMin="-23" xMax="724" yMax="920">
      <component glyphName="g.sc" x="0" y="0" flags="0x204"/>
      <component glyphName="breve" x="133" y="63" flags="0x4"/>
    </TTGlyph>
    <TTGlyph name="gdotaccent" xMin="-68" yMin="-248" xMax="733" yMax="913">
      <component glyphName="g" x="0" y="0" flags="0x204"/>
      <component glyphName="dotaccent" x="55" y="71" flags="0x4"/>
    </TTGlyph>
    <TTGlyph name="gdotaccent.sc" xMin="38" yMin="-23" xMax="724" yMax="905">
      <component glyphName="g.sc" x="0" y="0" flags="0x204"/>
      <component glyphName="dotaccent" x="137" y="63" flags="0x4"/>
    </TTGlyph>
    <TTGlyph name="germandbls" xMin="28" yMin="-15" xMax="851" yMax="807">
      <contour>
        <pt x="28" y="388" on="1"/>
        <pt x="96" y="564" on="1"/>
        <pt x="185" y="564" on="1"/>
        <pt x="203" y="616" on="0"/>
        <pt x="262" y="705" on="0"/>
        <pt x="347" y="770" on="0"/>
        <pt x="461" y="807" on="0"/>
        <pt x="533" y="807" on="1"/>
        <pt x="657" y="807" on="0"/>
        <pt x="818" y="682" on="0"/>
        <pt x="851" y="583" on="1"/>
        <pt x="675" y="405" on="1"/>
        <pt x="734" y="368" on="0"/>
        <pt x="811" y="277" on="0"/>
        <pt x="811" y="217" on="1"/>
        <pt x="811" y="114" on="0"/>
        <pt x="672" y="-15" on="0"/>
        <pt x="555" y="-15" on="1"/>
        <pt x="504" y="-15" on="0"/>
        <pt x="405" y="4" on="0"/>
        <pt x="365" y="23" on="1"/>
        <pt x="403" y="199" on="1"/>
        <pt x="404" y="199" on="1"/>
        <pt x="428" y="186" on="0"/>
        <pt x="494" y="165" on="0"/>
        <pt x="520" y="165" on="1"/>
        <pt x="554" y="165" on="0"/>
        <pt x="582" y="204" on="0"/>
        <pt x="582" y="224" on="1"/>
        <pt x="582" y="248" on="0"/>
        <pt x="546" y="280" on="0"/>
        <pt x="502" y="302" on="1"/>
        <pt x="457" y="325" on="1"/>
        <pt x="480" y="433" on="1"/>
        <pt x="607" y="569" on="1"/>
        <pt x="593" y="589" on="0"/>
        <pt x="553" y="608" on="0"/>
        <pt x="531" y="608" on="1"/>
        <pt x="482" y="608" on="0"/>
        <pt x="423" y="536" on="0"/>
        <pt x="411" y="480" on="1"/>
        <pt x="309" y="0" on="1"/>
        <pt x="62" y="0" on="1"/>
        <pt x="145" y="388" on="1"/>
      </contour>
    </TTGlyph>
    <TTGlyph name="germandbls.sc" xMin="0" yMin="-21" xMax="1309" yMax="627">
      <component glyphName="s.sc" x="0" y="0" flags="0x4"/>
      <component glyphName="s.sc" x="657" y="0" flags="0x4"/>
    </TTGlyph>
    <TTGlyph name="grave" xMin="145" yMin="634" xMax="488" yMax="825">
      <contour>
        <pt x="488" y="634" on="1"/>
        <pt x="301" y="634" on="1"/>
        <pt x="145" y="805" on="1"/>
        <pt x="149" y="825" on="1"/>
        <pt x="387" y="825" on="1"/>
      </contour>
    </TTGlyph>
    <TTGlyph name="greater" xMin="21" yMin="5" xMax="631" yMax="696">
      <contour>
        <pt x="168" y="696" on="1"/>
        <pt x="631" y="466" on="1"/>
        <pt x="582" y="235" on="1"/>
        <pt x="21" y="5" on="1"/>
        <pt x="74" y="244" on="1"/>
        <pt x="370" y="362" on="1"/>
        <pt x="122" y="479" on="1"/>
      </contour>
    </TTGlyph>
    <TTGlyph name="greater.tab" xMin="60" yMin="5" xMax="670" yMax="696">
      <component glyphName="greater" x="39" y="0" flags="0x4"/>
    </TTGlyph>
    <TTGlyph name="guillemotleft" xMin="21" yMin="39" xMax="839" yMax="525">
      <contour>
        <pt x="499" y="39" on="1"/>
        <pt x="367" y="265" on="1"/>
        <pt x="372" y="291" on="1"/>
        <pt x="585" y="525" on="1"/>
        <pt x="839" y="525" on="1"/>
        <pt x="602" y="267" on="1"/>
        <pt x="736" y="39" on="1"/>
      </contour>
      <contour>
        <pt x="163" y="39" on="1"/>
        <pt x="21" y="275" on="1"/>
        <pt x="26" y="301" on="1"/>
        <pt x="229" y="525" on="1"/>
        <pt x="483" y="525" on="1"/>
        <pt x="257" y="277" on="1"/>
        <pt x="400" y="39" on="1"/>
      </contour>
    </TTGlyph>
    <TTGlyph name="guillemotleft.cap" xMin="35" yMin="107" xMax="853" yMax="593">
      <component glyphName="guillemotleft" x="14" y="68" flags="0x4"/>
    </TTGlyph>
</ttFont>
